<svg version="1.1" viewBox="0.0 0.0 288.0 49.92125984251968" fill="none" stroke="none" stroke-linecap="square" stroke-miterlimit="10" xmlns:xlink="http://www.w3.org/1999/xlink" xmlns="http://www.w3.org/2000/svg"><clipPath id="p.0"><path d="m0 0l288.0 0l0 49.92126l-288.0 0l0 -49.92126z" clip-rule="nonzero"/></clipPath><g clip-path="url(#p.0)"><path fill="#000000" fill-opacity="0.0" d="m0 0l288.0 0l0 49.92126l-288.0 0z" fill-rule="evenodd"/><path shape-rendering="crispEdges" fill="#000000" d="m-3.937008E-4 -3.648294E-5l32.0 0l0 24.96063l-32.0 0l0 -24.96063z" fill-rule="nonzero"/><path shape-rendering="crispEdges" fill="#000000" d="m31.999607 -3.648294E-5l32.0 0l0 24.96063l-32.0 0l0 -24.96063z" fill-rule="nonzero"/><path shape-rendering="crispEdges" fill="#000000" d="m63.999607 -3.648294E-5l31.999996 0l0 24.96063l-31.999996 0l0 -24.96063z" fill-rule="nonzero"/><path shape-rendering="crispEdges" fill="#000000" d="m95.9996 -3.648294E-5l32.0 0l0 24.96063l-32.0 0l0 -24.96063z" fill-rule="nonzero"/><path shape-rendering="crispEdges" fill="#000000" d="m127.9996 -3.648294E-5l32.0 0l0 24.96063l-32.0 0l0 -24.96063z" fill-rule="nonzero"/><path shape-rendering="crispEdges" fill="#000000" d="m159.9996 -3.648294E-5l32.0 0l0 24.96063l-32.0 0l0 -24.96063z" fill-rule="nonzero"/><path shape-rendering="crispEdges" fill="#000000" d="m191.9996 -3.648294E-5l32.0 0l0 24.96063l-32.0 0l0 -24.96063z" fill-rule="nonzero"/><path shape-rendering="crispEdges" fill="#000000" d="m223.9996 -3.648294E-5l32.0 0l0 24.96063l-32.0 0l0 -24.96063z" fill-rule="nonzero"/><path shape-rendering="crispEdges" fill="#000000" d="m255.9996 -3.648294E-5l32.0 0l0 24.96063l-32.0 0l0 -24.96063z" fill-rule="nonzero"/><path stroke="#000000" stroke-width="1.0" stroke-linecap="butt" d="m-3.937008E-4 -0.49872413l0 50.918636" fill-rule="nonzero"/><path stroke="#ffffff" stroke-width="1.0" stroke-linecap="butt" d="m31.999607 -0.49872413l0 24.96063" fill-rule="nonzero"/><path stroke="#000000" stroke-width="1.0" stroke-linecap="butt" d="m31.999607 24.461906l0 25.958004" fill-rule="nonzero"/><path stroke="#ffffff" stroke-width="1.0" stroke-linecap="butt" d="m63.999607 -0.49872413l0 24.96063" fill-rule="nonzero"/><path stroke="#000000" stroke-width="1.0" stroke-linecap="butt" d="m63.999607 24.461906l0 25.958004" fill-rule="nonzero"/><path stroke="#ffffff" stroke-width="1.0" stroke-linecap="butt" d="m95.9996 -0.49872413l0 24.96063" fill-rule="nonzero"/><path stroke="#000000" stroke-width="1.0" stroke-linecap="butt" d="m95.9996 24.461906l0 25.958004" fill-rule="nonzero"/><path stroke="#ffffff" stroke-width="1.0" stroke-linecap="butt" d="m127.9996 -0.49872413l0 24.96063" fill-rule="nonzero"/><path stroke="#000000" stroke-width="1.0" stroke-linecap="butt" d="m127.9996 24.461906l0 25.958004" fill-rule="nonzero"/><path stroke="#ffffff" stroke-width="1.0" stroke-linecap="butt" d="m159.9996 -0.49872413l0 24.96063" fill-rule="nonzero"/><path stroke="#000000" stroke-width="1.0" stroke-linecap="butt" d="m159.9996 24.461906l0 25.958004" fill-rule="nonzero"/><path stroke="#ffffff" stroke-width="1.0" stroke-linecap="butt" d="m191.9996 -0.49872413l0 24.96063" fill-rule="nonzero"/><path stroke="#000000" stroke-width="1.0" stroke-linecap="butt" d="m191.9996 24.461906l0 25.958004" fill-rule="nonzero"/><path stroke="#ffffff" stroke-width="1.0" stroke-linecap="butt" d="m223.9996 -0.49872413l0 24.96063" fill-rule="nonzero"/><path stroke="#000000" stroke-width="1.0" stroke-linecap="butt" d="m223.9996 24.461906l0 25.958004" fill-rule="nonzero"/><path stroke="#ffffff" stroke-width="1.0" stroke-linecap="butt" d="m255.9996 -0.49872413l0 24.96063" fill-rule="nonzero"/><path stroke="#000000" stroke-width="1.0" stroke-linecap="butt" d="m255.9996 24.461906l0 25.958004" fill-rule="nonzero"/><path stroke="#000000" stroke-width="1.0" stroke-linecap="butt" d="m287.9996 -0.49872413l0 50.918636" fill-rule="nonzero"/><path stroke="#000000" stroke-width="1.0" stroke-linecap="butt" d="m-0.49908137 -3.648294E-5l288.99738 0" fill-rule="nonzero"/><path stroke="#000000" stroke-width="1.0" stroke-linecap="butt" d="m-0.49908137 24.960594l288.99738 0" fill-rule="nonzero"/><path stroke="#000000" stroke-width="1.0" stroke-linecap="butt" d="m-0.49908137 49.921223l288.99738 0" fill-rule="nonzero"/><path fill="#ffffff" d="m8.730639 19.200277l0 -2.203125l3.625 -5.5625q0.40625 -0.609375 0.765625 -1.1875q0.359375 -0.578125 0.59375 -1.171875q0.234375 -0.609375 0.234375 -1.2500005q0 -0.65625 -0.265625 -0.96875q-0.25 -0.328125 -0.703125 -0.328125q-0.5 0 -0.78125 0.28125q-0.28125 0.28125 -0.390625 0.75q-0.09375 0.46875048 -0.09375 1.0468755l0 0.75l-3.015625 0l0 -0.8125q0 -1.3437505 0.421875 -2.3906255q0.421875 -1.0625 1.359375 -1.65625q0.9375 -0.60937476 2.453125 -0.60937476q2.03125 0 3.0625 1.0624998q1.031251 1.046875 1.031251 2.921875q0 0.9218755 -0.296875 1.7031255q-0.28125 0.78125 -0.76562595 1.515625q-0.46875 0.734375 -1.0 1.546875l-2.765625 4.125l4.421876 0l0 2.4375l-7.890626 0z" fill-rule="nonzero"/><path fill="#ffffff" d="m20.7887 12.356527q-1.015625 0 -1.625 -0.390625q-0.609375 -0.40625 -0.875 -1.125q-0.265625 -0.71875 -0.265625 -1.640625q0.015625 -0.375 0.078125 -0.71875q0.078125 -0.359375 0.21875 -0.6562505q0.140625 -0.3125 0.359375 -0.546875q0.21875 -0.234375 0.515625 -0.375q-0.390625 -0.28125 -0.6875 -0.828125q-0.296875 -0.546875 -0.3125 -1.375q-0.015625 -0.84374976 0.265625 -1.4531248q0.296875 -0.609375 0.875 -0.9375q0.59375 -0.328125 1.453125 -0.328125q0.875 0 1.453125 0.34375q0.578125 0.328125 0.859375 0.9375q0.28125 0.59375 0.265625 1.4374998q-0.015625 0.84375 -0.3125 1.390625q-0.28125 0.53125 -0.671875 0.8125q0.296875 0.140625 0.515625 0.375q0.21875 0.234375 0.359375 0.546875q0.140625 0.29687548 0.21875 0.6562505q0.078125 0.34375 0.078125 0.71875q0.015625 0.921875 -0.25 1.640625q-0.265625 0.71875 -0.875 1.125q-0.609375 0.390625 -1.640625 0.390625zm0 -1.53125q0.328125 0 0.484375 -0.234375q0.15625 -0.25 0.1875 -0.59375q0.03125 -0.34375 0.03125 -0.625q0.015625 -0.390625 -0.03125 -0.75q-0.03125 -0.359375 -0.1875 -0.59375q-0.15625 -0.23437548 -0.484375 -0.23437548q-0.328125 0 -0.484375 0.23437548q-0.140625 0.234375 -0.1875 0.59375q-0.03125 0.34375 -0.03125 0.75q0 0.28125 0.03125 0.625q0.03125 0.34375 0.1875 0.59375q0.15625 0.234375 0.484375 0.234375zm0 -4.6718755q0.203125 0 0.34375 -0.15625q0.140625 -0.171875 0.203125 -0.5q0.078125 -0.34375 0.078125 -0.84375q0 -0.515625 -0.15625 -0.81249976q-0.15625 -0.296875 -0.46875 -0.296875q-0.3125 0 -0.484375 0.296875q-0.15625 0.29687476 -0.15625 0.79687476q0 0.5 0.0625 0.84375q0.0625 0.34375 0.203125 0.515625q0.15625 0.15625 0.375 0.15625z" fill-rule="nonzero"/><path fill="#ffffff" d="m41.240574 19.200277l0 -2.203125l3.625 -5.5625q0.40625 -0.609375 0.765625 -1.1875q0.359375 -0.578125 0.59375 -1.171875q0.234375 -0.609375 0.234375 -1.2500005q0 -0.65625 -0.265625 -0.96875q-0.25 -0.328125 -0.703125 -0.328125q-0.5 0 -0.78125 0.28125q-0.28125 0.28125 -0.390625 0.75q-0.09375 0.46875048 -0.09375 1.0468755l0 0.75l-3.015625 0l0 -0.8125q0 -1.3437505 0.421875 -2.3906255q0.421875 -1.0625 1.359375 -1.65625q0.9375 -0.60937476 2.453125 -0.60937476q2.03125 0 3.0625 1.0624998q1.03125 1.046875 1.03125 2.921875q0 0.9218755 -0.296875 1.7031255q-0.28125 0.78125 -0.765625 1.515625q-0.46875 0.734375 -1.0 1.546875l-2.765625 4.125l4.421875 0l0 2.4375l-7.890625 0z" fill-rule="nonzero"/><path fill="#ffffff" d="m50.87676 12.200277l2.1875 -8.5l-2.75 0l0 -1.578125l4.78125 0l0 1.4375l-2.203125 8.640625l-2.015625 0z" fill-rule="nonzero"/><path fill="#ffffff" d="m72.624916 19.200277l0 -2.203125l3.625 -5.5625q0.40625 -0.609375 0.765625 -1.1875q0.359375 -0.578125 0.59375 -1.171875q0.234375 -0.609375 0.234375 -1.2500005q0 -0.65625 -0.265625 -0.96875q-0.25 -0.328125 -0.703125 -0.328125q-0.5 0 -0.78125 0.28125q-0.28125 0.28125 -0.390625 0.75q-0.09375 0.46875048 -0.09375 1.0468755l0 0.75l-3.015625 0l0 -0.8125q0 -1.3437505 0.421875 -2.3906255q0.421875 -1.0625 1.359375 -1.65625q0.9375 -0.60937476 2.453125 -0.60937476q2.03125 0 3.0625 1.0624998q1.03125 1.046875 1.03125 2.921875q0 0.9218755 -0.296875 1.7031255q-0.28125 0.78125 -0.765625 1.515625q-0.46875 0.734375 -1.0 1.546875l-2.765625 4.125l4.421875 0l0 2.4375l-7.890625 0z" fill-rule="nonzero"/><path fill="#ffffff" d="m84.8861 12.356527q-0.984375 0 -1.609375 -0.421875q-0.609375 -0.4375 -0.90625 -1.1875q-0.28125 -0.75 -0.28125 -1.703125l0 -3.6406255q0 -0.984375 0.234375 -1.7499998q0.234375 -0.78125 0.828125 -1.21875q0.59375 -0.453125 1.71875 -0.453125q0.96875 0 1.53125 0.3125q0.5625 0.296875 0.796875 0.875q0.234375 0.5625 0.234375 1.4062498q0 0.046875 0 0.09375q0.015625 0.046875 0.015625 0.078125l-1.953125 0q0 -0.609375 -0.09375 -0.89062476q-0.09375 -0.296875 -0.515625 -0.296875q-0.296875 0 -0.4375 0.171875q-0.140625 0.171875 -0.1875 0.60937476q-0.046875 0.4375 -0.046875 1.21875l0 0.890625q0.140625 -0.25 0.46875 -0.390625q0.34375 -0.15625 0.765625 -0.171875q0.796875 -0.015625 1.28125 0.375q0.484375 0.375 0.6875 1.046875q0.21875 0.65625 0.21875 1.4843755q0 1.0625 -0.25 1.859375q-0.25 0.796875 -0.859375 1.25q-0.59375 0.453125 -1.640625 0.453125zm0.015625 -1.53125q0.296875 0 0.421875 -0.1875q0.125 -0.203125 0.171875 -0.578125q0.046875 -0.390625 0.046875 -0.9375q0 -0.5 -0.03125 -0.859375q-0.03125 -0.35937548 -0.171875 -0.5625005q-0.140625 -0.21875 -0.453125 -0.21875q-0.15625 0 -0.296875 0.0625q-0.125 0.0625 -0.234375 0.15625q-0.09375 0.09375 -0.140625 0.1875l0 1.6406255q0 0.328125 0.046875 0.640625q0.0625 0.296875 0.21875 0.484375q0.15625 0.171875 0.421875 0.171875z" fill-rule="nonzero"/><path fill="#ffffff" d="m104.80526 19.200277l0 -2.203125l3.625 -5.5625q0.40625 -0.609375 0.765625 -1.1875q0.359375 -0.578125 0.59375 -1.171875q0.234375 -0.609375 0.234375 -1.2500005q0 -0.65625 -0.265625 -0.96875q-0.25 -0.328125 -0.703125 -0.328125q-0.5 0 -0.78125 0.28125q-0.28125 0.28125 -0.390625 0.75q-0.09375 0.46875048 -0.09375 1.0468755l0 0.75l-3.015625 0l0 -0.8125q0 -1.3437505 0.421875 -2.3906255q0.421875 -1.0625 1.359375 -1.65625q0.9375 -0.60937476 2.453125 -0.60937476q2.03125 0 3.0625 1.0624998q1.03125 1.046875 1.03125 2.921875q0 0.9218755 -0.296875 1.7031255q-0.28125 0.78125 -0.765625 1.515625q-0.46875 0.734375 -1.0 1.546875l-2.765625 4.125l4.421875 0l0 2.4375l-7.890625 0z" fill-rule="nonzero"/><path fill="#ffffff" d="m116.80082 12.387777q-1.109375 0 -1.671875 -0.390625q-0.5625 -0.390625 -0.765625 -1.09375q-0.203125 -0.71875 -0.203125 -1.65625l2.0 0q0 0.578125 0.0625 0.9375q0.0625 0.359375 0.234375 0.515625q0.171875 0.15625 0.484375 0.140625q0.3125 -0.015625 0.453125 -0.25q0.140625 -0.25 0.171875 -0.71875q0.03125 -0.46875 0.03125 -1.125q0 -0.5 -0.0625 -0.8750005q-0.046875 -0.390625 -0.21875 -0.625q-0.171875 -0.234375 -0.5 -0.234375q-0.3125 0 -0.515625 0.234375q-0.203125 0.21875 -0.28125 0.6875l-1.796875 0l0.1875 -5.8125l4.703125 0l0 1.75l-3.03125 0l-0.109375 2.0781248q0.125 -0.1875 0.46875 -0.3125q0.34375 -0.125 0.75 -0.171875q0.765625 -0.078125 1.296875 0.296875q0.53125 0.359375 0.796875 1.109375q0.265625 0.734375 0.265625 1.8281255q0 0.796875 -0.109375 1.484375q-0.09375 0.671875 -0.375 1.171875q-0.28125 0.484375 -0.84375 0.765625q-0.546875 0.265625 -1.421875 0.265625z" fill-rule="nonzero"/><path fill="#ffffff" d="m136.71199 19.200277l0 -2.203125l3.625 -5.5625q0.40625 -0.609375 0.765625 -1.1875q0.359375 -0.578125 0.59375 -1.171875q0.234375 -0.609375 0.234375 -1.2500005q0 -0.65625 -0.265625 -0.96875q-0.25 -0.328125 -0.703125 -0.328125q-0.5 0 -0.78125 0.28125q-0.28125 0.28125 -0.390625 0.75q-0.09375 0.46875048 -0.09375 1.0468755l0 0.75l-3.015625 0l0 -0.8125q0 -1.3437505 0.421875 -2.3906255q0.421875 -1.0625 1.359375 -1.65625q0.9375 -0.60937476 2.453125 -0.60937476q2.03125 0 3.0625 1.0624998q1.03125 1.046875 1.03125 2.921875q0 0.9218755 -0.296875 1.7031255q-0.28125 0.78125 -0.765625 1.515625q-0.46875 0.734375 -1.0 1.546875l-2.765625 4.125l4.421875 0l0 2.4375l-7.890625 0z" fill-rule="nonzero"/><path fill="#ffffff" d="m148.94193 12.200277l0 -2.265625l-3.09375 0l0 -1.53125l2.625 -6.28125l2.40625 0l0 6.265625l0.9375 0l0 1.546875l-0.9375 0l0 2.265625l-1.9375 0zm-1.515625 -3.8125l1.515625 0l0 -4.1875005l-1.515625 4.1875005z" fill-rule="nonzero"/><path fill="#ffffff" d="m168.77417 19.200277l0 -2.203125l3.625 -5.5625q0.40625 -0.609375 0.765625 -1.1875q0.359375 -0.578125 0.59375 -1.171875q0.234375 -0.609375 0.234375 -1.2500005q0 -0.65625 -0.265625 -0.96875q-0.25 -0.328125 -0.703125 -0.328125q-0.5 0 -0.78125 0.28125q-0.28125 0.28125 -0.390625 0.75q-0.09375 0.46875048 -0.09375 1.0468755l0 0.75l-3.015625 0l0 -0.8125q0 -1.3437505 0.421875 -2.3906255q0.421875 -1.0625 1.359375 -1.65625q0.9375 -0.60937476 2.453125 -0.60937476q2.03125 0 3.0625 1.0624998q1.03125 1.046875 1.03125 2.921875q0 0.9218755 -0.296875 1.7031255q-0.28125 0.78125 -0.765625 1.515625q-0.46875 0.734375 -1.0 1.546875l-2.765625 4.125l4.421875 0l0 2.4375l-7.890625 0z" fill-rule="nonzero"/><path fill="#ffffff" d="m180.84785 12.387777q-1.0625 0 -1.671875 -0.390625q-0.59375 -0.40625 -0.859375 -1.125q-0.25 -0.71875 -0.25 -1.640625l0 -0.359375l2.078125 0q0 0 0 0.125q0 0.125 0 0.234375q0 0.5 0.0625 0.8125q0.0625 0.296875 0.21875 0.453125q0.171875 0.140625 0.453125 0.140625q0.28125 0 0.421875 -0.140625q0.15625 -0.15625 0.203125 -0.453125q0.046875 -0.3125 0.046875 -0.75q0 -0.75 -0.203125 -1.140625q-0.203125 -0.39062548 -0.859375 -0.40625048q0 0 -0.125 0q-0.125 0 -0.25 0l0 -1.4375q0.078125 0 0.171875 0q0.09375 0 0.15625 0q0.65625 0 0.875 -0.359375q0.234375 -0.359375 0.234375 -1.109375q0 -0.59375 -0.15625 -0.89062476q-0.15625 -0.3125 -0.578125 -0.3125q-0.40625 0 -0.546875 0.34375q-0.125 0.34374976 -0.125 0.89062476q0 0.125 0 0.265625q0 0.125 0 0.265625l-2.078125 0l0 -0.609375q0 -0.92187476 0.328125 -1.5468748q0.328125 -0.625 0.9375 -0.9375q0.625 -0.328125 1.484375 -0.328125q0.875 0 1.484375 0.3125q0.625 0.296875 0.953125 0.90625q0.34375 0.609375 0.34375 1.4999998q0 0.890625 -0.359375 1.484375q-0.359375 0.59375 -0.859375 0.734375q0.34375 0.125 0.625 0.40625q0.28125 0.265625 0.4375 0.7343755q0.15625 0.453125 0.15625 1.1875q0 0.90625 -0.265625 1.625q-0.265625 0.703125 -0.875 1.109375q-0.609375 0.40625 -1.609375 0.40625z" fill-rule="nonzero"/><path fill="#ffffff" d="m200.77417 19.200277l0 -2.203125l3.625 -5.5625q0.40625 -0.609375 0.765625 -1.1875q0.359375 -0.578125 0.59375 -1.171875q0.234375 -0.609375 0.234375 -1.2500005q0 -0.65625 -0.265625 -0.96875q-0.25 -0.328125 -0.703125 -0.328125q-0.5 0 -0.78125 0.28125q-0.28125 0.28125 -0.390625 0.75q-0.09375 0.46875048 -0.09375 1.0468755l0 0.75l-3.015625 0l0 -0.8125q0 -1.3437505 0.421875 -2.3906255q0.421875 -1.0625 1.359375 -1.65625q0.9375 -0.60937476 2.453125 -0.60937476q2.03125 0 3.0625 1.0624998q1.03125 1.046875 1.03125 2.921875q0 0.9218755 -0.296875 1.7031255q-0.28125 0.78125 -0.765625 1.515625q-0.46875 0.734375 -1.0 1.546875l-2.765625 4.125l4.421875 0l0 2.4375l-7.890625 0z" fill-rule="nonzero"/><path fill="#ffffff" d="m210.11348 12.200277l0 -1.46875l2.40625 -3.7031255q0.28125 -0.40625 0.515625 -0.796875q0.25 -0.390625 0.40625 -0.78125q0.15625 -0.40625 0.15625 -0.84375q0 -0.421875 -0.1875 -0.62499976q-0.171875 -0.21875 -0.46875 -0.21875q-0.328125 0 -0.515625 0.1875q-0.1875 0.17187476 -0.265625 0.48437476q-0.0625 0.3125 -0.0625 0.703125l0 0.5l-2.015625 0l0 -0.546875q0 -0.890625 0.28125 -1.5937498q0.296875 -0.703125 0.90625 -1.109375q0.625 -0.40625 1.640625 -0.40625q1.359375 0 2.046875 0.703125q0.6875 0.703125 0.6875 1.9687498q0 0.609375 -0.203125 1.140625q-0.1875 0.515625 -0.5 1.015625q-0.3125 0.484375 -0.671875 1.015625l-1.84375 2.7500005l2.9375 0l0 1.625l-5.25 0z" fill-rule="nonzero"/><path fill="#ffffff" d="m233.5515 19.200277l0 -2.203125l3.625 -5.5625q0.40625 -0.609375 0.765625 -1.1875q0.359375 -0.578125 0.59375 -1.171875q0.234375 -0.609375 0.234375 -1.2500005q0 -0.65625 -0.265625 -0.96875q-0.25 -0.328125 -0.703125 -0.328125q-0.5 0 -0.78125 0.28125q-0.28125 0.28125 -0.390625 0.75q-0.09375 0.46875048 -0.09375 1.0468755l0 0.75l-3.015625 0l0 -0.8125q0 -1.3437505 0.421875 -2.3906255q0.421875 -1.0625 1.359375 -1.65625q0.9375 -0.60937476 2.453125 -0.60937476q2.03125 0 3.0625 1.0624998q1.03125 1.046875 1.03125 2.921875q0 0.9218755 -0.296875 1.7031255q-0.28125 0.78125 -0.765625 1.515625q-0.46875 0.734375 -1.0 1.546875l-2.765625 4.125l4.421875 0l0 2.4375l-7.890625 0z" fill-rule="nonzero"/><path fill="#ffffff" d="m244.03143 12.200277l0 -8.015625q-0.140625 0.0625 -0.3125 0.140625q-0.171875 0.078125 -0.375 0.15625q-0.1875 0.078125 -0.375 0.15625q-0.171875 0.078125 -0.3125 0.15625l0 -1.5468748q0.125 -0.078125 0.375 -0.203125q0.25 -0.140625 0.53125 -0.296875q0.296875 -0.15625 0.546875 -0.328125q0.25 -0.171875 0.375 -0.296875l1.625 0l0 10.078125l-2.078125 0z" fill-rule="nonzero"/><path fill="#ffffff" d="m264.5503 19.200277l0 -2.203125l3.625 -5.5625q0.40625 -0.609375 0.765625 -1.1875q0.359375 -0.578125 0.59375 -1.171875q0.234375 -0.609375 0.234375 -1.2500005q0 -0.65625 -0.265625 -0.96875q-0.25 -0.328125 -0.703125 -0.328125q-0.5 0 -0.78125 0.28125q-0.28125 0.28125 -0.390625 0.75q-0.09375 0.46875048 -0.09375 1.0468755l0 0.75l-3.015625 0l0 -0.8125q0 -1.3437505 0.421875 -2.3906255q0.421875 -1.0625 1.359375 -1.65625q0.9375 -0.60937476 2.453125 -0.60937476q2.03125 0 3.0625 1.0624998q1.03125 1.046875 1.03125 2.921875q0 0.9218755 -0.296875 1.7031255q-0.28125 0.78125 -0.765625 1.515625q-0.46875 0.734375 -1.0 1.546875l-2.765625 4.125l4.421875 0l0 2.4375l-7.890625 0z" fill-rule="nonzero"/><path fill="#ffffff" d="m276.79587 12.387777q-0.90625 0 -1.515625 -0.359375q-0.609375 -0.375 -0.921875 -1.015625q-0.3125 -0.65625 -0.3125 -1.515625l0 -4.5625005q0 -0.875 0.28125 -1.5468748q0.296875 -0.671875 0.90625 -1.03125q0.609375 -0.375 1.5625 -0.375q0.9375 0 1.546875 0.375q0.609375 0.359375 0.890625 1.03125q0.296875 0.67187476 0.296875 1.5468748l0 4.5625005q0 0.84375 -0.3125 1.5q-0.3125 0.65625 -0.921875 1.03125q-0.609375 0.359375 -1.5 0.359375zm0 -1.859375q0.296875 0 0.421875 -0.1875q0.140625 -0.1875 0.171875 -0.4375q0.03125 -0.265625 0.03125 -0.453125l0 -4.4687505q0 -0.203125 -0.03125 -0.46875q-0.015625 -0.265625 -0.15625 -0.46875q-0.125 -0.21874976 -0.4375 -0.21874976q-0.3125 0 -0.453125 0.21874976q-0.125 0.203125 -0.15625 0.46875q-0.015625 0.265625 -0.015625 0.46875l0 4.4687505q0 0.1875 0.03125 0.453125q0.046875 0.25 0.171875 0.4375q0.140625 0.1875 0.421875 0.1875z" fill-rule="nonzero"/><path fill="#000000" d="m14.855342 44.160908l0 -12.03125q-0.203125 0.109375 -0.46875 0.21875q-0.265625 0.109375 -0.5625 0.234375q-0.28125 0.125 -0.546875 0.234375q-0.265625 0.109375 -0.5 0.21875l0 -2.3125q0.203125 -0.109375 0.578125 -0.296875q0.375 -0.203125 0.796875 -0.4375q0.4375 -0.25 0.8125 -0.5q0.375 -0.25 0.5625 -0.4375l2.437501 0l0 15.109375l-3.109376 0z" fill-rule="nonzero"/><path fill="#000000" d="m47.994137 44.442158q-1.359375 0 -2.28125 -0.546875q-0.90625 -0.5625 -1.375 -1.53125q-0.46875 -0.96875 -0.46875 -2.25l0 -6.84375q0 -1.328125 0.4375 -2.328125q0.453125 -1.0 1.359375 -1.546875q0.921875 -0.5625 2.328125 -0.5625q1.421875 0 2.328125 0.5625q0.90625 0.546875 1.34375 1.546875q0.4375 1.0 0.4375 2.328125l0 6.84375q0 1.265625 -0.46875 2.25q-0.46875 0.96875 -1.390625 1.53125q-0.90625 0.546875 -2.25 0.546875zm0 -2.78125q0.453125 0 0.640625 -0.28125q0.203125 -0.296875 0.25 -0.671875q0.046875 -0.390625 0.046875 -0.671875l0 -6.703125q0 -0.3125 -0.046875 -0.703125q-0.03125 -0.40625 -0.234375 -0.71875q-0.1875 -0.3125 -0.65625 -0.3125q-0.453125 0 -0.65625 0.3125q-0.203125 0.3125 -0.234375 0.71875q-0.03125 0.390625 -0.03125 0.703125l0 6.703125q0 0.28125 0.046875 0.671875q0.0625 0.375 0.25 0.671875q0.203125 0.28125 0.625 0.28125z" fill-rule="nonzero"/><path fill="#000000" d="m79.99413 44.442158q-1.359375 0 -2.28125 -0.546875q-0.90625 -0.5625 -1.375 -1.53125q-0.46875 -0.96875 -0.46875 -2.25l0 -6.84375q0 -1.328125 0.4375 -2.328125q0.453125 -1.0 1.359375 -1.546875q0.921875 -0.5625 2.328125 -0.5625q1.421875 0 2.328125 0.5625q0.90625 0.546875 1.34375 1.546875q0.4375 1.0 0.4375 2.328125l0 6.84375q0 1.265625 -0.46875 2.25q-0.46875 0.96875 -1.390625 1.53125q-0.90625 0.546875 -2.25 0.546875zm0 -2.78125q0.453125 0 0.640625 -0.28125q0.203125 -0.296875 0.25 -0.671875q0.046875 -0.390625 0.046875 -0.671875l0 -6.703125q0 -0.3125 -0.046875 -0.703125q-0.03125 -0.40625 -0.234375 -0.71875q-0.1875 -0.3125 -0.65625 -0.3125q-0.453125 0 -0.65625 0.3125q-0.203125 0.3125 -0.234375 0.71875q-0.03125 0.390625 -0.03125 0.703125l0 6.703125q0 0.28125 0.046875 0.671875q0.0625 0.375 0.25 0.671875q0.203125 0.28125 0.625 0.28125z" fill-rule="nonzero"/><path fill="#000000" d="m110.85534 44.160908l0 -12.03125q-0.203125 0.109375 -0.46875 0.21875q-0.265625 0.109375 -0.5625 0.234375q-0.28125 0.125 -0.546875 0.234375q-0.265625 0.109375 -0.5 0.21875l0 -2.3125q0.203125 -0.109375 0.578125 -0.296875q0.375 -0.203125 0.796875 -0.4375q0.4375 -0.25 0.8125 -0.5q0.375 -0.25 0.5625 -0.4375l2.4375 0l0 15.109375l-3.109375 0z" fill-rule="nonzero"/><path fill="#000000" d="m142.85535 44.160908l0 -12.03125q-0.203125 0.109375 -0.46875 0.21875q-0.265625 0.109375 -0.5625 0.234375q-0.28125 0.125 -0.546875 0.234375q-0.265625 0.109375 -0.5 0.21875l0 -2.3125q0.203125 -0.109375 0.578125 -0.296875q0.375 -0.203125 0.796875 -0.4375q0.4375 -0.25 0.8125 -0.5q0.375 -0.25 0.5625 -0.4375l2.4375 0l0 15.109375l-3.109375 0z" fill-rule="nonzero"/><path fill="#000000" d="m175.99414 44.442158q-1.359375 0 -2.28125 -0.546875q-0.90625 -0.5625 -1.375 -1.53125q-0.46875 -0.96875 -0.46875 -2.25l0 -6.84375q0 -1.328125 0.4375 -2.328125q0.453125 -1.0 1.359375 -1.546875q0.921875 -0.5625 2.328125 -0.5625q1.421875 0 2.328125 0.5625q0.90625 0.546875 1.34375 1.546875q0.4375 1.0 0.4375 2.328125l0 6.84375q0 1.265625 -0.46875 2.25q-0.46875 0.96875 -1.390625 1.53125q-0.90625 0.546875 -2.25 0.546875zm0 -2.78125q0.453125 0 0.640625 -0.28125q0.203125 -0.296875 0.25 -0.671875q0.046875 -0.390625 0.046875 -0.671875l0 -6.703125q0 -0.3125 -0.046875 -0.703125q-0.03125 -0.40625 -0.234375 -0.71875q-0.1875 -0.3125 -0.65625 -0.3125q-0.453125 0 -0.65625 0.3125q-0.203125 0.3125 -0.234375 0.71875q-0.03125 0.390625 -0.03125 0.703125l0 6.703125q0 0.28125 0.046875 0.671875q0.0625 0.375 0.25 0.671875q0.203125 0.28125 0.625 0.28125z" fill-rule="nonzero"/><path fill="#000000" d="m207.99414 44.442158q-1.359375 0 -2.28125 -0.546875q-0.90625 -0.5625 -1.375 -1.53125q-0.46875 -0.96875 -0.46875 -2.25l0 -6.84375q0 -1.328125 0.4375 -2.328125q0.453125 -1.0 1.359375 -1.546875q0.921875 -0.5625 2.328125 -0.5625q1.421875 0 2.328125 0.5625q0.90625 0.546875 1.34375 1.546875q0.4375 1.0 0.4375 2.328125l0 6.84375q0 1.265625 -0.46875 2.25q-0.46875 0.96875 -1.390625 1.53125q-0.90625 0.546875 -2.25 0.546875zm0 -2.78125q0.453125 0 0.640625 -0.28125q0.203125 -0.296875 0.25 -0.671875q0.046875 -0.390625 0.046875 -0.671875l0 -6.703125q0 -0.3125 -0.046875 -0.703125q-0.03125 -0.40625 -0.234375 -0.71875q-0.1875 -0.3125 -0.65625 -0.3125q-0.453125 0 -0.65625 0.3125q-0.203125 0.3125 -0.234375 0.71875q-0.03125 0.390625 -0.03125 0.703125l0 6.703125q0 0.28125 0.046875 0.671875q0.0625 0.375 0.25 0.671875q0.203125 0.28125 0.625 0.28125z" fill-rule="nonzero"/><path fill="#000000" d="m239.99414 44.442158q-1.359375 0 -2.28125 -0.546875q-0.90625 -0.5625 -1.375 -1.53125q-0.46875 -0.96875 -0.46875 -2.25l0 -6.84375q0 -1.328125 0.4375 -2.328125q0.453125 -1.0 1.359375 -1.546875q0.921875 -0.5625 2.328125 -0.5625q1.421875 0 2.328125 0.5625q0.90625 0.546875 1.34375 1.546875q0.4375 1.0 0.4375 2.328125l0 6.84375q0 1.265625 -0.46875 2.25q-0.46875 0.96875 -1.390625 1.53125q-0.90625 0.546875 -2.25 0.546875zm0 -2.78125q0.453125 0 0.640625 -0.28125q0.203125 -0.296875 0.25 -0.671875q0.046875 -0.390625 0.046875 -0.671875l0 -6.703125q0 -0.3125 -0.046875 -0.703125q-0.03125 -0.40625 -0.234375 -0.71875q-0.1875 -0.3125 -0.65625 -0.3125q-0.453125 0 -0.65625 0.3125q-0.203125 0.3125 -0.234375 0.71875q-0.03125 0.390625 -0.03125 0.703125l0 6.703125q0 0.28125 0.046875 0.671875q0.0625 0.375 0.25 0.671875q0.203125 0.28125 0.625 0.28125z" fill-rule="nonzero"/><path fill="#000000" d="m270.85535 44.160908l0 -12.03125q-0.203125 0.109375 -0.46875 0.21875q-0.265625 0.109375 -0.5625 0.234375q-0.28125 0.125 -0.546875 0.234375q-0.265625 0.109375 -0.5 0.21875l0 -2.3125q0.203125 -0.109375 0.578125 -0.296875q0.375 -0.203125 0.796875 -0.4375q0.4375 -0.25 0.8125 -0.5q0.375 -0.25 0.5625 -0.4375l2.4375 0l0 15.109375l-3.109375 0z" fill-rule="nonzero"/></g></svg>