<?xml version="1.0" standalone="no"?>
<!DOCTYPE svg PUBLIC "-//W3C//DTD SVG 20010904//EN"
 "http://www.w3.org/TR/2001/REC-SVG-20010904/DTD/svg10.dtd">
<svg version="1.0" xmlns="http://www.w3.org/2000/svg"
 width="558.000000pt" height="95.000000pt" viewBox="0 0 558.000000 95.000000"
 preserveAspectRatio="xMidYMid meet">

<g transform="translate(0.000000,95.000000) scale(0.100000,-0.100000)"
fill="#000000" stroke="none">
<path d="M10 490 l0 -440 2770 0 2770 0 0 440 0 440 -2770 0 -2770 0 0 -440z
m640 209 c0 -156 -3 -200 -12 -197 -10 4 -14 53 -16 194 -2 191 0 220 18 209
6 -4 10 -83 10 -206z m610 6 c0 -130 -4 -205 -10 -205 -6 0 -10 75 -10 205 0
130 4 205 10 205 6 0 10 -75 10 -205z m610 0 c0 -130 -4 -205 -10 -205 -6 0
-10 75 -10 205 0 130 4 205 10 205 6 0 10 -75 10 -205z m620 -6 c0 -170 -2
-199 -15 -199 -13 0 -15 29 -15 198 0 109 3 202 6 205 19 19 24 -23 24 -204z
m610 6 c0 -130 -4 -205 -10 -205 -6 0 -10 75 -10 205 0 130 4 205 10 205 6 0
10 -75 10 -205z m610 0 c0 -130 -4 -205 -10 -205 -6 0 -10 75 -10 205 0 130 4
205 10 205 6 0 10 -75 10 -205z m620 -6 c0 -170 -2 -199 -15 -199 -13 0 -15
29 -15 198 0 109 3 202 6 205 19 19 24 -23 24 -204z m610 5 c0 -160 -3 -205
-12 -202 -10 4 -14 53 -16 194 -3 191 -1 214 18 214 6 0 10 -71 10 -206z
m-4535 46 c0 -43 -1 -45 -30 -45 -28 0 -30 3 -30 35 0 44 12 62 39 58 18 -3
21 -10 21 -48z m618 43 c7 -13 -31 -93 -44 -93 -7 0 -9 8 -5 20 3 11 9 29 12
40 5 14 2 20 -10 20 -9 0 -16 5 -16 10 0 12 57 14 63 3z m607 -3 c0 -5 -7 -10
-15 -10 -22 0 -18 -17 6 -23 15 -4 20 -12 17 -29 -2 -18 -9 -23 -33 -23 -27 0
-30 4 -33 33 -2 18 2 40 9 48 13 16 49 19 49 4z m620 0 c0 -5 -9 -10 -20 -10
-26 0 -26 -16 1 -23 30 -8 22 -51 -10 -55 -13 -2 -28 1 -34 7 -8 8 -5 11 11
11 12 0 22 5 22 10 0 6 -7 10 -15 10 -10 0 -15 10 -15 30 0 27 3 30 30 30 17
0 30 -4 30 -10z m612 -27 c3 -21 3 -44 0 -50 -5 -15 -32 -17 -32 -3 0 6 -9 10
-20 10 -24 0 -24 0 -3 45 23 48 49 47 55 -2z m611 -5 c3 -23 3 -46 1 -50 -7
-12 -64 -10 -64 2 0 6 9 10 20 10 11 0 20 5 20 10 0 6 -7 10 -15 10 -20 0 -19
10 3 26 16 12 15 13 -6 14 -13 0 -20 4 -17 10 3 6 17 10 29 10 20 0 24 -6 29
-42z m613 27 c4 -8 -1 -26 -10 -40 -14 -22 -15 -25 -1 -25 8 0 15 -4 15 -10 0
-5 -16 -10 -35 -10 -41 0 -42 3 -15 37 24 30 26 47 5 39 -9 -3 -15 0 -15 9 0
20 49 20 56 0z m604 -19 c0 -19 3 -41 6 -50 5 -13 -1 -16 -25 -16 -17 0 -31 5
-31 10 0 6 5 10 10 10 15 0 12 47 -2 53 -10 4 -9 8 2 16 27 20 40 12 40 -23z
m628 5 c2 -12 1 -34 -3 -48 -4 -19 -11 -24 -33 -21 -29 3 -39 29 -27 75 8 34
58 30 63 -6z m-5000 -25 c2 -18 -4 -40 -17 -57 l-22 -29 26 0 c16 0 25 -6 25
-15 0 -11 -12 -15 -50 -15 -42 0 -50 3 -50 18 0 10 11 29 25 42 14 13 25 32
25 43 0 15 -5 18 -25 13 -17 -4 -25 -2 -25 7 0 22 12 28 50 25 30 -3 35 -7 38
-32z m610 0 c2 -18 -4 -40 -17 -57 l-22 -29 26 0 c16 0 25 -6 25 -15 0 -11
-12 -15 -50 -15 -42 0 -50 3 -50 18 0 10 11 29 25 42 14 13 25 32 25 43 0 15
-5 18 -25 13 -17 -4 -25 -2 -25 7 0 22 12 28 50 25 30 -3 35 -7 38 -32z m610
22 c19 -19 14 -44 -14 -77 l-26 -31 26 0 c16 0 26 -6 26 -15 0 -11 -12 -15
-50 -15 -30 0 -50 4 -50 11 0 6 14 29 31 50 31 40 31 62 -1 57 -11 -2 -19 0
-20 5 0 4 0 12 0 17 0 14 64 12 78 -2z m620 -22 c2 -18 -4 -40 -17 -57 l-22
-29 26 0 c16 0 25 -6 25 -15 0 -11 -12 -15 -50 -15 -42 0 -50 3 -50 18 0 10
11 29 25 42 14 13 25 32 25 43 0 15 -5 18 -25 13 -17 -4 -25 -2 -25 7 0 22 12
28 50 25 30 -3 35 -7 38 -32z m610 0 c2 -18 -4 -40 -17 -57 l-22 -29 26 0 c16
0 25 -6 25 -15 0 -11 -12 -15 -50 -15 -42 0 -50 3 -50 18 0 10 11 29 25 42 14
13 25 32 25 43 0 15 -5 18 -25 13 -17 -4 -25 -2 -25 7 0 22 12 28 50 25 30 -3
35 -7 38 -32z m610 22 c19 -19 14 -44 -14 -77 l-26 -31 26 0 c16 0 26 -6 26
-15 0 -11 -12 -15 -50 -15 -30 0 -50 4 -50 11 0 6 14 29 31 50 31 40 31 62 -1
57 -11 -2 -19 0 -20 5 0 4 0 12 0 17 0 14 64 12 78 -2z m620 -22 c2 -18 -4
-40 -17 -57 l-22 -29 26 0 c16 0 25 -6 25 -15 0 -11 -12 -15 -50 -15 -42 0
-50 3 -50 18 0 10 11 29 25 42 14 13 25 32 25 43 0 15 -5 18 -25 13 -17 -4
-25 -2 -25 7 0 22 12 28 50 25 30 -3 35 -7 38 -32z m610 0 c2 -18 -4 -40 -17
-57 l-22 -29 26 0 c16 0 25 -6 25 -15 0 -11 -12 -15 -50 -15 -42 0 -50 3 -50
18 0 10 11 29 25 42 14 13 25 32 25 43 0 15 -5 18 -25 13 -17 -4 -25 -2 -25 7
0 22 12 28 50 25 30 -3 35 -7 38 -32z m610 22 c19 -19 14 -44 -14 -77 l-26
-31 26 0 c16 0 26 -6 26 -15 0 -11 -12 -15 -50 -15 -30 0 -50 4 -50 11 0 6 14
29 31 50 31 40 31 62 -1 57 -11 -2 -19 0 -20 5 0 4 0 12 0 17 0 14 64 12 78
-2z m-4598 -488 l0 -200 -295 0 -295 0 0 200 0 200 295 0 295 0 0 -200z m620
0 l0 -200 -295 0 -295 0 0 200 0 200 295 0 295 0 0 -200z m610 0 l0 -200 -295
0 -295 0 0 200 0 200 295 0 295 0 0 -200z m610 0 l0 -200 -295 0 -295 0 0 200
0 200 295 0 295 0 0 -200z m620 0 l0 -200 -295 0 -295 0 0 200 0 200 295 0
295 0 0 -200z m610 0 l0 -200 -295 0 -295 0 0 200 0 200 295 0 295 0 0 -200z
m610 0 l0 -200 -295 0 -295 0 0 200 0 200 295 0 295 0 0 -200z m610 0 l0 -200
-290 0 -290 0 0 200 0 200 290 0 290 0 0 -200z m620 0 l0 -200 -295 0 -295 0
0 200 0 200 295 0 295 0 0 -200z"/>
<path d="M370 730 c0 -5 5 -10 11 -10 5 0 7 5 4 10 -3 6 -8 10 -11 10 -2 0 -4
-4 -4 -10z"/>
<path d="M1595 730 c4 -6 11 -8 16 -5 14 9 11 15 -7 15 -8 0 -12 -5 -9 -10z"/>
<path d="M5274 766 c-8 -21 3 -49 16 -41 5 3 10 15 10 25 0 25 -18 36 -26 16z"/>
<path d="M298 346 c-22 -16 -23 -30 -3 -22 12 4 15 -4 15 -44 0 -38 -4 -50
-15 -50 -8 0 -15 -4 -15 -10 0 -5 18 -10 40 -10 22 0 40 5 40 10 0 6 -4 10
-10 10 -5 0 -10 28 -12 62 -3 65 -12 76 -40 54z"/>
<path d="M896 344 c-19 -19 -22 -104 -4 -122 20 -20 56 -14 74 13 19 29 14
102 -8 116 -20 13 -45 11 -62 -7z m55 -25 c6 -12 8 -36 4 -56 -5 -28 -10 -34
-28 -31 -16 2 -23 11 -25 32 -8 65 24 101 49 55z"/>
<path d="M1504 335 c-12 -18 -15 -38 -11 -67 6 -43 19 -58 53 -58 32 0 44 20
44 75 0 28 -5 56 -12 63 -20 20 -56 14 -74 -13z m61 -50 c0 -43 -3 -50 -19
-50 -26 0 -40 43 -26 79 7 18 16 26 28 24 13 -3 17 -14 17 -53z"/>
<path d="M2138 346 c-22 -16 -23 -30 -3 -22 12 4 15 -4 15 -44 0 -38 -4 -50
-15 -50 -8 0 -15 -4 -15 -10 0 -5 18 -10 40 -10 22 0 40 5 40 10 0 6 -4 10
-10 10 -5 0 -10 28 -12 62 -3 65 -12 76 -40 54z"/>
<path d="M2748 346 c-22 -16 -23 -30 -3 -22 12 4 15 -4 15 -44 0 -38 -4 -50
-15 -50 -8 0 -15 -4 -15 -10 0 -5 18 -10 40 -10 22 0 40 5 40 10 0 6 -4 10
-10 10 -5 0 -10 28 -12 62 -3 65 -12 76 -40 54z"/>
<path d="M3344 335 c-19 -29 -14 -102 8 -116 19 -12 52 -11 66 3 16 16 16 110
0 126 -20 20 -56 14 -74 -13z m61 -50 c0 -43 -3 -50 -19 -50 -26 0 -40 43 -26
79 7 18 16 26 28 24 13 -3 17 -14 17 -53z"/>
<path d="M3966 344 c-19 -19 -22 -104 -4 -122 20 -20 56 -14 74 13 19 29 14
102 -8 116 -20 13 -45 11 -62 -7z m55 -25 c6 -12 8 -36 4 -56 -5 -28 -10 -34
-28 -31 -16 2 -23 11 -25 32 -8 65 24 101 49 55z"/>
<path d="M4576 344 c-19 -19 -22 -104 -4 -122 20 -20 56 -14 74 13 19 29 14
102 -8 116 -20 13 -45 11 -62 -7z m55 -25 c6 -12 8 -36 4 -56 -5 -28 -10 -34
-28 -31 -16 2 -23 11 -25 32 -8 65 24 101 49 55z"/>
<path d="M5199 339 l-24 -20 23 6 c21 6 22 3 22 -44 0 -38 -4 -51 -14 -51 -8
0 -18 -4 -21 -10 -4 -6 12 -10 39 -10 25 0 46 5 46 10 0 6 -7 10 -15 10 -12 0
-15 14 -15 65 0 36 -4 65 -9 65 -5 0 -19 -9 -32 -21z"/>
</g>
</svg>
