<svg version="1.1" viewBox="0.0 0.0 288.0 49.92125984251968" fill="none" stroke="none" stroke-linecap="square" stroke-miterlimit="10" xmlns:xlink="http://www.w3.org/1999/xlink" xmlns="http://www.w3.org/2000/svg"><clipPath id="p.0"><path d="m0 0l288.0 0l0 49.92126l-288.0 0l0 -49.92126z" clip-rule="nonzero"/></clipPath><g clip-path="url(#p.0)"><path fill="#000000" fill-opacity="0.0" d="m0 0l288.0 0l0 49.92126l-288.0 0z" fill-rule="evenodd"/><path shape-rendering="crispEdges" fill="#000000" d="m-3.937008E-4 -3.648294E-5l32.0 0l0 24.96063l-32.0 0l0 -24.96063z" fill-rule="nonzero"/><path shape-rendering="crispEdges" fill="#000000" d="m31.999607 -3.648294E-5l32.0 0l0 24.96063l-32.0 0l0 -24.96063z" fill-rule="nonzero"/><path shape-rendering="crispEdges" fill="#000000" d="m63.999607 -3.648294E-5l31.999996 0l0 24.96063l-31.999996 0l0 -24.96063z" fill-rule="nonzero"/><path shape-rendering="crispEdges" fill="#000000" d="m95.9996 -3.648294E-5l32.0 0l0 24.96063l-32.0 0l0 -24.96063z" fill-rule="nonzero"/><path shape-rendering="crispEdges" fill="#000000" d="m127.9996 -3.648294E-5l32.0 0l0 24.96063l-32.0 0l0 -24.96063z" fill-rule="nonzero"/><path shape-rendering="crispEdges" fill="#000000" d="m159.9996 -3.648294E-5l32.0 0l0 24.96063l-32.0 0l0 -24.96063z" fill-rule="nonzero"/><path shape-rendering="crispEdges" fill="#000000" d="m191.9996 -3.648294E-5l32.0 0l0 24.96063l-32.0 0l0 -24.96063z" fill-rule="nonzero"/><path shape-rendering="crispEdges" fill="#000000" d="m223.9996 -3.648294E-5l32.0 0l0 24.96063l-32.0 0l0 -24.96063z" fill-rule="nonzero"/><path shape-rendering="crispEdges" fill="#000000" d="m255.9996 -3.648294E-5l32.0 0l0 24.96063l-32.0 0l0 -24.96063z" fill-rule="nonzero"/><path stroke="#000000" stroke-width="1.0" stroke-linecap="butt" d="m-3.937008E-4 -0.49872413l0 50.918636" fill-rule="nonzero"/><path stroke="#ffffff" stroke-width="1.0" stroke-linecap="butt" d="m31.999607 -0.49872413l0 24.96063" fill-rule="nonzero"/><path stroke="#000000" stroke-width="1.0" stroke-linecap="butt" d="m31.999607 24.461906l0 25.958004" fill-rule="nonzero"/><path stroke="#ffffff" stroke-width="1.0" stroke-linecap="butt" d="m63.999607 -0.49872413l0 24.96063" fill-rule="nonzero"/><path stroke="#000000" stroke-width="1.0" stroke-linecap="butt" d="m63.999607 24.461906l0 25.958004" fill-rule="nonzero"/><path stroke="#ffffff" stroke-width="1.0" stroke-linecap="butt" d="m95.9996 -0.49872413l0 24.96063" fill-rule="nonzero"/><path stroke="#000000" stroke-width="1.0" stroke-linecap="butt" d="m95.9996 24.461906l0 25.958004" fill-rule="nonzero"/><path stroke="#ffffff" stroke-width="1.0" stroke-linecap="butt" d="m127.9996 -0.49872413l0 24.96063" fill-rule="nonzero"/><path stroke="#000000" stroke-width="1.0" stroke-linecap="butt" d="m127.9996 24.461906l0 25.958004" fill-rule="nonzero"/><path stroke="#ffffff" stroke-width="1.0" stroke-linecap="butt" d="m159.9996 -0.49872413l0 24.96063" fill-rule="nonzero"/><path stroke="#000000" stroke-width="1.0" stroke-linecap="butt" d="m159.9996 24.461906l0 25.958004" fill-rule="nonzero"/><path stroke="#ffffff" stroke-width="1.0" stroke-linecap="butt" d="m191.9996 -0.49872413l0 24.96063" fill-rule="nonzero"/><path stroke="#000000" stroke-width="1.0" stroke-linecap="butt" d="m191.9996 24.461906l0 25.958004" fill-rule="nonzero"/><path stroke="#ffffff" stroke-width="1.0" stroke-linecap="butt" d="m223.9996 -0.49872413l0 24.96063" fill-rule="nonzero"/><path stroke="#000000" stroke-width="1.0" stroke-linecap="butt" d="m223.9996 24.461906l0 25.958004" fill-rule="nonzero"/><path stroke="#ffffff" stroke-width="1.0" stroke-linecap="butt" d="m255.9996 -0.49872413l0 24.96063" fill-rule="nonzero"/><path stroke="#000000" stroke-width="1.0" stroke-linecap="butt" d="m255.9996 24.461906l0 25.958004" fill-rule="nonzero"/><path stroke="#000000" stroke-width="1.0" stroke-linecap="butt" d="m287.9996 -0.49872413l0 50.918636" fill-rule="nonzero"/><path stroke="#000000" stroke-width="1.0" stroke-linecap="butt" d="m-0.49908137 -3.648294E-5l288.99738 0" fill-rule="nonzero"/><path stroke="#000000" stroke-width="1.0" stroke-linecap="butt" d="m-0.49908137 24.960594l288.99738 0" fill-rule="nonzero"/><path stroke="#000000" stroke-width="1.0" stroke-linecap="butt" d="m-0.49908137 49.921223l288.99738 0" fill-rule="nonzero"/><path fill="#ffffff" d="m9.203258 19.200277l0 -1.421875l3.84375 -5.984375q0.421875 -0.671875 0.78125 -1.25q0.375 -0.578125 0.609375 -1.21875q0.234375 -0.640625 0.234375 -1.4843755q0 -1.046875 -0.34375 -1.640625q-0.328125 -0.59375 -1.171875 -0.59375q-0.703125 0 -1.09375 0.390625q-0.390625 0.390625 -0.546875 1.03125q-0.15625 0.625 -0.15625 1.3437505l0 0.515625l-1.984375 0l0 -0.53125q0 -1.3593755 0.359375 -2.3281255q0.359375 -0.984375 1.171875 -1.515625q0.8125 -0.54687476 2.15625 -0.54687476q1.828125 0 2.71875 1.0312498q0.90625095 1.03125 0.90625095 2.859375q0 0.9687505 -0.234375 1.7031255q-0.234375 0.71875 -0.60937595 1.359375q-0.375 0.625 -0.828125 1.296875l-3.46875 5.3125l4.781251 0l0 1.671875l-7.125001 0z" fill-rule="nonzero"/><path fill="#ffffff" d="m20.464703 12.309652q-0.90625 0 -1.453125 -0.359375q-0.546875 -0.359375 -0.796875 -1.015625q-0.234375 -0.671875 -0.234375 -1.5625q0 -0.515625 0.078125 -0.890625q0.09375 -0.390625 0.25 -0.6875005q0.171875 -0.296875 0.40625 -0.515625q0.234375 -0.21875 0.5 -0.390625q-0.484375 -0.328125 -0.796875 -0.875q-0.3125 -0.546875 -0.3125 -1.375q0 -0.79687476 0.25 -1.3749998q0.25 -0.59375 0.765625 -0.90625q0.53125 -0.3125 1.34375 -0.3125q0.8125 0 1.328125 0.3125q0.515625 0.3125 0.765625 0.90625q0.25 0.578125 0.25 1.3749998q0 0.84375 -0.3125 1.390625q-0.296875 0.53125 -0.8125 0.859375q0.28125 0.171875 0.5 0.390625q0.234375 0.21875 0.390625 0.515625q0.171875 0.29687548 0.265625 0.6875005q0.09375 0.375 0.09375 0.890625q0 0.890625 -0.25 1.5625q-0.234375 0.65625 -0.78125 1.015625q-0.53125 0.359375 -1.4375 0.359375zm0 -1.046875q0.484375 0 0.734375 -0.25q0.265625 -0.25 0.359375 -0.671875q0.09375 -0.421875 0.09375 -0.953125q0 -0.46875 -0.109375 -0.875q-0.09375 -0.421875 -0.359375 -0.6875005q-0.265625 -0.28125 -0.71875 -0.28125q-0.453125 0 -0.734375 0.265625q-0.265625 0.26562548 -0.375 0.6875005q-0.109375 0.40625 -0.109375 0.890625q0 0.53125 0.09375 0.953125q0.109375 0.421875 0.375 0.671875q0.265625 0.25 0.75 0.25zm0 -4.9843755q0.421875 -0.015625 0.640625 -0.265625q0.21875 -0.25 0.296875 -0.640625q0.09375 -0.390625 0.09375 -0.8125q0 -0.62499976 -0.234375 -1.0468748q-0.21875 -0.4375 -0.796875 -0.4375q-0.578125 0 -0.828125 0.4375q-0.234375 0.421875 -0.234375 1.0468748q0 0.421875 0.078125 0.8125q0.09375 0.390625 0.328125 0.640625q0.234375 0.25 0.65625 0.265625z" fill-rule="nonzero"/><path fill="#ffffff" d="m41.90597 19.200277l0 -1.421875l3.84375 -5.984375q0.421875 -0.671875 0.78125 -1.25q0.375 -0.578125 0.609375 -1.21875q0.234375 -0.640625 0.234375 -1.4843755q0 -1.046875 -0.34375 -1.640625q-0.328125 -0.59375 -1.171875 -0.59375q-0.703125 0 -1.09375 0.390625q-0.390625 0.390625 -0.546875 1.03125q-0.15625 0.625 -0.15625 1.3437505l0 0.515625l-1.984375 0l0 -0.53125q0 -1.3593755 0.359375 -2.3281255q0.359375 -0.984375 1.171875 -1.515625q0.8125 -0.54687476 2.15625 -0.54687476q1.828125 0 2.71875 1.0312498q0.90625 1.03125 0.90625 2.859375q0 0.9687505 -0.234375 1.7031255q-0.234375 0.71875 -0.609375 1.359375q-0.375 0.625 -0.828125 1.296875l-3.46875 5.3125l4.78125 0l0 1.671875l-7.125 0z" fill-rule="nonzero"/><path fill="#ffffff" d="m51.21429 12.200277l1.8125 -9.03125l-2.6875 0l0 -1.046875l4.015625 0l0 0.65625l-1.859375 9.421875l-1.28125 0z" fill-rule="nonzero"/><path fill="#ffffff" d="m73.17838 19.200277l0 -1.421875l3.84375 -5.984375q0.421875 -0.671875 0.78125 -1.25q0.375 -0.578125 0.609375 -1.21875q0.234375 -0.640625 0.234375 -1.4843755q0 -1.046875 -0.34375 -1.640625q-0.328125 -0.59375 -1.171875 -0.59375q-0.703125 0 -1.09375 0.390625q-0.390625 0.390625 -0.546875 1.03125q-0.15625 0.625 -0.15625 1.3437505l0 0.515625l-1.984375 0l0 -0.53125q0 -1.3593755 0.359375 -2.3281255q0.359375 -0.984375 1.171875 -1.515625q0.8125 -0.54687476 2.15625 -0.54687476q1.828125 0 2.71875 1.0312498q0.90625 1.03125 0.90625 2.859375q0 0.9687505 -0.234375 1.7031255q-0.234375 0.71875 -0.609375 1.359375q-0.375 0.625 -0.828125 1.296875l-3.46875 5.3125l4.78125 0l0 1.671875l-7.125 0z" fill-rule="nonzero"/><path fill="#ffffff" d="m84.53358 12.309652q-0.875 0 -1.421875 -0.4375q-0.546875 -0.4375 -0.8125 -1.1875q-0.25 -0.765625 -0.25 -1.6875l0 -3.3906255q0 -0.984375 0.21875 -1.7812498q0.234375 -0.8125 0.765625 -1.296875q0.546875 -0.484375 1.5 -0.484375q0.78125 0 1.3125 0.28125q0.546875 0.28125 0.828125 0.828125q0.296875 0.546875 0.3125 1.3281248q0 0.03125 0 0.078125q0.015625 0.046875 0.015625 0.078125l-1.34375 0q0 -0.73437476 -0.234375 -1.1093748q-0.234375 -0.390625 -0.890625 -0.390625q-0.375 0 -0.640625 0.234375q-0.25 0.21875 -0.390625 0.70312476q-0.125 0.46875 -0.125 1.203125l0 1.53125q0.203125 -0.3125 0.5625 -0.5q0.375 -0.1875 0.90625 -0.1875q0.84375 0 1.3125 0.359375q0.46875 0.359375 0.671875 1.015625q0.203125 0.6562505 0.203125 1.5312505q0 0.90625 -0.25 1.65625q-0.25 0.75 -0.796875 1.1875q-0.546875 0.4375 -1.453125 0.4375zm0 -1.109375q0.4375 0 0.6875 -0.25q0.25 -0.25 0.359375 -0.671875q0.109375 -0.421875 0.109375 -0.921875q0 -0.59375 -0.0625 -1.109375q-0.0625 -0.5156255 -0.296875 -0.8125005q-0.234375 -0.3125 -0.796875 -0.3125q-0.28125 0 -0.515625 0.109375q-0.21875 0.09375 -0.375 0.25q-0.15625 0.15625 -0.265625 0.328125l0 1.5000005q0 0.515625 0.109375 0.953125q0.109375 0.4375 0.359375 0.6875q0.25 0.25 0.6875 0.25z" fill-rule="nonzero"/><path fill="#ffffff" d="m105.34628 19.200277l0 -1.421875l3.84375 -5.984375q0.421875 -0.671875 0.78125 -1.25q0.375 -0.578125 0.609375 -1.21875q0.234375 -0.640625 0.234375 -1.4843755q0 -1.046875 -0.34375 -1.640625q-0.328125 -0.59375 -1.171875 -0.59375q-0.703125 0 -1.09375 0.390625q-0.390625 0.390625 -0.546875 1.03125q-0.15625 0.625 -0.15625 1.3437505l0 0.515625l-1.984375 0l0 -0.53125q0 -1.3593755 0.359375 -2.3281255q0.359375 -0.984375 1.171875 -1.515625q0.8125 -0.54687476 2.15625 -0.54687476q1.828125 0 2.71875 1.0312498q0.90625 1.03125 0.90625 2.859375q0 0.9687505 -0.234375 1.7031255q-0.234375 0.71875 -0.609375 1.359375q-0.375 0.625 -0.828125 1.296875l-3.46875 5.3125l4.78125 0l0 1.671875l-7.125 0z" fill-rule="nonzero"/><path fill="#ffffff" d="m116.51398 12.294027q-0.90625 0 -1.4375 -0.34375q-0.53125 -0.34375 -0.765625 -1.0q-0.234375 -0.671875 -0.234375 -1.578125l1.34375 0q0 0.453125 0.0625 0.890625q0.078125 0.421875 0.3125 0.703125q0.25 0.28125 0.75 0.28125q0.546875 0 0.78125 -0.3125q0.234375 -0.328125 0.296875 -0.859375q0.0625 -0.546875 0.0625 -1.234375q0 -0.6875 -0.078125 -1.1562505q-0.0625 -0.484375 -0.3125 -0.734375q-0.234375 -0.265625 -0.734375 -0.265625q-0.40625 0 -0.703125 0.265625q-0.28125 0.25 -0.421875 0.578125l-1.125 0l0 -5.40625l4.34375 0l0 1.328125l-3.140625 0l-0.09375 2.7968748q0.25 -0.265625 0.609375 -0.40625q0.375 -0.15625 0.859375 -0.15625q0.8125 0 1.28125 0.390625q0.46875 0.375 0.65625 1.046875q0.1875 0.671875 0.1875 1.5468755q0 0.765625 -0.109375 1.4375q-0.109375 0.65625 -0.390625 1.15625q-0.28125 0.484375 -0.765625 0.765625q-0.484375 0.265625 -1.234375 0.265625z" fill-rule="nonzero"/><path fill="#ffffff" d="m137.30275 19.200277l0 -1.421875l3.84375 -5.984375q0.421875 -0.671875 0.78125 -1.25q0.375 -0.578125 0.609375 -1.21875q0.234375 -0.640625 0.234375 -1.4843755q0 -1.046875 -0.34375 -1.640625q-0.328125 -0.59375 -1.171875 -0.59375q-0.703125 0 -1.09375 0.390625q-0.390625 0.390625 -0.546875 1.03125q-0.15625 0.625 -0.15625 1.3437505l0 0.515625l-1.984375 0l0 -0.53125q0 -1.3593755 0.359375 -2.3281255q0.359375 -0.984375 1.171875 -1.515625q0.8125 -0.54687476 2.15625 -0.54687476q1.828125 0 2.71875 1.0312498q0.90625 1.03125 0.90625 2.859375q0 0.9687505 -0.234375 1.7031255q-0.234375 0.71875 -0.609375 1.359375q-0.375 0.625 -0.828125 1.296875l-3.46875 5.3125l4.78125 0l0 1.671875l-7.125 0z" fill-rule="nonzero"/><path fill="#ffffff" d="m148.8767 12.200277l0 -2.703125l-2.921875 0l0 -1.390625l2.625 -5.984375l1.5625 0l0 6.203125l1.140625 0l0 1.171875l-1.140625 0l0 2.703125l-1.265625 0zm-1.640625 -3.875l1.640625 0l0 -4.578125l-1.640625 4.578125z" fill-rule="nonzero"/><path fill="#ffffff" d="m169.34007 19.200277l0 -1.421875l3.84375 -5.984375q0.421875 -0.671875 0.78125 -1.25q0.375 -0.578125 0.609375 -1.21875q0.234375 -0.640625 0.234375 -1.4843755q0 -1.046875 -0.34375 -1.640625q-0.328125 -0.59375 -1.171875 -0.59375q-0.703125 0 -1.09375 0.390625q-0.390625 0.390625 -0.546875 1.03125q-0.15625 0.625 -0.15625 1.3437505l0 0.515625l-1.984375 0l0 -0.53125q0 -1.3593755 0.359375 -2.3281255q0.359375 -0.984375 1.171875 -1.515625q0.8125 -0.54687476 2.15625 -0.54687476q1.828125 0 2.71875 1.0312498q0.90625 1.03125 0.90625 2.859375q0 0.9687505 -0.234375 1.7031255q-0.234375 0.71875 -0.609375 1.359375q-0.375 0.625 -0.828125 1.296875l-3.46875 5.3125l4.78125 0l0 1.671875l-7.125 0z" fill-rule="nonzero"/><path fill="#ffffff" d="m180.44527 12.309652q-0.8125 0 -1.359375 -0.3125q-0.546875 -0.3125 -0.828125 -0.890625q-0.265625 -0.578125 -0.265625 -1.375l0 -0.34375l1.3125 0q0 0.046875 0 0.109375q0 0.046875 0 0.109375q0.015625 0.453125 0.109375 0.8125q0.09375 0.359375 0.328125 0.578125q0.25 0.203125 0.703125 0.203125q0.484375 0 0.734375 -0.21875q0.25 -0.234375 0.328125 -0.65625q0.09375 -0.421875 0.09375 -0.96875q0 -0.796875 -0.296875 -1.296875q-0.28125 -0.5156255 -1.015625 -0.5625005q-0.03125 -0.015625 -0.09375 -0.015625q-0.046875 0 -0.09375 0l0 -1.328125q0.046875 0 0.09375 0q0.046875 0 0.078125 0q0.71875 -0.015625 1.015625 -0.359375q0.3125 -0.359375 0.3125 -1.171875q0 -0.68749976 -0.234375 -1.0937498q-0.21875 -0.40625 -0.90625 -0.40625q-0.6875 0 -0.90625 0.453125q-0.21875 0.45312476 -0.25 1.1562498q0 0.0625 0 0.125q0 0.046875 0 0.09375l-1.3125 0l0 -0.34375q0 -0.79687476 0.265625 -1.3749998q0.28125 -0.578125 0.828125 -0.875q0.5625 -0.3125 1.375 -0.3125q0.84375 0 1.390625 0.3125q0.546875 0.296875 0.8125 0.875q0.28125 0.578125 0.28125 1.3906248q0 0.90625 -0.390625 1.453125q-0.390625 0.546875 -1.0625 0.75q0.46875 0.140625 0.78125 0.484375q0.3125 0.328125 0.484375 0.8437505q0.1875 0.515625 0.1875 1.203125q0 0.890625 -0.25 1.5625q-0.25 0.65625 -0.796875 1.03125q-0.546875 0.359375 -1.453125 0.359375z" fill-rule="nonzero"/><path fill="#ffffff" d="m201.33385 19.200277l0 -1.421875l3.84375 -5.984375q0.421875 -0.671875 0.78125 -1.25q0.375 -0.578125 0.609375 -1.21875q0.234375 -0.640625 0.234375 -1.4843755q0 -1.046875 -0.34375 -1.640625q-0.328125 -0.59375 -1.171875 -0.59375q-0.703125 0 -1.09375 0.390625q-0.390625 0.390625 -0.546875 1.03125q-0.15625 0.625 -0.15625 1.3437505l0 0.515625l-1.984375 0l0 -0.53125q0 -1.3593755 0.359375 -2.3281255q0.359375 -0.984375 1.171875 -1.515625q0.8125 -0.54687476 2.15625 -0.54687476q1.828125 0 2.71875 1.0312498q0.90625 1.03125 0.90625 2.859375q0 0.9687505 -0.234375 1.7031255q-0.234375 0.71875 -0.609375 1.359375q-0.375 0.625 -0.828125 1.296875l-3.46875 5.3125l4.78125 0l0 1.671875l-7.125 0z" fill-rule="nonzero"/><path fill="#ffffff" d="m210.00154 12.200277l0 -0.9375l2.5625 -4.0000005q0.28125 -0.453125 0.515625 -0.828125q0.25 -0.390625 0.40625 -0.8125q0.15625 -0.4375 0.15625 -1.0q0 -0.68749976 -0.234375 -1.0781248q-0.21875 -0.40625 -0.78125 -0.40625q-0.46875 0 -0.734375 0.265625q-0.25 0.25 -0.359375 0.67187476q-0.09375 0.421875 -0.09375 0.90625l0 0.34375l-1.328125 0l0 -0.34375q0 -0.921875 0.234375 -1.5624998q0.25 -0.65625 0.78125 -1.015625q0.546875 -0.359375 1.4375 -0.359375q1.21875 0 1.8125 0.6875q0.609375 0.6875 0.609375 1.9062498q0 0.640625 -0.15625 1.140625q-0.15625 0.484375 -0.40625 0.90625q-0.25 0.421875 -0.546875 0.859375l-2.3125 3.5312505l3.1875 0l0 1.125l-4.75 0z" fill-rule="nonzero"/><path fill="#ffffff" d="m233.84378 19.200277l0 -1.421875l3.84375 -5.984375q0.421875 -0.671875 0.78125 -1.25q0.375 -0.578125 0.609375 -1.21875q0.234375 -0.640625 0.234375 -1.4843755q0 -1.046875 -0.34375 -1.640625q-0.328125 -0.59375 -1.171875 -0.59375q-0.703125 0 -1.09375 0.390625q-0.390625 0.390625 -0.546875 1.03125q-0.15625 0.625 -0.15625 1.3437505l0 0.515625l-1.984375 0l0 -0.53125q0 -1.3593755 0.359375 -2.3281255q0.359375 -0.984375 1.171875 -1.515625q0.8125 -0.54687476 2.15625 -0.54687476q1.828125 0 2.71875 1.0312498q0.90625 1.03125 0.90625 2.859375q0 0.9687505 -0.234375 1.7031255q-0.234375 0.71875 -0.609375 1.359375q-0.375 0.625 -0.828125 1.296875l-3.46875 5.3125l4.78125 0l0 1.671875l-7.125 0z" fill-rule="nonzero"/><path fill="#ffffff" d="m244.12085 12.200277l0 -8.328125q-0.015625 0 -0.28125 0.0625q-0.265625 0.0625 -0.609375 0.12499976q-0.328125 0.0625 -0.59375 0.125q-0.25 0.046875 -0.265625 0.046875l0 -1.0156248q0.203125 -0.046875 0.484375 -0.125q0.28125 -0.09375 0.578125 -0.21875q0.296875 -0.125 0.5625 -0.3125q0.265625 -0.1875 0.453125 -0.4375l1.0 0l0 10.078125l-1.328125 0z" fill-rule="nonzero"/><path fill="#ffffff" d="m265.0913 19.200277l0 -1.421875l3.84375 -5.984375q0.421875 -0.671875 0.78125 -1.25q0.375 -0.578125 0.609375 -1.21875q0.234375 -0.640625 0.234375 -1.4843755q0 -1.046875 -0.34375 -1.640625q-0.328125 -0.59375 -1.171875 -0.59375q-0.703125 0 -1.09375 0.390625q-0.390625 0.390625 -0.546875 1.03125q-0.15625 0.625 -0.15625 1.3437505l0 0.515625l-1.984375 0l0 -0.53125q0 -1.3593755 0.359375 -2.3281255q0.359375 -0.984375 1.171875 -1.515625q0.8125 -0.54687476 2.15625 -0.54687476q1.828125 0 2.71875 1.0312498q0.90625 1.03125 0.90625 2.859375q0 0.9687505 -0.234375 1.7031255q-0.234375 0.71875 -0.609375 1.359375q-0.375 0.625 -0.828125 1.296875l-3.46875 5.3125l4.78125 0l0 1.671875l-7.125 0z" fill-rule="nonzero"/><path fill="#ffffff" d="m276.46213 12.309652q-0.859375 0 -1.421875 -0.375q-0.546875 -0.390625 -0.8125 -1.0625q-0.265625 -0.671875 -0.265625 -1.53125l0 -4.3437505q0 -0.875 0.265625 -1.5468748q0.265625 -0.671875 0.8125 -1.03125q0.546875 -0.375 1.421875 -0.375q0.875 0 1.421875 0.375q0.546875 0.359375 0.796875 1.03125q0.265625 0.67187476 0.265625 1.5468748l0 4.3437505q0 0.875 -0.265625 1.546875q-0.265625 0.671875 -0.8125 1.046875q-0.546875 0.375 -1.40625 0.375zm0 -1.09375q0.46875 0 0.703125 -0.265625q0.25 -0.28125 0.34375 -0.703125q0.09375 -0.4375 0.09375 -0.890625l0 -4.3750005q0 -0.484375 -0.09375 -0.90625q-0.078125 -0.43749976 -0.328125 -0.68749976q-0.234375 -0.265625 -0.71875 -0.265625q-0.484375 0 -0.734375 0.265625q-0.25 0.25 -0.34375 0.68749976q-0.078125 0.421875 -0.078125 0.90625l0 4.3750005q0 0.453125 0.09375 0.890625q0.09375 0.421875 0.34375 0.703125q0.265625 0.265625 0.71875 0.265625z" fill-rule="nonzero"/><path fill="#000000" d="m15.493167 44.160908l0 -12.5q-0.015625 0.015625 -0.421875 0.109375q-0.390625 0.09375 -0.90625 0.1875q-0.5 0.09375 -0.890625 0.171875q-0.390625 0.078125 -0.40625 0.078125l0 -1.515625q0.3125 -0.078125 0.734375 -0.203125q0.421875 -0.140625 0.859375 -0.3125q0.4375 -0.1875 0.828125 -0.46875q0.40625 -0.28125 0.6875 -0.65625l1.515626 0l0 15.109375l-2.000001 0z" fill-rule="nonzero"/><path fill="#000000" d="m48.005093 44.332783q-1.28125 0 -2.109375 -0.578125q-0.828125 -0.578125 -1.234375 -1.578125q-0.40625 -1.015625 -0.40625 -2.3125l0 -6.5q0 -1.328125 0.390625 -2.328125q0.390625 -1.0 1.21875 -1.546875q0.84375 -0.5625 2.140625 -0.5625q1.3125 0 2.125 0.5625q0.828125 0.546875 1.21875 1.546875q0.390625 1.0 0.390625 2.328125l0 6.5q0 1.3125 -0.40625 2.328125q-0.390625 1.0 -1.21875 1.578125q-0.8125 0.5625 -2.109375 0.5625zm0 -1.640625q0.71875 0 1.078125 -0.40625q0.359375 -0.421875 0.5 -1.0625q0.140625 -0.640625 0.140625 -1.328125l0 -6.5625q0 -0.71875 -0.140625 -1.359375q-0.125 -0.640625 -0.484375 -1.03125q-0.359375 -0.40625 -1.09375 -0.40625q-0.71875 0 -1.09375 0.40625q-0.375 0.390625 -0.515625 1.03125q-0.125 0.640625 -0.125 1.359375l0 6.5625q0 0.6875 0.140625 1.328125q0.140625 0.640625 0.515625 1.0625q0.390625 0.40625 1.078125 0.40625z" fill-rule="nonzero"/><path fill="#000000" d="m80.00509 44.332783q-1.28125 0 -2.109375 -0.578125q-0.828125 -0.578125 -1.234375 -1.578125q-0.40625 -1.015625 -0.40625 -2.3125l0 -6.5q0 -1.328125 0.390625 -2.328125q0.390625 -1.0 1.21875 -1.546875q0.84375 -0.5625 2.140625 -0.5625q1.3125 0 2.125 0.5625q0.828125 0.546875 1.21875 1.546875q0.390625 1.0 0.390625 2.328125l0 6.5q0 1.3125 -0.40625 2.328125q-0.390625 1.0 -1.21875 1.578125q-0.8125 0.5625 -2.109375 0.5625zm0 -1.640625q0.71875 0 1.078125 -0.40625q0.359375 -0.421875 0.5 -1.0625q0.140625 -0.640625 0.140625 -1.328125l0 -6.5625q0 -0.71875 -0.140625 -1.359375q-0.125 -0.640625 -0.484375 -1.03125q-0.359375 -0.40625 -1.09375 -0.40625q-0.71875 0 -1.09375 0.40625q-0.375 0.390625 -0.515625 1.03125q-0.125 0.640625 -0.125 1.359375l0 6.5625q0 0.6875 0.140625 1.328125q0.140625 0.640625 0.515625 1.0625q0.390625 0.40625 1.078125 0.40625z" fill-rule="nonzero"/><path fill="#000000" d="m111.493164 44.160908l0 -12.5q-0.015625 0.015625 -0.421875 0.109375q-0.390625 0.09375 -0.90625 0.1875q-0.5 0.09375 -0.890625 0.171875q-0.390625 0.078125 -0.40625 0.078125l0 -1.515625q0.3125 -0.078125 0.734375 -0.203125q0.421875 -0.140625 0.859375 -0.3125q0.4375 -0.1875 0.828125 -0.46875q0.40625 -0.28125 0.6875 -0.65625l1.515625 0l0 15.109375l-2.0 0z" fill-rule="nonzero"/><path fill="#000000" d="m143.49316 44.160908l0 -12.5q-0.015625 0.015625 -0.421875 0.109375q-0.390625 0.09375 -0.90625 0.1875q-0.5 0.09375 -0.890625 0.171875q-0.390625 0.078125 -0.40625 0.078125l0 -1.515625q0.3125 -0.078125 0.734375 -0.203125q0.421875 -0.140625 0.859375 -0.3125q0.4375 -0.1875 0.828125 -0.46875q0.40625 -0.28125 0.6875 -0.65625l1.515625 0l0 15.109375l-2.0 0z" fill-rule="nonzero"/><path fill="#000000" d="m176.0051 44.332783q-1.28125 0 -2.109375 -0.578125q-0.828125 -0.578125 -1.234375 -1.578125q-0.40625 -1.015625 -0.40625 -2.3125l0 -6.5q0 -1.328125 0.390625 -2.328125q0.390625 -1.0 1.21875 -1.546875q0.84375 -0.5625 2.140625 -0.5625q1.3125 0 2.125 0.5625q0.828125 0.546875 1.21875 1.546875q0.390625 1.0 0.390625 2.328125l0 6.5q0 1.3125 -0.40625 2.328125q-0.390625 1.0 -1.21875 1.578125q-0.8125 0.5625 -2.109375 0.5625zm0 -1.640625q0.71875 0 1.078125 -0.40625q0.359375 -0.421875 0.5 -1.0625q0.140625 -0.640625 0.140625 -1.328125l0 -6.5625q0 -0.71875 -0.140625 -1.359375q-0.125 -0.640625 -0.484375 -1.03125q-0.359375 -0.40625 -1.09375 -0.40625q-0.71875 0 -1.09375 0.40625q-0.375 0.390625 -0.515625 1.03125q-0.125 0.640625 -0.125 1.359375l0 6.5625q0 0.6875 0.140625 1.328125q0.140625 0.640625 0.515625 1.0625q0.390625 0.40625 1.078125 0.40625z" fill-rule="nonzero"/><path fill="#000000" d="m208.0051 44.332783q-1.28125 0 -2.109375 -0.578125q-0.828125 -0.578125 -1.234375 -1.578125q-0.40625 -1.015625 -0.40625 -2.3125l0 -6.5q0 -1.328125 0.390625 -2.328125q0.390625 -1.0 1.21875 -1.546875q0.84375 -0.5625 2.140625 -0.5625q1.3125 0 2.125 0.5625q0.828125 0.546875 1.21875 1.546875q0.390625 1.0 0.390625 2.328125l0 6.5q0 1.3125 -0.40625 2.328125q-0.390625 1.0 -1.21875 1.578125q-0.8125 0.5625 -2.109375 0.5625zm0 -1.640625q0.71875 0 1.078125 -0.40625q0.359375 -0.421875 0.5 -1.0625q0.140625 -0.640625 0.140625 -1.328125l0 -6.5625q0 -0.71875 -0.140625 -1.359375q-0.125 -0.640625 -0.484375 -1.03125q-0.359375 -0.40625 -1.09375 -0.40625q-0.71875 0 -1.09375 0.40625q-0.375 0.390625 -0.515625 1.03125q-0.125 0.640625 -0.125 1.359375l0 6.5625q0 0.6875 0.140625 1.328125q0.140625 0.640625 0.515625 1.0625q0.390625 0.40625 1.078125 0.40625z" fill-rule="nonzero"/><path fill="#000000" d="m240.0051 44.332783q-1.28125 0 -2.109375 -0.578125q-0.828125 -0.578125 -1.234375 -1.578125q-0.40625 -1.015625 -0.40625 -2.3125l0 -6.5q0 -1.328125 0.390625 -2.328125q0.390625 -1.0 1.21875 -1.546875q0.84375 -0.5625 2.140625 -0.5625q1.3125 0 2.125 0.5625q0.828125 0.546875 1.21875 1.546875q0.390625 1.0 0.390625 2.328125l0 6.5q0 1.3125 -0.40625 2.328125q-0.390625 1.0 -1.21875 1.578125q-0.8125 0.5625 -2.109375 0.5625zm0 -1.640625q0.71875 0 1.078125 -0.40625q0.359375 -0.421875 0.5 -1.0625q0.140625 -0.640625 0.140625 -1.328125l0 -6.5625q0 -0.71875 -0.140625 -1.359375q-0.125 -0.640625 -0.484375 -1.03125q-0.359375 -0.40625 -1.09375 -0.40625q-0.71875 0 -1.09375 0.40625q-0.375 0.390625 -0.515625 1.03125q-0.125 0.640625 -0.125 1.359375l0 6.5625q0 0.6875 0.140625 1.328125q0.140625 0.640625 0.515625 1.0625q0.390625 0.40625 1.078125 0.40625z" fill-rule="nonzero"/><path fill="#000000" d="m271.49316 44.160908l0 -12.5q-0.015625 0.015625 -0.421875 0.109375q-0.390625 0.09375 -0.90625 0.1875q-0.5 0.09375 -0.890625 0.171875q-0.390625 0.078125 -0.40625 0.078125l0 -1.515625q0.3125 -0.078125 0.734375 -0.203125q0.421875 -0.140625 0.859375 -0.3125q0.4375 -0.1875 0.828125 -0.46875q0.40625 -0.28125 0.6875 -0.65625l1.515625 0l0 15.109375l-2.0 0z" fill-rule="nonzero"/></g></svg>