<svg version="1.1" viewBox="0.0 0.0 288.0 99.83989501312335" fill="none" stroke="none" stroke-linecap="square" stroke-miterlimit="10" xmlns:xlink="http://www.w3.org/1999/xlink" xmlns="http://www.w3.org/2000/svg"><clipPath id="p.0"><path d="m0 0l288.0 0l0 99.8399l-288.0 0l0 -99.8399z" clip-rule="nonzero"/></clipPath><g clip-path="url(#p.0)"><path fill="#000000" fill-opacity="0.0" d="m0 0l288.0 0l0 99.8399l-288.0 0z" fill-rule="evenodd"/><path shape-rendering="crispEdges" fill="#000000" d="m-0.20643045 -7.296588E-5l27.496063 0l0 21.590551l-27.496063 0l0 -21.590551z" fill-rule="nonzero"/><path shape-rendering="crispEdges" fill="#000000" d="m27.289633 -7.296588E-5l231.76903 0l0 21.590551l-231.76903 0l0 -21.590551z" fill-rule="nonzero"/><path shape-rendering="crispEdges" fill="#000000" d="m259.05865 -7.296588E-5l29.147003 0l0 21.590551l-29.147003 0l0 -21.590551z" fill-rule="nonzero"/><path shape-rendering="crispEdges" fill="#cccccc" d="m-0.20643045 21.590479l27.496063 0l0 16.06824l-27.496063 0l0 -16.06824z" fill-rule="nonzero"/><path shape-rendering="crispEdges" fill="#cccccc" d="m27.289633 21.590479l30.7979 0l0 16.06824l-30.7979 0l0 -16.06824z" fill-rule="nonzero"/><path shape-rendering="crispEdges" fill="#cccccc" d="m58.087532 21.590479l40.19423 0l0 16.06824l-40.19423 0l0 -16.06824z" fill-rule="nonzero"/><path shape-rendering="crispEdges" fill="#cccccc" d="m98.28176 21.590479l40.19422 0l0 16.06824l-40.19422 0l0 -16.06824z" fill-rule="nonzero"/><path shape-rendering="crispEdges" fill="#cccccc" d="m138.47598 21.590479l40.19423 0l0 16.06824l-40.19423 0l0 -16.06824z" fill-rule="nonzero"/><path shape-rendering="crispEdges" fill="#cccccc" d="m178.67021 21.590479l40.19423 0l0 16.06824l-40.19423 0l0 -16.06824z" fill-rule="nonzero"/><path shape-rendering="crispEdges" fill="#cccccc" d="m218.86444 21.590479l40.194214 0l0 16.06824l-40.194214 0l0 -16.06824z" fill-rule="nonzero"/><path shape-rendering="crispEdges" fill="#cccccc" d="m259.05865 21.590479l29.147003 0l0 16.06824l-29.147003 0l0 -16.06824z" fill-rule="nonzero"/><path shape-rendering="crispEdges" fill="#cccccc" d="m-0.20643045 37.65872l27.496063 0l0 28.50394l-27.496063 0l0 -28.50394z" fill-rule="nonzero"/><path shape-rendering="crispEdges" fill="#cccccc" d="m27.289633 37.65872l30.7979 0l0 28.50394l-30.7979 0l0 -28.50394z" fill-rule="nonzero"/><path shape-rendering="crispEdges" fill="#cccccc" d="m58.087532 37.65872l40.19423 0l0 28.50394l-40.19423 0l0 -28.50394z" fill-rule="nonzero"/><path shape-rendering="crispEdges" fill="#cccccc" d="m98.28176 37.65872l40.19422 0l0 28.50394l-40.19422 0l0 -28.50394z" fill-rule="nonzero"/><path shape-rendering="crispEdges" fill="#cccccc" d="m138.47598 37.65872l40.19423 0l0 28.50394l-40.19423 0l0 -28.50394z" fill-rule="nonzero"/><path shape-rendering="crispEdges" fill="#cccccc" d="m178.67021 37.65872l40.19423 0l0 28.50394l-40.19423 0l0 -28.50394z" fill-rule="nonzero"/><path shape-rendering="crispEdges" fill="#cccccc" d="m218.86444 37.65872l40.194214 0l0 28.50394l-40.194214 0l0 -28.50394z" fill-rule="nonzero"/><path shape-rendering="crispEdges" fill="#cccccc" d="m259.05865 37.65872l29.147003 0l0 28.50394l-29.147003 0l0 -28.50394z" fill-rule="nonzero"/><path shape-rendering="crispEdges" fill="#ffe599" d="m-0.20643045 66.16266l27.496063 0l0 26.958l-27.496063 0l0 -26.958z" fill-rule="nonzero"/><path shape-rendering="crispEdges" fill="#ffe599" d="m27.289633 66.16266l30.7979 0l0 26.958l-30.7979 0l0 -26.958z" fill-rule="nonzero"/><path shape-rendering="crispEdges" fill="#ffe599" d="m138.47598 66.16266l40.19423 0l0 26.958l-40.19423 0l0 -26.958z" fill-rule="nonzero"/><path shape-rendering="crispEdges" fill="#ffe599" d="m178.67021 66.16266l40.19423 0l0 26.958l-40.19423 0l0 -26.958z" fill-rule="nonzero"/><path shape-rendering="crispEdges" fill="#ffe599" d="m218.86444 66.16266l40.194214 0l0 26.958l-40.194214 0l0 -26.958z" fill-rule="nonzero"/><path stroke="#000000" stroke-width="1.0" stroke-linecap="butt" d="m-0.20643045 -0.49876064l0 94.11811" fill-rule="nonzero"/><path stroke="#ffffff" stroke-width="1.0" stroke-linecap="butt" d="m27.289633 -0.49876064l0 21.590551" fill-rule="nonzero"/><path stroke="#000000" stroke-width="1.0" stroke-linecap="butt" d="m27.289633 21.091791l0 72.52756" fill-rule="nonzero"/><path stroke="#000000" stroke-width="1.0" stroke-linecap="butt" d="m58.087532 21.091791l0 72.52756" fill-rule="nonzero"/><path stroke="#000000" stroke-width="1.0" stroke-linecap="butt" d="m98.28176 21.091791l0 72.52756" fill-rule="nonzero"/><path stroke="#000000" stroke-width="1.0" stroke-linecap="butt" d="m138.47598 21.091791l0 72.52756" fill-rule="nonzero"/><path stroke="#000000" stroke-width="1.0" stroke-linecap="butt" d="m178.67021 21.091791l0 72.52756" fill-rule="nonzero"/><path stroke="#000000" stroke-width="1.0" stroke-linecap="butt" d="m218.86444 21.091791l0 72.52756" fill-rule="nonzero"/><path stroke="#ffffff" stroke-width="1.0" stroke-linecap="butt" d="m259.05865 -0.49876064l0 21.590551" fill-rule="nonzero"/><path stroke="#000000" stroke-width="1.0" stroke-linecap="butt" d="m259.05865 21.091791l0 72.52756" fill-rule="nonzero"/><path stroke="#000000" stroke-width="1.0" stroke-linecap="butt" d="m288.20566 -0.49876064l0 94.11811" fill-rule="nonzero"/><path stroke="#000000" stroke-width="1.0" stroke-linecap="butt" d="m-0.7051181 -7.296588E-5l289.40945 0" fill-rule="nonzero"/><path stroke="#000000" stroke-width="1.0" stroke-linecap="butt" d="m-0.7051181 21.590479l289.40945 0" fill-rule="nonzero"/><path stroke="#000000" stroke-width="1.0" stroke-linecap="butt" d="m-0.7051181 37.65872l289.40945 0" fill-rule="nonzero"/><path stroke="#000000" stroke-width="1.0" stroke-linecap="butt" d="m-0.7051181 66.16266l289.40945 0" fill-rule="nonzero"/><path stroke="#000000" stroke-width="1.0" stroke-linecap="butt" d="m-0.7051181 93.12066l289.40945 0" fill-rule="nonzero"/><path fill="#ffffff" d="m3.3117886 15.595202l0.203125 -10.796875l1.484375 0l1.890625 8.75l1.921875 -8.75l1.46875 0l0.203125 10.796875l-1.21875 0l-0.109375 -7.8437495l-1.828125 7.8437495l-0.859375 0l-1.8125 -7.8437495l-0.109375 7.8437495l-1.234375 0zm11.374649 0.125q-0.9375 0 -1.5625 -0.40625q-0.609375 -0.40625 -0.9375 -1.109375q-0.3125 -0.703125 -0.375 -1.640625l1.34375 -0.359375q0.03125 0.578125 0.171875 1.109375q0.140625 0.53125 0.453125 0.875q0.328125 0.34375 0.90625 0.34375q0.578125 0 0.875 -0.328125q0.3125 -0.328125 0.3125 -0.9375q0 -0.734375 -0.34375 -1.171875q-0.328125 -0.453125 -0.828125 -0.90625l-1.8125 -1.609375q-0.546875 -0.46875 -0.796875 -1.015625q-0.25 -0.546875 -0.25 -1.3593745q0 -1.1875 0.671875 -1.84375q0.6875 -0.65625 1.859375 -0.65625q0.640625 0 1.125 0.171875q0.484375 0.15625 0.8125 0.515625q0.328125 0.34375 0.515625 0.875q0.203125 0.515625 0.265625 1.21875l-1.28125 0.359375q-0.03125 -0.546875 -0.15625 -0.984375q-0.125 -0.453125 -0.421875 -0.71875q-0.296875 -0.28125 -0.859375 -0.28125q-0.5625 0 -0.875 0.3125q-0.3125 0.296875 -0.3125 0.875q0 0.5 0.15625 0.828125q0.171875 0.31249952 0.546875 0.6406245l1.828125 1.59375q0.609375 0.546875 1.078125 1.28125q0.46875 0.734375 0.46875 1.75q0 0.796875 -0.34375 1.375q-0.328125 0.578125 -0.90625 0.890625q-0.578125 0.3125 -1.328125 0.3125zm3.757309 -0.125l0 -10.796875l2.46875 0q0.734375 0 1.265625 0.171875q0.546875 0.15625 0.90625 0.484375q0.359375 0.328125 0.53125 0.84375q0.1875 0.515625 0.1875 1.203125q0 0.6718745 -0.171875 1.1562495q-0.171875 0.484375 -0.515625 0.765625q-0.328125 0.28125 -0.859375 0.359375q0.640625 0.140625 1.046875 0.5q0.40625 0.359375 0.59375 0.90625q0.1875 0.546875 0.1875 1.328125q0 0.6875 -0.15625 1.265625q-0.15625 0.578125 -0.5 0.984375q-0.34375 0.390625 -0.875 0.609375q-0.515625 0.21875 -1.234375 0.21875l-2.875 0zm1.5 -1.078125l1.015625 0q1.015625 0 1.34375 -0.46875q0.34375 -0.484375 0.34375 -1.53125q0 -0.6875 -0.1875 -1.140625q-0.171875 -0.453125 -0.5625 -0.6875q-0.390625 -0.234375 -1.0625 -0.234375l-0.890625 0l0 4.0625zm0 -5.21875l0.890625 0q0.640625 0 1.0 -0.171875q0.359375 -0.1875 0.5 -0.578125q0.15625 -0.40625 0.15625 -1.0468745q0 -0.75 -0.234375 -1.078125q-0.21875 -0.328125 -0.703125 -0.40625q-0.46875 -0.09375 -1.25 -0.09375l-0.359375 0l0 3.3749995z" fill-rule="nonzero"/><path fill="#ffffff" d="m265.18622 15.595202l0 -10.796875l1.5 0l0 9.71875l2.765625 0l0 1.078125l-4.265625 0zm7.838135 0.125q-0.9375 0 -1.5625 -0.40625q-0.609375 -0.40625 -0.9375 -1.109375q-0.3125 -0.703125 -0.375 -1.640625l1.34375 -0.359375q0.03125 0.578125 0.171875 1.109375q0.140625 0.53125 0.453125 0.875q0.328125 0.34375 0.90625 0.34375q0.578125 0 0.875 -0.328125q0.3125 -0.328125 0.3125 -0.9375q0 -0.734375 -0.34375 -1.171875q-0.328125 -0.453125 -0.828125 -0.90625l-1.8125 -1.609375q-0.546875 -0.46875 -0.796875 -1.015625q-0.25 -0.546875 -0.25 -1.3593745q0 -1.1875 0.671875 -1.84375q0.6875 -0.65625 1.859375 -0.65625q0.640625 0 1.125 0.171875q0.484375 0.15625 0.8125 0.515625q0.328125 0.34375 0.515625 0.875q0.203125 0.515625 0.265625 1.21875l-1.28125 0.359375q-0.03125 -0.546875 -0.15625 -0.984375q-0.125 -0.453125 -0.421875 -0.71875q-0.296875 -0.28125 -0.859375 -0.28125q-0.5625 0 -0.875 0.3125q-0.3125 0.296875 -0.3125 0.875q0 0.5 0.15625 0.828125q0.171875 0.31249952 0.546875 0.6406245l1.828125 1.59375q0.609375 0.546875 1.078125 1.28125q0.46875 0.734375 0.46875 1.75q0 0.796875 -0.34375 1.375q-0.328125 0.578125 -0.90625 0.890625q-0.578125 0.3125 -1.328125 0.3125zm3.7572937 -0.125l0 -10.796875l2.46875 0q0.734375 0 1.265625 0.171875q0.546875 0.15625 0.90625 0.484375q0.359375 0.328125 0.53125 0.84375q0.1875 0.515625 0.1875 1.203125q0 0.6718745 -0.171875 1.1562495q-0.171875 0.484375 -0.515625 0.765625q-0.328125 0.28125 -0.859375 0.359375q0.640625 0.140625 1.046875 0.5q0.40625 0.359375 0.59375 0.90625q0.1875 0.546875 0.1875 1.328125q0 0.6875 -0.15625 1.265625q-0.15625 0.578125 -0.5 0.984375q-0.34375 0.390625 -0.875 0.609375q-0.515625 0.21875 -1.234375 0.21875l-2.875 0zm1.5 -1.078125l1.015625 0q1.015625 0 1.34375 -0.46875q0.34375 -0.484375 0.34375 -1.53125q0 -0.6875 -0.1875 -1.140625q-0.171875 -0.453125 -0.5625 -0.6875q-0.390625 -0.234375 -1.0625 -0.234375l-0.890625 0l0 4.0625zm0 -5.21875l0.890625 0q0.640625 0 1.0 -0.171875q0.359375 -0.1875 0.5 -0.578125q0.15625 -0.40625 0.15625 -1.0468745q0 -0.75 -0.234375 -1.078125q-0.21875 -0.328125 -0.703125 -0.40625q-0.46875 -0.09375 -1.25 -0.09375l-0.359375 0l0 3.3749995z" fill-rule="nonzero"/><path fill="#000000" d="m8.731588 32.9846l0 -6.250002q-0.015625 0.015625 -0.21875 0.0625q-0.1875 0.046875 -0.4375 0.09375q-0.25 0.046875 -0.453125 0.078125q-0.1875 0.03125 -0.203125 0.03125l0 -0.75q0.15625 -0.03125 0.359375 -0.09375q0.21875 -0.078125 0.4375 -0.171875q0.21875 -0.09375 0.421875 -0.234375q0.203125 -0.140625 0.34375 -0.328125l0.75 0l0 7.562502l-1.0 0zm2.4751892 0l0 -0.703125l1.921875 -3.000002q0.21875 -0.34375 0.390625 -0.625q0.1875 -0.296875 0.296875 -0.609375q0.125 -0.328125 0.125 -0.75q0 -0.515625 -0.171875 -0.8125q-0.15625 -0.296875 -0.578125 -0.296875q-0.359375 0 -0.5625 0.203125q-0.1875 0.1875 -0.265625 0.5q-0.0625 0.3125 -0.0625 0.6875l0 0.25l-1.0 0l0 -0.265625q0 -0.671875 0.171875 -1.15625q0.1875 -0.5 0.59375 -0.765625q0.40625 -0.28125 1.078125 -0.28125q0.921875 0 1.359375 0.53125q0.453125 0.515625 0.453125 1.421875q0 0.484375 -0.125 0.859375q-0.109375 0.359375 -0.296875 0.671875q-0.1875 0.3125 -0.40625 0.65625l-1.734375 2.640627l2.390625 0l0 0.84375l-3.578125 0zm6.411972 0.078125q-0.671875 0 -1.09375 -0.265625q-0.40625 -0.265625 -0.59375 -0.765625q-0.171875 -0.5000019 -0.171875 -1.1718769q0 -0.390625 0.0625 -0.671875q0.0625 -0.296875 0.1875 -0.515625q0.125 -0.21875 0.296875 -0.375q0.171875 -0.171875 0.390625 -0.296875q-0.375 -0.25 -0.609375 -0.65625q-0.234375 -0.40625 -0.234375 -1.03125q0 -0.59375 0.1875 -1.03125q0.1875 -0.4375 0.578125 -0.671875q0.390625 -0.25 1.0 -0.25q0.609375 0 1.0 0.25q0.390625 0.234375 0.5625 0.671875q0.1875 0.4375 0.1875 1.03125q0 0.640625 -0.234375 1.046875q-0.21875 0.390625 -0.59375 0.640625q0.203125 0.125 0.375 0.296875q0.171875 0.15625 0.296875 0.375q0.125 0.21875 0.1875 0.515625q0.078125 0.28125 0.078125 0.671875q0 0.671875 -0.1875 1.1718769q-0.171875 0.5 -0.578125 0.765625q-0.40625 0.265625 -1.09375 0.265625zm0 -0.78125q0.375 0 0.5625 -0.1875q0.203125 -0.1875019 0.265625 -0.5000019q0.078125 -0.328125 0.078125 -0.71875q0 -0.359375 -0.09375 -0.671875q-0.078125 -0.3125 -0.28125 -0.5q-0.1875 -0.203125 -0.53125 -0.203125q-0.34375 0 -0.546875 0.203125q-0.203125 0.1875 -0.28125 0.5q-0.078125 0.3125 -0.078125 0.671875q0 0.390625 0.0625 0.71875q0.078125 0.3125 0.28125 0.5000019q0.203125 0.1875 0.5625 0.1875zm0 -3.734377q0.328125 -0.015625 0.484375 -0.203125q0.15625 -0.1875 0.21875 -0.46875q0.078125 -0.296875 0.078125 -0.625q0 -0.453125 -0.171875 -0.78125q-0.171875 -0.328125 -0.609375 -0.328125q-0.4375 0 -0.609375 0.328125q-0.171875 0.328125 -0.171875 0.78125q0 0.328125 0.0625 0.625q0.0625 0.28125 0.234375 0.46875q0.171875 0.1875 0.484375 0.203125z" fill-rule="nonzero"/><path fill="#000000" d="m40.480446 33.062725q-0.640625 0 -1.0625 -0.328125q-0.40625 -0.328125 -0.59375 -0.8906269q-0.1875 -0.5625 -0.1875 -1.25l0 -2.546875q0 -0.75 0.15625 -1.34375q0.171875 -0.609375 0.578125 -0.96875q0.40625 -0.375 1.109375 -0.375q0.59375 0 1.0 0.21875q0.40625 0.21875 0.625 0.625q0.21875 0.40625 0.234375 1.0q0 0.015625 0 0.046875q0 0.03125 0 0.0625l-1.0 0q0 -0.546875 -0.1875 -0.828125q-0.171875 -0.296875 -0.671875 -0.296875q-0.265625 0 -0.46875 0.171875q-0.1875 0.171875 -0.28125 0.53125q-0.09375 0.34375 -0.09375 0.90625l0 1.140625q0.140625 -0.21875 0.40625 -0.359375q0.28125 -0.15625 0.6875 -0.15625q0.625 0 0.96875 0.28125q0.359375 0.265625 0.5 0.75q0.15625 0.484375 0.15625 1.15625q0 0.671875 -0.1875 1.234375q-0.171875 0.5625019 -0.59375 0.8906269q-0.40625 0.328125 -1.09375 0.328125zm0 -0.828125q0.34375 0 0.53125 -0.1875q0.1875 -0.1875019 0.265625 -0.5000019q0.078125 -0.328125 0.078125 -0.703125q0 -0.4375 -0.046875 -0.8125q-0.03125 -0.390625 -0.21875 -0.625q-0.171875 -0.234375 -0.609375 -0.234375q-0.203125 0 -0.375 0.078125q-0.15625 0.078125 -0.28125 0.203125q-0.125 0.109375 -0.1875 0.234375l0 1.125q0 0.390625 0.078125 0.71875q0.078125 0.328125 0.265625 0.5156269q0.1875 0.1875 0.5 0.1875zm4.863922 0.75l0 -2.031252l-2.1875 0l0 -1.03125l1.96875 -4.5l1.171875 0l0 4.65625l0.84375 0l0 0.875l-0.84375 0l0 2.031252l-0.953125 0zm-1.234375 -2.906252l1.234375 0l0 -3.4375l-1.234375 3.4375z" fill-rule="nonzero"/><path fill="#000000" d="m75.94921 33.062725q-0.609375 0 -1.03125 -0.21875q-0.40625 -0.234375 -0.609375 -0.671875q-0.203125 -0.4531269 -0.203125 -1.0468769l0 -0.25l0.984375 0q0 0.03125 0 0.078125q0 0.046875 0 0.09375q0.015625 0.328125 0.078125 0.609375q0.078125 0.265625 0.25 0.4218769q0.1875 0.15625 0.53125 0.15625q0.359375 0 0.546875 -0.171875q0.1875 -0.1718769 0.25 -0.4843769q0.078125 -0.3125 0.078125 -0.734375q0 -0.59375 -0.21875 -0.96875q-0.21875 -0.375 -0.78125 -0.421875q-0.015625 0 -0.0625 0q-0.046875 0 -0.078125 0l0 -1.0q0.03125 0 0.0625 0q0.046875 0 0.078125 0q0.53125 -0.015625 0.765625 -0.28125q0.234375 -0.265625 0.234375 -0.875q0 -0.5 -0.171875 -0.8125q-0.171875 -0.3125 -0.6875 -0.3125q-0.515625 0 -0.6875 0.34375q-0.171875 0.34375 -0.1875 0.875q0 0.03125 0 0.078125q0 0.046875 0 0.078125l-0.984375 0l0 -0.25q0 -0.609375 0.203125 -1.03125q0.203125 -0.4375 0.609375 -0.671875q0.421875 -0.234375 1.046875 -0.234375q0.625 0 1.03125 0.234375q0.40625 0.234375 0.609375 0.671875q0.203125 0.4375 0.203125 1.03125q0 0.6875 -0.296875 1.109375q-0.28125 0.40625 -0.78125 0.546875q0.34375 0.109375 0.578125 0.359375q0.25 0.25 0.375 0.640625q0.125 0.375 0.125 0.890625q0 0.671875 -0.1875 1.1718769q-0.171875 0.5 -0.59375 0.78125q-0.40625 0.265625 -1.078125 0.265625zm2.605774 -0.078125l0 -0.703125l1.921875 -3.000002q0.21875 -0.34375 0.390625 -0.625q0.1875 -0.296875 0.296875 -0.609375q0.125 -0.328125 0.125 -0.75q0 -0.515625 -0.171875 -0.8125q-0.15625 -0.296875 -0.578125 -0.296875q-0.359375 0 -0.5625 0.203125q-0.1875 0.1875 -0.265625 0.5q-0.0625 0.3125 -0.0625 0.6875l0 0.25l-1.0 0l0 -0.265625q0 -0.671875 0.171875 -1.15625q0.1875 -0.5 0.59375 -0.765625q0.40625 -0.28125 1.078125 -0.28125q0.921875 0 1.359375 0.53125q0.453125 0.515625 0.453125 1.421875q0 0.484375 -0.125 0.859375q-0.109375 0.359375 -0.296875 0.671875q-0.1875 0.3125 -0.40625 0.65625l-1.734375 2.640627l2.390625 0l0 0.84375l-3.578125 0z" fill-rule="nonzero"/><path fill="#000000" d="m115.779625 32.9846l0 -6.250002q-0.015625 0.015625 -0.21875 0.0625q-0.1875 0.046875 -0.4375 0.09375q-0.25 0.046875 -0.453125 0.078125q-0.1875 0.03125 -0.203125 0.03125l0 -0.75q0.15625 -0.03125 0.359375 -0.09375q0.21875 -0.078125 0.4375 -0.171875q0.21875 -0.09375 0.421875 -0.234375q0.203125 -0.140625 0.34375 -0.328125l0.75 0l0 7.562502l-1.0 0zm4.490814 0.078125q-0.640625 0 -1.0625 -0.328125q-0.40625 -0.328125 -0.59375 -0.8906269q-0.1875 -0.5625 -0.1875 -1.25l0 -2.546875q0 -0.75 0.15625 -1.34375q0.171875 -0.609375 0.578125 -0.96875q0.40625 -0.375 1.109375 -0.375q0.59375 0 1.0 0.21875q0.40625 0.21875 0.625 0.625q0.21875 0.40625 0.234375 1.0q0 0.015625 0 0.046875q0 0.03125 0 0.0625l-1.0 0q0 -0.546875 -0.1875 -0.828125q-0.171875 -0.296875 -0.671875 -0.296875q-0.265625 0 -0.46875 0.171875q-0.1875 0.171875 -0.28125 0.53125q-0.09375 0.34375 -0.09375 0.90625l0 1.140625q0.140625 -0.21875 0.40625 -0.359375q0.28125 -0.15625 0.6875 -0.15625q0.625 0 0.96875 0.28125q0.359375 0.265625 0.5 0.75q0.15625 0.484375 0.15625 1.15625q0 0.671875 -0.1875 1.234375q-0.171875 0.5625019 -0.59375 0.8906269q-0.40625 0.328125 -1.09375 0.328125zm0 -0.828125q0.34375 0 0.53125 -0.1875q0.1875 -0.1875019 0.265625 -0.5000019q0.078125 -0.328125 0.078125 -0.703125q0 -0.4375 -0.046875 -0.8125q-0.03125 -0.390625 -0.21875 -0.625q-0.171875 -0.234375 -0.609375 -0.234375q-0.203125 0 -0.375 0.078125q-0.15625 0.078125 -0.28125 0.203125q-0.125 0.109375 -0.1875 0.234375l0 1.125q0 0.390625 0.078125 0.71875q0.078125 0.328125 0.265625 0.5156269q0.1875 0.1875 0.5 0.1875z" fill-rule="nonzero"/><path fill="#000000" d="m158.57385 33.062725q-0.671875 0 -1.09375 -0.265625q-0.40625 -0.265625 -0.59375 -0.765625q-0.171875 -0.5000019 -0.171875 -1.1718769q0 -0.390625 0.0625 -0.671875q0.0625 -0.296875 0.1875 -0.515625q0.125 -0.21875 0.296875 -0.375q0.171875 -0.171875 0.390625 -0.296875q-0.375 -0.25 -0.609375 -0.65625q-0.234375 -0.40625 -0.234375 -1.03125q0 -0.59375 0.1875 -1.03125q0.1875 -0.4375 0.578125 -0.671875q0.390625 -0.25 1.0 -0.25q0.609375 0 1.0 0.25q0.390625 0.234375 0.5625 0.671875q0.1875 0.4375 0.1875 1.03125q0 0.640625 -0.234375 1.046875q-0.21875 0.390625 -0.59375 0.640625q0.203125 0.125 0.375 0.296875q0.171875 0.15625 0.296875 0.375q0.125 0.21875 0.1875 0.515625q0.078125 0.28125 0.078125 0.671875q0 0.671875 -0.1875 1.1718769q-0.171875 0.5 -0.578125 0.765625q-0.40625 0.265625 -1.09375 0.265625zm0 -0.78125q0.375 0 0.5625 -0.1875q0.203125 -0.1875019 0.265625 -0.5000019q0.078125 -0.328125 0.078125 -0.71875q0 -0.359375 -0.09375 -0.671875q-0.078125 -0.3125 -0.28125 -0.5q-0.1875 -0.203125 -0.53125 -0.203125q-0.34375 0 -0.546875 0.203125q-0.203125 0.1875 -0.28125 0.5q-0.078125 0.3125 -0.078125 0.671875q0 0.390625 0.0625 0.71875q0.078125 0.3125 0.28125 0.5000019q0.203125 0.1875 0.5625 0.1875zm0 -3.734377q0.328125 -0.015625 0.484375 -0.203125q0.15625 -0.1875 0.21875 -0.46875q0.078125 -0.296875 0.078125 -0.625q0 -0.453125 -0.171875 -0.78125q-0.171875 -0.328125 -0.609375 -0.328125q-0.4375 0 -0.609375 0.328125q-0.171875 0.328125 -0.171875 0.78125q0 0.328125 0.0625 0.625q0.0625 0.28125 0.234375 0.46875q0.171875 0.1875 0.484375 0.203125z" fill-rule="nonzero"/><path fill="#000000" d="m199.07709 32.9846l0 -2.031252l-2.1875 0l0 -1.03125l1.96875 -4.5l1.171875 0l0 4.65625l0.84375 0l0 0.875l-0.84375 0l0 2.031252l-0.953125 0zm-1.234375 -2.906252l1.234375 0l0 -3.4375l-1.234375 3.4375z" fill-rule="nonzero"/><path fill="#000000" d="m237.10713 32.9846l0 -0.703125l1.921875 -3.000002q0.21875 -0.34375 0.390625 -0.625q0.1875 -0.296875 0.296875 -0.609375q0.125 -0.328125 0.125 -0.75q0 -0.515625 -0.171875 -0.8125q-0.15625 -0.296875 -0.578125 -0.296875q-0.359375 0 -0.5625 0.203125q-0.1875 0.1875 -0.265625 0.5q-0.0625 0.3125 -0.0625 0.6875l0 0.25l-1.0 0l0 -0.265625q0 -0.671875 0.171875 -1.15625q0.1875 -0.5 0.59375 -0.765625q0.40625 -0.28125 1.078125 -0.28125q0.921875 0 1.359375 0.53125q0.453125 0.515625 0.453125 1.421875q0 0.484375 -0.125 0.859375q-0.109375 0.359375 -0.296875 0.671875q-0.1875 0.3125 -0.40625 0.65625l-1.734375 2.640627l2.390625 0l0 0.84375l-3.578125 0z" fill-rule="nonzero"/><path fill="#000000" d="m273.37894 32.9846l0 -6.250002q-0.015625 0.015625 -0.21875 0.0625q-0.1875 0.046875 -0.4375 0.09375q-0.25 0.046875 -0.453125 0.078125q-0.1875 0.03125 -0.203125 0.03125l0 -0.75q0.15625 -0.03125 0.359375 -0.09375q0.21875 -0.078125 0.4375 -0.171875q0.21875 -0.09375 0.421875 -0.234375q0.203125 -0.140625 0.34375 -0.328125l0.75 0l0 7.562502l-1.0 0z" fill-rule="nonzero"/><path fill="#000000" d="m9.190245 56.710686l0 -1.015625l2.75 -4.28125q0.296875 -0.46875 0.5625 -0.875q0.265625 -0.421875 0.421875 -0.875q0.171875 -0.46875 0.171875 -1.0625q0 -0.75 -0.25 -1.171875q-0.234375 -0.4375 -0.828125 -0.4375q-0.515625 0 -0.796875 0.28125q-0.265625 0.28125 -0.375 0.734375q-0.109375 0.453125 -0.109375 0.96875l0 0.359375l-1.421875 0l0 -0.375q0 -0.96875 0.25 -1.65625q0.265625 -0.703125 0.84375 -1.09375q0.578125 -0.390625 1.546875 -0.390625q1.296875 0 1.9375 0.75q0.640625 0.734375 0.640625 2.03125q0 0.703125 -0.171875 1.21875q-0.15625 0.515625 -0.421875 0.96875q-0.265625 0.453125 -0.59375 0.9375l-2.484375 3.78125l3.421875 0l0 1.203125l-5.09375 0z" fill-rule="nonzero"/><path fill="#000000" d="m15.842314 51.710686l1.296875 -6.4375l-1.9375 0l0 -0.75l2.890625 0l0 0.453125l-1.34375 6.734375l-0.90625 0z" fill-rule="nonzero"/><path fill="#000000" d="m37.818054 56.710686l0 -1.015625l2.75 -4.28125q0.296875 -0.46875 0.5625 -0.875q0.265625 -0.421875 0.421875 -0.875q0.171875 -0.46875 0.171875 -1.0625q0 -0.75 -0.25 -1.171875q-0.234375 -0.4375 -0.828125 -0.4375q-0.515625 0 -0.796875 0.28125q-0.265625 0.28125 -0.375 0.734375q-0.109375 0.453125 -0.109375 0.96875l0 0.359375l-1.421875 0l0 -0.375q0 -0.96875 0.25 -1.65625q0.265625 -0.703125 0.84375 -1.09375q0.578125 -0.390625 1.546875 -0.390625q1.296875 0 1.9375 0.75q0.640625 0.734375 0.640625 2.03125q0 0.703125 -0.171875 1.21875q-0.15625 0.515625 -0.421875 0.96875q-0.265625 0.453125 -0.59375 0.9375l-2.484375 3.78125l3.421875 0l0 1.203125l-5.09375 0z" fill-rule="nonzero"/><path fill="#000000" d="m45.92325 51.78881q-0.625 0 -1.015625 -0.3125q-0.390625 -0.3125 -0.578125 -0.84375q-0.171875 -0.546875 -0.171875 -1.203125l0 -2.421875q0 -0.703125 0.15625 -1.28125q0.15625 -0.578125 0.546875 -0.921875q0.390625 -0.34375 1.0625 -0.34375q0.5625 0 0.9375 0.203125q0.390625 0.203125 0.59375 0.59375q0.21875 0.390625 0.21875 0.953125q0 0.015625 0 0.046875q0.015625 0.03125 0.015625 0.0625l-0.953125 0q0 -0.53125 -0.171875 -0.796875q-0.171875 -0.28125 -0.640625 -0.28125q-0.25 0 -0.4375 0.171875q-0.1875 0.15625 -0.28125 0.5q-0.09375 0.328125 -0.09375 0.859375l0 1.09375q0.140625 -0.21875 0.390625 -0.359375q0.265625 -0.140625 0.65625 -0.140625q0.59375 0 0.921875 0.265625q0.34375 0.25 0.484375 0.71875q0.140625 0.46875 0.140625 1.09375q0 0.65625 -0.1875 1.1875q-0.171875 0.53125 -0.5625 0.84375q-0.390625 0.3125 -1.03125 0.3125zm0 -0.78125q0.3125 0 0.484375 -0.1875q0.1875 -0.1875 0.265625 -0.484375q0.078125 -0.296875 0.078125 -0.65625q0 -0.421875 -0.046875 -0.78125q-0.03125 -0.375 -0.203125 -0.59375q-0.171875 -0.21875 -0.578125 -0.21875q-0.203125 0 -0.359375 0.078125q-0.15625 0.0625 -0.28125 0.1875q-0.109375 0.109375 -0.171875 0.21875l0 1.078125q0 0.375 0.0625 0.6875q0.078125 0.296875 0.25 0.484375q0.1875 0.1875 0.5 0.1875z" fill-rule="nonzero"/><path fill="#000000" d="m73.43392 56.710686l0 -1.015625l2.75 -4.28125q0.296875 -0.46875 0.5625 -0.875q0.265625 -0.421875 0.421875 -0.875q0.171875 -0.46875 0.171875 -1.0625q0 -0.75 -0.25 -1.171875q-0.234375 -0.4375 -0.828125 -0.4375q-0.515625 0 -0.796875 0.28125q-0.265625 0.28125 -0.375 0.734375q-0.109375 0.453125 -0.109375 0.96875l0 0.359375l-1.421875 0l0 -0.375q0 -0.96875 0.25 -1.65625q0.265625 -0.703125 0.84375 -1.09375q0.578125 -0.390625 1.546875 -0.390625q1.296875 0 1.9375 0.75q0.640625 0.734375 0.640625 2.03125q0 0.703125 -0.171875 1.21875q-0.15625 0.515625 -0.421875 0.96875q-0.265625 0.453125 -0.59375 0.9375l-2.484375 3.78125l3.421875 0l0 1.203125l-5.09375 0z" fill-rule="nonzero"/><path fill="#000000" d="m81.414116 51.78881q-0.640625 0 -1.03125 -0.25q-0.375 -0.25 -0.546875 -0.71875q-0.15625 -0.46875 -0.15625 -1.125l0.9375 0q0 0.328125 0.046875 0.640625q0.0625 0.296875 0.234375 0.5q0.171875 0.1875 0.53125 0.1875q0.390625 0 0.5625 -0.21875q0.171875 -0.234375 0.203125 -0.609375q0.046875 -0.390625 0.046875 -0.875q0 -0.5 -0.046875 -0.828125q-0.046875 -0.34375 -0.21875 -0.53125q-0.171875 -0.1875 -0.53125 -0.1875q-0.296875 0 -0.5 0.1875q-0.203125 0.1875 -0.296875 0.40625l-0.8125 0l0 -3.84375l3.09375 0l0 0.953125l-2.234375 0l-0.0625 1.984375q0.171875 -0.1875 0.4375 -0.296875q0.265625 -0.109375 0.59375 -0.109375q0.59375 0 0.921875 0.28125q0.34375 0.28125 0.46875 0.765625q0.140625 0.46875 0.140625 1.09375q0 0.546875 -0.078125 1.03125q-0.078125 0.46875 -0.28125 0.828125q-0.203125 0.34375 -0.546875 0.546875q-0.34375 0.1875 -0.875 0.1875z" fill-rule="nonzero"/><path fill="#000000" d="m113.597084 56.710686l0 -1.015625l2.75 -4.28125q0.296875 -0.46875 0.5625 -0.875q0.265625 -0.421875 0.421875 -0.875q0.171875 -0.46875 0.171875 -1.0625q0 -0.75 -0.25 -1.171875q-0.234375 -0.4375 -0.828125 -0.4375q-0.515625 0 -0.796875 0.28125q-0.265625 0.28125 -0.375 0.734375q-0.109375 0.453125 -0.109375 0.96875l0 0.359375l-1.421875 0l0 -0.375q0 -0.96875 0.25 -1.65625q0.265625 -0.703125 0.84375 -1.09375q0.578125 -0.390625 1.546875 -0.390625q1.296875 0 1.9375 0.75q0.640625 0.734375 0.640625 2.03125q0 0.703125 -0.171875 1.21875q-0.15625 0.515625 -0.421875 0.96875q-0.265625 0.453125 -0.59375 0.9375l-2.484375 3.78125l3.421875 0l0 1.203125l-5.09375 0z" fill-rule="nonzero"/><path fill="#000000" d="m121.85853 51.710686l0 -1.921875l-2.078125 0l0 -1.0l1.875 -4.265625l1.109375 0l0 4.421875l0.8125 0l0 0.84375l-0.8125 0l0 1.921875l-0.90625 0zm-1.171875 -2.765625l1.171875 0l0 -3.265625l-1.171875 3.265625z" fill-rule="nonzero"/><path fill="#000000" d="m153.81793 56.710686l0 -1.015625l2.75 -4.28125q0.296875 -0.46875 0.5625 -0.875q0.265625 -0.421875 0.421875 -0.875q0.171875 -0.46875 0.171875 -1.0625q0 -0.75 -0.25 -1.171875q-0.234375 -0.4375 -0.828125 -0.4375q-0.515625 0 -0.796875 0.28125q-0.265625 0.28125 -0.375 0.734375q-0.109375 0.453125 -0.109375 0.96875l0 0.359375l-1.421875 0l0 -0.375q0 -0.96875 0.25 -1.65625q0.265625 -0.703125 0.84375 -1.09375q0.578125 -0.390625 1.546875 -0.390625q1.296875 0 1.9375 0.75q0.640625 0.734375 0.640625 2.03125q0 0.703125 -0.171875 1.21875q-0.15625 0.515625 -0.421875 0.96875q-0.265625 0.453125 -0.59375 0.9375l-2.484375 3.78125l3.421875 0l0 1.203125l-5.09375 0z" fill-rule="nonzero"/><path fill="#000000" d="m161.75125 51.78881q-0.578125 0 -0.96875 -0.21875q-0.390625 -0.21875 -0.59375 -0.640625q-0.1875 -0.421875 -0.1875 -0.984375l0 -0.234375l0.9375 0q0 0.03125 0 0.078125q0 0.03125 0 0.078125q0 0.3125 0.0625 0.578125q0.078125 0.25 0.25 0.40625q0.171875 0.15625 0.5 0.15625q0.34375 0 0.515625 -0.15625q0.1875 -0.171875 0.25 -0.46875q0.0625 -0.3125 0.0625 -0.703125q0 -0.5625 -0.21875 -0.921875q-0.203125 -0.359375 -0.71875 -0.40625q-0.03125 0 -0.078125 0q-0.03125 0 -0.0625 0l0 -0.953125q0.03125 0 0.0625 0q0.046875 0 0.0625 0q0.515625 -0.015625 0.734375 -0.265625q0.21875 -0.25 0.21875 -0.828125q0 -0.484375 -0.171875 -0.78125q-0.15625 -0.296875 -0.640625 -0.296875q-0.484375 0 -0.65625 0.328125q-0.15625 0.328125 -0.171875 0.828125q0 0.03125 0 0.078125q0 0.046875 0 0.078125l-0.9375 0l0 -0.234375q0 -0.578125 0.1875 -0.984375q0.203125 -0.421875 0.59375 -0.640625q0.390625 -0.21875 0.984375 -0.21875q0.59375 0 0.984375 0.21875q0.390625 0.21875 0.578125 0.640625q0.203125 0.40625 0.203125 0.984375q0 0.65625 -0.28125 1.046875q-0.28125 0.390625 -0.75 0.53125q0.328125 0.09375 0.546875 0.34375q0.234375 0.234375 0.359375 0.609375q0.125 0.359375 0.125 0.84375q0 0.640625 -0.1875 1.125q-0.171875 0.46875 -0.5625 0.734375q-0.390625 0.25 -1.03125 0.25z" fill-rule="nonzero"/><path fill="#000000" d="m194.00772 56.710686l0 -1.015625l2.75 -4.28125q0.296875 -0.46875 0.5625 -0.875q0.265625 -0.421875 0.421875 -0.875q0.171875 -0.46875 0.171875 -1.0625q0 -0.75 -0.25 -1.171875q-0.234375 -0.4375 -0.828125 -0.4375q-0.515625 0 -0.796875 0.28125q-0.265625 0.28125 -0.375 0.734375q-0.109375 0.453125 -0.109375 0.96875l0 0.359375l-1.421875 0l0 -0.375q0 -0.96875 0.25 -1.65625q0.265625 -0.703125 0.84375 -1.09375q0.578125 -0.390625 1.546875 -0.390625q1.296875 0 1.9375 0.75q0.640625 0.734375 0.640625 2.03125q0 0.703125 -0.171875 1.21875q-0.15625 0.515625 -0.421875 0.96875q-0.265625 0.453125 -0.59375 0.9375l-2.484375 3.78125l3.421875 0l0 1.203125l-5.09375 0z" fill-rule="nonzero"/><path fill="#000000" d="m200.19104 51.710686l0 -0.671875l1.828125 -2.84375q0.203125 -0.328125 0.375 -0.59375q0.1875 -0.28125 0.296875 -0.578125q0.109375 -0.3125 0.109375 -0.71875q0 -0.5 -0.171875 -0.78125q-0.15625 -0.28125 -0.546875 -0.28125q-0.34375 0 -0.53125 0.1875q-0.1875 0.1875 -0.265625 0.484375q-0.0625 0.296875 -0.0625 0.65625l0 0.234375l-0.953125 0l0 -0.25q0 -0.640625 0.171875 -1.109375q0.1875 -0.46875 0.5625 -0.71875q0.390625 -0.265625 1.03125 -0.265625q0.875 0 1.296875 0.5q0.421875 0.484375 0.421875 1.359375q0 0.453125 -0.109375 0.796875q-0.109375 0.34375 -0.296875 0.65625q-0.171875 0.296875 -0.375 0.625l-1.65625 2.515625l2.265625 0l0 0.796875l-3.390625 0z" fill-rule="nonzero"/><path fill="#000000" d="m234.56581 56.710686l0 -1.015625l2.75 -4.28125q0.296875 -0.46875 0.5625 -0.875q0.265625 -0.421875 0.421875 -0.875q0.171875 -0.46875 0.171875 -1.0625q0 -0.75 -0.25 -1.171875q-0.234375 -0.4375 -0.828125 -0.4375q-0.515625 0 -0.796875 0.28125q-0.265625 0.28125 -0.375 0.734375q-0.109375 0.453125 -0.109375 0.96875l0 0.359375l-1.421875 0l0 -0.375q0 -0.96875 0.25 -1.65625q0.265625 -0.703125 0.84375 -1.09375q0.578125 -0.390625 1.546875 -0.390625q1.296875 0 1.9375 0.75q0.640625 0.734375 0.640625 2.03125q0 0.703125 -0.171875 1.21875q-0.15625 0.515625 -0.421875 0.96875q-0.265625 0.453125 -0.59375 0.9375l-2.484375 3.78125l3.421875 0l0 1.203125l-5.09375 0z" fill-rule="nonzero"/><path fill="#000000" d="m241.90538 51.710686l0 -5.953125q0 0.015625 -0.203125 0.0625q-0.1875 0.046875 -0.4375 0.09375q-0.234375 0.03125 -0.421875 0.078125q-0.171875 0.03125 -0.1875 0.03125l0 -0.71875q0.15625 -0.03125 0.34375 -0.09375q0.203125 -0.0625 0.40625 -0.15625q0.21875 -0.09375 0.40625 -0.21875q0.1875 -0.140625 0.328125 -0.3125l0.71875 0l0 7.1875l-0.953125 0z" fill-rule="nonzero"/><path fill="#000000" d="m268.6995 56.710686l0 -1.015625l2.75 -4.28125q0.296875 -0.46875 0.5625 -0.875q0.265625 -0.421875 0.421875 -0.875q0.171875 -0.46875 0.171875 -1.0625q0 -0.75 -0.25 -1.171875q-0.234375 -0.4375 -0.828125 -0.4375q-0.515625 0 -0.796875 0.28125q-0.265625 0.28125 -0.375 0.734375q-0.109375 0.453125 -0.109375 0.96875l0 0.359375l-1.421875 0l0 -0.375q0 -0.96875 0.25 -1.65625q0.265625 -0.703125 0.84375 -1.09375q0.578125 -0.390625 1.546875 -0.390625q1.296875 0 1.9375 0.75q0.640625 0.734375 0.640625 2.03125q0 0.703125 -0.171875 1.21875q-0.15625 0.515625 -0.421875 0.96875q-0.265625 0.453125 -0.59375 0.9375l-2.484375 3.78125l3.421875 0l0 1.203125l-5.09375 0z" fill-rule="nonzero"/><path fill="#000000" d="m276.8203 51.78881q-0.609375 0 -1.015625 -0.265625q-0.390625 -0.28125 -0.578125 -0.75q-0.1875 -0.484375 -0.1875 -1.109375l0 -3.09375q0 -0.625 0.1875 -1.09375q0.1875 -0.484375 0.578125 -0.75q0.390625 -0.265625 1.015625 -0.265625q0.625 0 1.015625 0.265625q0.390625 0.265625 0.578125 0.75q0.1875 0.46875 0.1875 1.09375l0 3.09375q0 0.625 -0.203125 1.109375q-0.1875 0.46875 -0.578125 0.75q-0.390625 0.265625 -1.0 0.265625zm0 -0.78125q0.34375 0 0.515625 -0.1875q0.171875 -0.203125 0.234375 -0.5q0.0625 -0.3125 0.0625 -0.640625l0 -3.109375q0 -0.359375 -0.0625 -0.65625q-0.0625 -0.3125 -0.234375 -0.5q-0.171875 -0.1875 -0.515625 -0.1875q-0.34375 0 -0.53125 0.1875q-0.171875 0.1875 -0.234375 0.5q-0.0625 0.296875 -0.0625 0.65625l0 3.109375q0 0.328125 0.0625 0.640625q0.078125 0.296875 0.25 0.5q0.1875 0.1875 0.515625 0.1875z" fill-rule="nonzero"/><path fill="#000000" d="m13.183889 84.44166l0 -8.9375q-0.015625 0.015625 -0.3125 0.09375q-0.28125 0.0625 -0.640625 0.125q-0.359375 0.0625 -0.640625 0.125q-0.28125 0.046875 -0.28125 0.046875l0 -1.078125q0.21875 -0.046875 0.515625 -0.140625q0.296875 -0.09375 0.609375 -0.21875q0.328125 -0.140625 0.609375 -0.34375q0.28125 -0.203125 0.484375 -0.46875l1.078125 0l0 10.796875l-1.421875 0z" fill-rule="nonzero"/><path fill="#000000" d="m42.33087 84.44166l0 -8.9375q-0.015625 0.015625 -0.3125 0.09375q-0.28125 0.0625 -0.640625 0.125q-0.359375 0.0625 -0.640625 0.125q-0.28125 0.046875 -0.28125 0.046875l0 -1.078125q0.21875 -0.046875 0.515625 -0.140625q0.296875 -0.09375 0.609375 -0.21875q0.328125 -0.140625 0.609375 -0.34375q0.28125 -0.203125 0.484375 -0.46875l1.078125 0l0 10.796875l-1.421875 0z" fill-rule="nonzero"/><path fill="#000000" d="m78.19247 84.56666q-0.921875 0 -1.515625 -0.40625q-0.59375 -0.421875 -0.890625 -1.140625q-0.28125 -0.71875 -0.28125 -1.640625l0 -4.65625q0 -0.9375 0.28125 -1.65625q0.28125 -0.71875 0.875 -1.109375q0.59375 -0.40625 1.53125 -0.40625q0.9375 0 1.515625 0.40625q0.59375 0.390625 0.875 1.109375q0.28125 0.71875 0.28125 1.65625l0 4.65625q0 0.9375 -0.296875 1.65625q-0.28125 0.71875 -0.875 1.125q-0.578125 0.40625 -1.5 0.40625zm0 -1.171875q0.5 0 0.765625 -0.296875q0.265625 -0.296875 0.359375 -0.75q0.09375 -0.46875 0.09375 -0.953125l0 -4.6875q0 -0.515625 -0.09375 -0.96875q-0.09375 -0.46875 -0.359375 -0.75q-0.25 -0.28125 -0.765625 -0.28125q-0.515625 0 -0.78125 0.28125q-0.265625 0.28125 -0.359375 0.75q-0.09375 0.453125 -0.09375 0.96875l0 4.6875q0 0.484375 0.09375 0.953125q0.09375 0.453125 0.359375 0.75q0.28125 0.296875 0.78125 0.296875z" fill-rule="nonzero"/><path fill="#000000" d="m118.38669 84.56666q-0.921875 0 -1.515625 -0.40625q-0.59375 -0.421875 -0.890625 -1.140625q-0.28125 -0.71875 -0.28125 -1.640625l0 -4.65625q0 -0.9375 0.28125 -1.65625q0.28125 -0.71875 0.875 -1.109375q0.59375 -0.40625 1.53125 -0.40625q0.9375 0 1.515625 0.40625q0.59375 0.390625 0.875 1.109375q0.28125 0.71875 0.28125 1.65625l0 4.65625q0 0.9375 -0.296875 1.65625q-0.28125 0.71875 -0.875 1.125q-0.578125 0.40625 -1.5 0.40625zm0 -1.171875q0.5 0 0.765625 -0.296875q0.265625 -0.296875 0.359375 -0.75q0.09375 -0.46875 0.09375 -0.953125l0 -4.6875q0 -0.515625 -0.09375 -0.96875q-0.09375 -0.46875 -0.359375 -0.75q-0.25 -0.28125 -0.765625 -0.28125q-0.515625 0 -0.78125 0.28125q-0.265625 0.28125 -0.359375 0.75q-0.09375 0.453125 -0.09375 0.96875l0 4.6875q0 0.484375 0.09375 0.953125q0.09375 0.453125 0.359375 0.75q0.28125 0.296875 0.78125 0.296875z" fill-rule="nonzero"/><path fill="#000000" d="m158.21538 84.44166l0 -8.9375q-0.015625 0.015625 -0.3125 0.09375q-0.28125 0.0625 -0.640625 0.125q-0.359375 0.0625 -0.640625 0.125q-0.28125 0.046875 -0.28125 0.046875l0 -1.078125q0.21875 -0.046875 0.515625 -0.140625q0.296875 -0.09375 0.609375 -0.21875q0.328125 -0.140625 0.609375 -0.34375q0.28125 -0.203125 0.484375 -0.46875l1.078125 0l0 10.796875l-1.421875 0z" fill-rule="nonzero"/><path fill="#000000" d="m198.4096 84.44166l0 -8.9375q-0.015625 0.015625 -0.3125 0.09375q-0.28125 0.0625 -0.640625 0.125q-0.359375 0.0625 -0.640625 0.125q-0.28125 0.046875 -0.28125 0.046875l0 -1.078125q0.21875 -0.046875 0.515625 -0.140625q0.296875 -0.09375 0.609375 -0.21875q0.328125 -0.140625 0.609375 -0.34375q0.28125 -0.203125 0.484375 -0.46875l1.078125 0l0 10.796875l-1.421875 0z" fill-rule="nonzero"/><path fill="#000000" d="m238.60384 84.44166l0 -8.9375q-0.015625 0.015625 -0.3125 0.09375q-0.28125 0.0625 -0.640625 0.125q-0.359375 0.0625 -0.640625 0.125q-0.28125 0.046875 -0.28125 0.046875l0 -1.078125q0.21875 -0.046875 0.515625 -0.140625q0.296875 -0.09375 0.609375 -0.21875q0.328125 -0.140625 0.609375 -0.34375q0.28125 -0.203125 0.484375 -0.46875l1.078125 0l0 10.796875l-1.421875 0z" fill-rule="nonzero"/><path fill="#000000" d="m273.63998 84.56666q-0.921875 0 -1.515625 -0.40625q-0.59375 -0.421875 -0.890625 -1.140625q-0.28125 -0.71875 -0.28125 -1.640625l0 -4.65625q0 -0.9375 0.28125 -1.65625q0.28125 -0.71875 0.875 -1.109375q0.59375 -0.40625 1.53125 -0.40625q0.9375 0 1.515625 0.40625q0.59375 0.390625 0.875 1.109375q0.28125 0.71875 0.28125 1.65625l0 4.65625q0 0.9375 -0.296875 1.65625q-0.28125 0.71875 -0.875 1.125q-0.578125 0.40625 -1.5 0.40625zm0 -1.171875q0.5 0 0.765625 -0.296875q0.265625 -0.296875 0.359375 -0.75q0.09375 -0.46875 0.09375 -0.953125l0 -4.6875q0 -0.515625 -0.09375 -0.96875q-0.09375 -0.46875 -0.359375 -0.75q-0.25 -0.28125 -0.765625 -0.28125q-0.515625 0 -0.78125 0.28125q-0.265625 0.28125 -0.359375 0.75q-0.09375 0.453125 -0.09375 0.96875l0 4.6875q0 0.484375 0.09375 0.953125q0.09375 0.453125 0.359375 0.75q0.28125 0.296875 0.78125 0.296875z" fill-rule="nonzero"/></g></svg>