<?xml version="1.0" standalone="no"?>
<!DOCTYPE svg PUBLIC "-//W3C//DTD SVG 20010904//EN"
 "http://www.w3.org/TR/2001/REC-SVG-20010904/DTD/svg10.dtd">
<svg version="1.0" xmlns="http://www.w3.org/2000/svg"
 width="645.000000pt" height="172.000000pt" viewBox="0 0 645.000000 172.000000"
 preserveAspectRatio="xMidYMid meet">

<g transform="translate(0.000000,172.000000) scale(0.100000,-0.100000)"
fill="#000000" stroke="none">
<path d="M10 880 l0 -840 3205 0 3205 0 0 840 0 840 -3205 0 -3205 0 0 -840z
m820 620 c0 -127 -4 -200 -10 -200 -6 0 -10 73 -10 200 0 127 4 200 10 200 6
0 10 -73 10 -200z m4790 0 c0 -127 -4 -200 -10 -200 -6 0 -10 71 -10 193 0
170 3 207 17 207 2 0 3 -90 3 -200z m-5329 28 l13 -41 17 38 c18 41 35 56 56
48 20 -8 19 -143 -1 -143 -11 0 -16 14 -18 48 l-3 47 -16 -45 c-19 -55 -47
-61 -63 -13 -17 49 -26 50 -26 5 0 -31 -4 -42 -15 -42 -12 0 -15 14 -15 69 0
71 7 82 41 74 9 -3 22 -23 30 -45z m197 29 c3 -15 0 -18 -16 -13 -33 11 -35
-12 -2 -29 33 -17 41 -54 16 -74 -20 -17 -81 -10 -81 9 0 10 8 14 28 12 34 -4
35 11 2 32 -45 30 -24 90 30 83 11 -1 21 -10 23 -20z m115 6 c5 -3 6 -18 3
-34 -3 -15 -1 -31 4 -34 6 -3 10 -12 10 -20 0 -25 -31 -45 -71 -45 l-39 0 0
68 c0 38 3 72 7 76 8 7 70 -1 86 -11z m2140 0 c5 -3 6 -18 3 -34 -3 -15 -1
-31 4 -34 6 -3 10 -12 10 -20 0 -25 -31 -45 -71 -45 l-39 0 0 68 c0 38 3 72 7
76 8 7 70 -1 86 -11z m57 2 c0 -8 -7 -15 -15 -15 -8 0 -15 7 -15 15 0 8 7 15
15 15 8 0 15 -7 15 -15z m549 5 c42 -12 51 -24 51 -72 0 -45 -27 -68 -82 -68
l-38 0 0 68 c0 88 3 91 69 72z m101 -5 c0 -8 -7 -15 -15 -15 -8 0 -15 7 -15
15 0 8 7 15 15 15 8 0 15 -7 15 -15z m150 0 c0 -8 -7 -15 -15 -15 -8 0 -15 7
-15 15 0 8 7 15 15 15 8 0 15 -7 15 -15z m2298 -48 l3 -56 49 1 c56 0 62 8 25
32 -33 22 -34 62 -1 78 30 13 56 5 56 -17 0 -12 -6 -15 -19 -10 -33 10 -33
-13 -1 -30 32 -17 41 -53 17 -73 -7 -6 -47 -11 -90 -11 l-77 0 0 68 c0 37 3
71 7 75 17 16 28 -5 31 -57z m245 46 c5 -3 6 -18 3 -34 -3 -15 -1 -31 4 -34 6
-3 10 -12 10 -20 0 -25 -31 -45 -71 -45 l-39 0 0 68 c0 38 3 72 7 76 8 7 70
-1 86 -11z m-2477 -17 c16 -17 19 -36 4 -36 -5 0 -10 -11 -10 -25 0 -14 5 -25
10 -25 6 0 10 -7 10 -16 0 -10 -7 -14 -22 -12 -19 2 -24 10 -26 41 -2 20 -7
37 -13 37 -13 0 -11 18 4 35 16 18 25 18 43 1z m-866 -61 c0 -42 -3 -55 -15
-55 -12 0 -15 13 -15 55 0 42 3 55 15 55 12 0 15 -13 15 -55z m108 43 c18 -15
16 -98 -3 -98 -10 0 -15 10 -15 28 0 15 -4 33 -9 41 -14 22 -31 3 -31 -35 0
-24 -5 -34 -15 -34 -11 0 -15 13 -15 54 l0 54 38 0 c20 0 43 -5 50 -10z m110
0 c7 -7 12 -31 12 -55 l0 -43 -40 0 c-63 0 -76 46 -20 69 l25 10 -27 0 c-27 1
-35 10 -21 24 11 11 58 8 71 -5z m145 -20 l14 -33 7 33 c4 17 14 32 22 32 19
0 18 -15 -7 -88 -22 -65 -49 -84 -49 -35 0 43 -22 93 -41 93 -19 0 -29 -20
-29 -56 0 -15 -6 -24 -15 -24 -12 0 -15 13 -15 55 l0 55 50 0 c47 0 51 -2 63
-32z m287 -23 c0 -42 -3 -55 -15 -55 -12 0 -15 13 -15 55 0 42 3 55 15 55 12
0 15 -13 15 -55z m110 46 c0 -30 -22 -61 -42 -62 -18 -1 -17 -3 7 -8 53 -11
41 -71 -14 -71 -46 0 -52 11 -45 76 3 32 8 62 11 67 6 10 83 9 83 -2z m40 -46
c0 -42 -3 -55 -15 -55 -12 0 -15 13 -15 55 0 42 3 55 15 55 12 0 15 -13 15
-55z m168 36 c3 -10 -1 -12 -17 -8 -27 7 -28 -10 0 -18 15 -5 19 -14 17 -33
-2 -22 -9 -28 -35 -30 -25 -3 -33 1 -33 13 0 11 5 15 15 12 8 -4 17 -2 20 3 3
5 -4 11 -15 15 -20 6 -28 44 -13 59 12 11 56 2 61 -13z m-2958 -436 l0 -195
-390 0 -390 0 0 195 0 195 390 0 390 0 0 -195z m798 3 l-3 -193 -387 -3 -388
-2 0 195 0 195 390 0 390 0 -2 -192z m800 0 l-3 -193 -387 -3 -388 -2 0 195 0
195 390 0 390 0 -2 -192z m792 -3 l0 -195 -385 0 -385 0 0 195 0 195 385 0
385 0 0 -195z m800 0 l0 -195 -385 0 -385 0 0 195 0 195 385 0 385 0 0 -195z
m800 0 l0 -195 -385 0 -385 0 0 195 0 195 385 0 385 0 0 -195z m800 0 l0 -195
-385 0 -385 0 0 195 0 195 385 0 385 0 0 -195z m800 0 l0 -195 -387 2 -388 3
-3 193 -2 192 390 0 390 0 0 -195z m-5590 -410 l0 -195 -390 0 -390 0 0 195 0
195 390 0 390 0 0 -195z m800 0 l0 -195 -390 0 -390 0 0 195 0 195 390 0 390
0 0 -195z m800 0 l0 -195 -390 0 -390 0 0 195 0 195 390 0 390 0 0 -195z m790
0 l0 -195 -385 0 -385 0 0 195 0 195 385 0 385 0 0 -195z m800 0 l0 -195 -385
0 -385 0 0 195 0 195 385 0 385 0 0 -195z m800 0 l0 -195 -385 0 -385 0 0 195
0 195 385 0 385 0 0 -195z m800 0 l0 -195 -385 0 -385 0 0 195 0 195 385 0
385 0 0 -195z m800 0 l0 -195 -390 0 -390 0 0 195 0 195 390 0 390 0 0 -195z
m-5590 -410 l0 -195 -390 0 -390 0 0 195 0 195 390 0 390 0 0 -195z m798 -2
l2 -193 -390 0 -390 0 0 195 0 195 388 -2 387 -3 3 -192z m800 0 l2 -193 -390
0 -390 0 0 195 0 195 388 -2 387 -3 3 -192z m792 2 l0 -195 -385 0 -385 0 0
195 0 195 385 0 385 0 0 -195z m800 0 l0 -195 -385 0 -385 0 0 195 0 195 385
0 385 0 0 -195z m800 0 l0 -195 -385 0 -385 0 0 195 0 195 385 0 385 0 0 -195z
m800 0 l0 -195 -385 0 -385 0 0 195 0 195 385 0 385 0 0 -195z m800 0 l0 -195
-390 0 -390 0 0 188 c0 104 3 192 7 195 3 4 179 7 390 7 l383 0 0 -195z"/>
<path d="M550 1535 c0 -8 5 -15 10 -15 6 0 10 7 10 15 0 8 -4 15 -10 15 -5 0
-10 -7 -10 -15z"/>
<path d="M550 1475 c0 -8 7 -15 15 -15 8 0 15 7 15 15 0 8 -7 15 -15 15 -8 0
-15 -7 -15 -15z"/>
<path d="M2690 1535 c0 -8 5 -15 10 -15 6 0 10 7 10 15 0 8 -4 15 -10 15 -5 0
-10 -7 -10 -15z"/>
<path d="M2690 1475 c0 -8 7 -15 15 -15 8 0 15 7 15 15 0 8 -7 15 -15 15 -8 0
-15 -7 -15 -15z"/>
<path d="M3320 1505 c0 -46 13 -58 38 -33 17 17 15 44 -4 62 -25 26 -34 19
-34 -29z"/>
<path d="M6090 1535 c0 -8 5 -15 10 -15 6 0 10 7 10 15 0 8 -4 15 -10 15 -5 0
-10 -7 -10 -15z"/>
<path d="M6090 1475 c0 -8 7 -15 15 -15 8 0 15 7 15 15 0 8 -7 15 -15 15 -8 0
-15 -7 -15 -15z"/>
<path d="M3500 1500 c0 -5 5 -10 10 -10 6 0 10 5 10 10 0 6 -4 10 -10 10 -5 0
-10 -4 -10 -10z"/>
<path d="M3498 1423 c6 -2 18 -2 25 0 6 3 1 5 -13 5 -14 0 -19 -2 -12 -5z"/>
<path d="M440 1180 c0 -5 9 -10 20 -10 19 0 20 -2 5 -36 -17 -42 -18 -44 -7
-44 7 0 42 77 42 93 0 4 -13 7 -30 7 -16 0 -30 -4 -30 -10z"/>
<path d="M335 1151 c-4 -7 5 -11 24 -11 40 0 40 -20 1 -70 -16 -21 -30 -41
-30 -44 0 -3 20 -6 45 -6 48 0 62 17 19 22 l-26 3 22 27 c13 17 20 38 18 55
-2 23 -8 29 -35 31 -17 2 -34 -2 -38 -7z"/>
<path d="M1251 1176 c-7 -8 -11 -30 -9 -48 2 -28 7 -33 28 -33 20 0 25 5 25
25 0 18 -6 26 -23 28 -27 4 -19 22 9 22 11 0 17 5 14 10 -9 14 -31 12 -44 -4z
m29 -56 c0 -21 -15 -27 -25 -10 -7 12 2 30 16 30 5 0 9 -9 9 -20z"/>
<path d="M1135 1151 c-4 -7 5 -11 24 -11 40 0 40 -20 1 -70 -16 -21 -30 -41
-30 -44 0 -3 20 -6 45 -6 48 0 62 17 19 22 l-26 3 22 27 c13 17 20 38 18 55
-2 23 -8 29 -35 31 -17 2 -34 -2 -38 -7z"/>
<path d="M2040 1166 c0 -16 7 -26 21 -29 27 -7 19 -32 -10 -31 -11 0 -21 -3
-21 -8 0 -16 49 -8 59 10 11 21 -3 42 -26 42 -7 0 -13 5 -13 10 0 6 9 10 20
10 11 0 20 5 20 10 0 6 -11 10 -25 10 -20 0 -25 -5 -25 -24z"/>
<path d="M1930 1147 c0 -10 8 -13 25 -9 21 4 25 1 25 -20 0 -14 -11 -35 -25
-48 -38 -36 -32 -50 21 -50 27 0 43 4 39 10 -3 6 -18 10 -31 10 l-26 0 27 31
c17 21 25 41 23 58 -3 22 -8 26 -40 29 -28 2 -38 -1 -38 -11z"/>
<path d="M2851 1162 c-26 -37 -27 -52 -2 -52 11 0 21 -6 24 -12 8 -24 21 3 19
40 -4 51 -16 59 -41 24z m15 -39 c-11 -11 -17 4 -9 23 7 18 8 18 11 1 2 -10 1
-21 -2 -24z"/>
<path d="M2730 1147 c0 -10 8 -13 25 -9 21 4 25 1 25 -20 0 -14 -11 -35 -25
-48 -38 -36 -32 -50 21 -50 27 0 43 4 39 10 -3 6 -18 10 -31 10 l-26 0 27 31
c17 21 25 41 23 58 -3 22 -8 26 -40 29 -28 2 -38 -1 -38 -11z"/>
<path d="M3640 1181 c0 -6 7 -11 15 -11 21 0 19 -16 -2 -25 -16 -6 -15 -8 5
-16 29 -11 18 -32 -11 -23 -17 5 -19 3 -11 -6 7 -6 20 -10 30 -8 15 3 19 12
19 48 0 39 -3 45 -22 48 -13 2 -23 -1 -23 -7z"/>
<path d="M3530 1147 c0 -10 8 -13 25 -9 21 4 25 1 25 -20 0 -14 -11 -35 -25
-48 -38 -36 -32 -50 21 -50 27 0 43 4 39 10 -3 6 -18 10 -31 10 l-26 0 27 31
c17 21 25 41 23 58 -3 22 -8 26 -40 29 -28 2 -38 -1 -38 -11z"/>
<path d="M4435 1180 c-3 -5 3 -10 14 -10 27 0 27 -22 1 -45 -28 -26 -25 -35
13 -34 17 1 24 3 15 6 -22 5 -22 8 -2 38 9 14 14 32 10 40 -6 17 -42 20 -51 5z"/>
<path d="M4330 1147 c0 -10 8 -13 25 -9 21 4 25 1 25 -20 0 -14 -11 -35 -25
-48 -38 -36 -32 -50 21 -50 27 0 43 4 39 10 -3 6 -18 10 -31 10 l-26 0 27 31
c17 21 25 41 23 58 -3 22 -8 26 -40 29 -28 2 -38 -1 -38 -11z"/>
<path d="M5245 1175 c-17 -14 -17 -16 -2 -11 14 4 17 -1 17 -29 0 -24 -5 -35
-17 -38 -10 -3 -2 -5 17 -6 19 0 30 3 23 7 -6 4 -13 27 -15 50 -3 42 -4 43
-23 27z"/>
<path d="M5125 1151 c-4 -7 5 -11 24 -11 40 0 40 -20 1 -70 -16 -21 -30 -41
-30 -44 0 -3 20 -6 45 -6 48 0 62 17 19 22 l-26 3 22 27 c13 17 20 38 18 55
-2 23 -8 29 -35 31 -17 2 -34 -2 -38 -7z"/>
<path d="M6041 1176 c-7 -8 -11 -30 -9 -48 4 -44 43 -53 58 -14 19 51 -19 98
-49 62z m37 -38 c-4 -39 -25 -48 -34 -14 -7 29 1 46 22 46 11 0 14 -9 12 -32z"/>
<path d="M5925 1151 c-4 -7 5 -11 24 -11 40 0 40 -20 1 -70 -16 -21 -30 -41
-30 -44 0 -3 20 -6 45 -6 48 0 62 17 19 22 l-26 3 22 27 c13 17 20 38 18 55
-2 23 -8 29 -35 31 -17 2 -34 -2 -38 -7z"/>
<path d="M282 738 c-17 -17 -15 -29 3 -22 12 5 15 -3 15 -40 0 -34 -4 -46 -15
-46 -8 0 -15 -4 -15 -10 0 -5 18 -10 40 -10 22 0 40 5 40 10 0 6 -7 10 -15 10
-12 0 -15 13 -15 60 0 61 -11 75 -38 48z"/>
<path d="M375 741 c-4 -7 5 -11 24 -11 40 0 40 -20 1 -70 -16 -21 -30 -41 -30
-44 0 -3 20 -6 45 -6 48 0 62 17 19 22 l-26 3 22 27 c13 17 20 38 18 55 -2 23
-8 29 -35 31 -17 2 -34 -2 -38 -7z"/>
<path d="M485 729 c-4 -12 -2 -26 4 -32 7 -7 7 -14 0 -23 -6 -7 -9 -23 -7 -36
3 -20 9 -23 43 -23 34 0 40 3 43 24 2 13 -1 28 -6 33 -7 7 -7 16 0 28 18 29 3
50 -36 50 -26 0 -36 -5 -41 -21z m58 -14 c1 -5 -6 -11 -15 -13 -11 -2 -18 3
-18 13 0 17 30 18 33 0z m5 -68 c3 -12 -3 -17 -22 -17 -25 0 -35 18 -19 34 12
12 38 2 41 -17z"/>
<path d="M1137 732 c-20 -22 -23 -92 -5 -110 7 -7 21 -12 33 -12 29 0 45 19
45 51 0 28 -15 39 -52 39 -17 0 -18 3 -8 15 7 8 23 15 36 15 13 0 24 5 24 10
0 17 -56 11 -73 -8z m48 -77 c0 -11 -7 -21 -16 -23 -18 -3 -33 23 -23 39 10
17 39 5 39 -16z"/>
<path d="M1248 701 c-16 -27 -28 -52 -28 -55 0 -3 16 -6 35 -6 24 0 35 -5 35
-15 0 -8 5 -15 10 -15 6 0 10 6 10 14 0 8 6 17 13 20 10 5 10 7 0 12 -8 3 -13
24 -13 50 0 62 -26 60 -62 -5z m42 -11 c0 -23 -4 -30 -20 -30 -24 0 -25 4 -4
35 21 32 24 31 24 -5z"/>
<path d="M1920 736 c0 -9 8 -12 25 -8 19 3 25 0 25 -13 0 -9 -9 -19 -20 -22
-27 -7 -25 -21 3 -25 31 -4 29 -33 -3 -34 -41 0 -33 -19 8 -19 34 0 37 2 40
33 2 18 -1 32 -7 32 -8 0 -7 6 0 19 19 30 4 51 -36 51 -23 0 -35 -5 -35 -14z"/>
<path d="M2030 737 c0 -10 8 -13 25 -9 21 4 25 1 25 -20 0 -14 -11 -35 -25
-48 -38 -36 -32 -50 21 -50 27 0 43 4 39 10 -3 6 -18 10 -31 10 l-26 0 27 31
c17 21 25 41 23 58 -3 22 -8 26 -40 29 -28 2 -38 -1 -38 -11z"/>
<path d="M2738 739 c-22 -12 -24 -31 -3 -23 12 5 15 -3 15 -40 0 -34 -4 -46
-15 -46 -8 0 -15 -4 -15 -10 0 -5 21 -10 48 -10 41 1 45 2 30 14 -14 10 -18
28 -18 70 0 58 -7 66 -42 45z"/>
<path d="M2840 734 c-14 -16 -18 -93 -6 -112 9 -16 59 -15 74 0 30 30 2 85
-39 75 -15 -4 -19 -1 -17 11 2 10 15 18 31 20 15 2 27 8 27 13 0 15 -57 10
-70 -7z m55 -79 c0 -30 -39 -27 -43 3 -3 20 0 23 20 20 15 -2 23 -10 23 -23z"/>
<path d="M3577 743 c-12 -11 -8 -53 5 -53 6 0 3 -9 -8 -21 -25 -28 -8 -54 36
-54 42 0 62 27 38 51 -13 13 -14 21 -6 34 17 27 3 50 -30 50 -16 0 -32 -3 -35
-7z m53 -29 c0 -9 -7 -14 -17 -12 -25 5 -28 28 -4 28 12 0 21 -6 21 -16z m-1
-57 c13 -16 5 -27 -21 -27 -18 0 -25 20 -11 33 10 10 19 8 32 -6z"/>
<path d="M4385 707 c-32 -56 -32 -67 5 -67 20 0 30 -5 30 -15 0 -8 5 -15 10
-15 6 0 10 6 10 14 0 8 6 17 13 20 10 5 10 7 0 12 -8 3 -13 24 -13 50 0 58
-21 58 -55 1z m35 -17 c0 -23 -4 -30 -20 -30 -18 0 -18 1 -2 30 9 16 18 30 20
30 1 0 2 -13 2 -30z"/>
<path d="M5165 741 c-4 -7 5 -11 24 -11 40 0 40 -20 1 -70 -16 -21 -30 -41
-30 -44 0 -3 20 -6 45 -6 48 0 62 17 19 22 l-26 3 22 27 c13 17 20 38 18 55
-2 23 -8 29 -35 31 -17 2 -34 -2 -38 -7z"/>
<path d="M5982 738 c-17 -17 -15 -29 3 -22 12 5 15 -3 15 -40 0 -34 -4 -46
-15 -46 -8 0 -15 -4 -15 -10 0 -5 18 -10 40 -10 22 0 40 5 40 10 0 6 -7 10
-15 10 -12 0 -15 13 -15 60 0 61 -11 75 -38 48z"/>
<path d="M392 318 c-17 -17 -15 -33 3 -18 13 11 15 6 15 -39 0 -39 -4 -51 -15
-51 -8 0 -15 -4 -15 -10 0 -5 18 -10 40 -10 22 0 40 5 40 10 0 6 -7 10 -15 10
-12 0 -15 13 -15 60 0 61 -11 75 -38 48z"/>
<path d="M1192 318 c-17 -17 -15 -33 3 -18 13 11 15 6 15 -39 0 -39 -4 -51
-15 -51 -8 0 -15 -4 -15 -10 0 -5 18 -10 40 -10 22 0 40 5 40 10 0 6 -7 10
-15 10 -12 0 -15 13 -15 60 0 61 -11 75 -38 48z"/>
<path d="M1970 304 c-6 -14 -10 -34 -10 -44 0 -44 19 -70 49 -70 35 0 51 22
51 70 0 48 -16 70 -51 70 -22 0 -32 -6 -39 -26z m70 -40 c0 -35 -11 -54 -30
-54 -31 0 -40 68 -13 95 16 16 17 16 30 -1 7 -10 13 -28 13 -40z"/>
<path d="M2770 304 c-6 -14 -10 -34 -10 -44 0 -44 19 -70 49 -70 35 0 51 22
51 70 0 48 -16 70 -51 70 -22 0 -32 -6 -39 -26z m70 -40 c0 -35 -11 -54 -30
-54 -31 0 -40 68 -13 95 16 16 17 16 30 -1 7 -10 13 -28 13 -40z"/>
<path d="M3588 319 c-24 -14 -23 -28 2 -22 18 5 20 0 20 -41 0 -33 -4 -46 -14
-46 -8 0 -18 -4 -21 -10 -4 -6 12 -10 42 -10 42 1 46 2 31 14 -14 10 -18 28
-18 70 0 58 -7 66 -42 45z"/>
<path d="M4388 319 c-24 -14 -23 -28 2 -22 18 5 20 0 20 -41 0 -33 -4 -46 -14
-46 -8 0 -18 -4 -21 -10 -4 -6 12 -10 42 -10 42 1 46 2 31 14 -14 10 -18 28
-18 70 0 58 -7 66 -42 45z"/>
<path d="M5182 318 c-17 -17 -15 -33 3 -18 13 11 15 6 15 -39 0 -39 -4 -51
-15 -51 -8 0 -15 -4 -15 -10 0 -5 18 -10 40 -10 22 0 40 5 40 10 0 6 -7 10
-15 10 -12 0 -15 13 -15 60 0 61 -11 75 -38 48z"/>
<path d="M5972 318 c-7 -7 -12 -33 -12 -58 0 -50 13 -70 45 -70 32 0 45 20 45
70 0 50 -13 70 -45 70 -12 0 -26 -5 -33 -12z m56 -55 c-3 -40 -6 -48 -23 -48
-15 0 -21 8 -23 33 -5 45 3 62 28 62 19 0 21 -5 18 -47z"/>
</g>
</svg>
