<?xml version="1.0" standalone="no"?>
<!DOCTYPE svg PUBLIC "-//W3C//DTD SVG 20010904//EN"
 "http://www.w3.org/TR/2001/REC-SVG-20010904/DTD/svg10.dtd">
<svg version="1.0" xmlns="http://www.w3.org/2000/svg"
 width="191.000000pt" height="95.000000pt" viewBox="0 0 191.000000 95.000000"
 preserveAspectRatio="xMidYMid meet">

<g transform="translate(0.000000,95.000000) scale(0.100000,-0.100000)"
fill="#000000" stroke="none">
<path d="M10 500 l0 -440 943 2 942 3 3 438 2 437 -945 0 -945 0 0 -440z m640
215 c0 -130 -4 -205 -10 -205 -6 0 -10 73 -10 198 0 175 3 212 17 212 2 0 3
-92 3 -205z m630 -6 c0 -170 -2 -199 -15 -199 -13 0 -15 29 -15 198 0 109 3
202 6 205 19 19 24 -23 24 -204z m-804 86 c4 -8 -1 -26 -10 -40 -14 -22 -15
-25 -1 -25 8 0 15 -4 15 -10 0 -5 -16 -10 -35 -10 -41 0 -42 3 -15 37 24 30
26 47 5 39 -9 -3 -15 0 -15 9 0 20 49 20 56 0z m614 -19 c0 -19 3 -41 6 -50 5
-13 -1 -16 -25 -16 -17 0 -31 5 -31 10 0 6 5 10 10 10 15 0 12 47 -2 53 -10 4
-9 8 2 16 27 20 40 12 40 -23z m634 12 c17 -28 -4 -73 -34 -73 -21 0 -26 5
-28 33 -2 19 -1 41 2 49 8 19 46 13 60 -9z m-1474 -58 c0 -47 3 -60 15 -60 8
0 15 -7 15 -15 0 -11 -12 -15 -50 -15 -50 0 -69 17 -30 27 16 4 20 14 20 45 0
31 -3 39 -15 35 -8 -4 -17 -1 -21 5 -8 13 23 38 48 38 15 0 18 -9 18 -60z
m138 48 c15 -15 16 -92 2 -119 -13 -24 -62 -25 -81 -2 -8 9 -14 35 -14 58 0
23 6 49 14 58 16 20 62 22 79 5z m482 -48 c0 -47 3 -60 15 -60 8 0 15 -7 15
-15 0 -11 -12 -15 -50 -15 -50 0 -69 17 -30 27 16 4 20 14 20 45 0 31 -3 39
-15 35 -8 -4 -17 -1 -21 5 -8 13 23 38 48 38 15 0 18 -9 18 -60z m138 48 c15
-15 16 -92 2 -119 -13 -24 -62 -25 -81 -2 -8 9 -14 35 -14 58 0 23 6 49 14 58
16 20 62 22 79 5z m492 -48 c0 -33 4 -60 10 -60 6 0 10 -7 10 -15 0 -11 -12
-15 -45 -15 -33 0 -45 4 -45 15 0 8 7 15 15 15 11 0 15 11 15 41 0 32 -3 40
-15 35 -18 -7 -20 15 -3 32 7 7 22 12 35 12 21 0 23 -4 23 -60z m140 34 c25
-64 0 -124 -50 -124 -35 0 -50 23 -50 75 0 55 15 75 56 75 28 0 36 -5 44 -26z
m-1010 -474 l0 -200 -300 0 -300 0 0 200 0 200 300 0 300 0 0 -200z m620 0 l0
-200 -300 0 -300 0 0 200 0 200 300 0 300 0 0 -200z m620 0 l0 -200 -295 0
-295 0 0 200 0 200 295 0 295 0 0 -200z"/>
<path d="M1680 760 c0 -16 5 -30 10 -30 6 0 10 14 10 30 0 17 -4 30 -10 30 -5
0 -10 -13 -10 -30z"/>
<path d="M334 746 c-9 -22 0 -69 13 -73 15 -5 27 38 18 66 -7 24 -23 27 -31 7z"/>
<path d="M954 746 c-9 -22 0 -69 13 -73 15 -5 27 38 18 66 -7 24 -23 27 -31 7z"/>
<path d="M1577 738 c-8 -30 2 -70 17 -65 18 6 20 87 3 87 -8 0 -17 -10 -20
-22z"/>
<path d="M290 345 c-11 -13 -8 -14 19 -9 26 6 31 4 31 -14 0 -12 -9 -22 -22
-26 l-23 -6 25 -13 c37 -18 32 -42 -8 -42 -17 0 -31 -4 -29 -10 5 -15 56 -18
73 -4 16 13 19 59 4 59 -6 0 -5 10 2 25 8 19 8 28 -2 40 -16 19 -54 19 -70 0z"/>
<path d="M916 344 c-19 -19 -22 -104 -4 -122 20 -20 56 -14 74 13 19 29 14
102 -8 116 -20 13 -45 11 -62 -7z m55 -25 c6 -12 8 -36 4 -56 -5 -28 -10 -34
-28 -31 -16 2 -23 11 -25 32 -8 65 24 101 49 55z"/>
<path d="M1537 353 c-4 -3 -7 -21 -7 -40 0 -30 3 -33 29 -33 29 0 42 -14 34
-37 -3 -7 -18 -13 -34 -13 -16 0 -29 -4 -29 -10 0 -16 57 -12 74 6 31 31 13
74 -31 74 -16 0 -23 6 -23 20 0 16 7 20 30 20 17 0 30 5 30 10 0 11 -63 14
-73 3z"/>
</g>
</svg>
