<svg version="1.1" viewBox="0.0 0.0 96.0 49.92125984251968" fill="none" stroke="none" stroke-linecap="square" stroke-miterlimit="10" xmlns:xlink="http://www.w3.org/1999/xlink" xmlns="http://www.w3.org/2000/svg"><clipPath id="p.0"><path d="m0 0l96.0 0l0 49.92126l-96.0 0l0 -49.92126z" clip-rule="nonzero"/></clipPath><g clip-path="url(#p.0)"><path fill="#000000" fill-opacity="0.0" d="m0 0l96.0 0l0 49.92126l-96.0 0z" fill-rule="evenodd"/><path shape-rendering="crispEdges" fill="#000000" d="m16.267586 -3.648294E-5l21.154854 0l0 26.24147l-21.154854 0l0 -26.24147z" fill-rule="nonzero"/><path shape-rendering="crispEdges" fill="#000000" d="m37.42244 -3.648294E-5l21.154858 0l0 26.24147l-21.154858 0l0 -26.24147z" fill-rule="nonzero"/><path shape-rendering="crispEdges" fill="#000000" d="m58.577297 -3.648294E-5l21.154858 0l0 26.24147l-21.154858 0l0 -26.24147z" fill-rule="nonzero"/><path stroke="#000000" stroke-width="1.0" stroke-linecap="butt" d="m16.267586 -0.49872413l0 50.918636" fill-rule="nonzero"/><path stroke="#ffffff" stroke-width="1.0" stroke-linecap="butt" d="m37.42244 -0.49872413l0 26.24147" fill-rule="nonzero"/><path stroke="#000000" stroke-width="1.0" stroke-linecap="butt" d="m37.42244 25.742746l0 24.677164" fill-rule="nonzero"/><path stroke="#ffffff" stroke-width="1.0" stroke-linecap="butt" d="m58.577297 -0.49872413l0 26.24147" fill-rule="nonzero"/><path stroke="#000000" stroke-width="1.0" stroke-linecap="butt" d="m58.577297 25.742746l0 24.677164" fill-rule="nonzero"/><path stroke="#000000" stroke-width="1.0" stroke-linecap="butt" d="m79.732155 -0.49872413l0 50.918636" fill-rule="nonzero"/><path stroke="#000000" stroke-width="1.0" stroke-linecap="butt" d="m15.768898 -3.648294E-5l64.461945 0" fill-rule="nonzero"/><path stroke="#000000" stroke-width="1.0" stroke-linecap="butt" d="m15.768898 26.241434l64.461945 0" fill-rule="nonzero"/><path stroke="#000000" stroke-width="1.0" stroke-linecap="butt" d="m15.768898 49.921223l64.461945 0" fill-rule="nonzero"/><path fill="#ffffff" d="m19.728504 18.8807l0 -10.71875q-0.015625 0.015625 -0.359375 0.09375q-0.34375 0.078125 -0.78125 0.15625q-0.421875 0.078125 -0.765625 0.15625q-0.328125 0.0625 -0.34375 0.0625l0 -1.2968755q0.265625 -0.0625 0.625 -0.171875q0.359375 -0.125 0.734375 -0.28125q0.375 -0.15625 0.71875 -0.390625q0.34375 -0.25 0.59375 -0.5625l1.296875 0l0 12.953125l-1.71875 0zm7.742264 0.140625q-1.09375 0 -1.8125 -0.484375q-0.71875 -0.5 -1.0625 -1.359375q-0.34375 -0.875 -0.34375 -1.984375l0 -5.578125q0 -1.140625 0.328125 -1.9843755q0.34375 -0.859375 1.0625 -1.34375q0.71875 -0.484375 1.828125 -0.484375q1.125 0 1.828125 0.484375q0.703125 0.484375 1.03125 1.34375q0.34375 0.8437505 0.34375 1.9843755l0 5.578125q0 1.125 -0.34375 2.0q-0.34375 0.859375 -1.046875 1.34375q-0.703125 0.484375 -1.8125 0.484375zm0 -1.40625q0.609375 0 0.921875 -0.34375q0.3125 -0.359375 0.421875 -0.90625q0.125 -0.5625 0.125 -1.140625l0 -5.625q0 -0.625 -0.109375 -1.171875q-0.109375 -0.5625005 -0.421875 -0.8906255q-0.3125 -0.34375 -0.9375 -0.34375q-0.625 0 -0.953125 0.34375q-0.3125 0.328125 -0.421875 0.8906255q-0.109375 0.546875 -0.109375 1.171875l0 5.625q0 0.578125 0.109375 1.140625q0.125 0.546875 0.453125 0.90625q0.328125 0.34375 0.921875 0.34375z" fill-rule="nonzero"/><path fill="#ffffff" d="m32.03966 12.880699l0 -0.8125l2.1875 -3.421875q0.25 -0.375 0.453125 -0.7031255q0.21875 -0.34375 0.34375 -0.703125q0.140625 -0.375 0.140625 -0.84375q0 -0.609375 -0.203125 -0.9375q-0.1875 -0.34375 -0.65625 -0.34375q-0.40625 0 -0.640625 0.21875q-0.21875 0.21875 -0.3125 0.59375q-0.078125 0.359375 -0.078125 0.765625l0 0.296875l-1.140625 0l0 -0.296875q0 -0.78125 0.203125 -1.34375q0.21875 -0.5625 0.671875 -0.859375q0.46875 -0.3125 1.234375 -0.3125q1.046875 0 1.546875 0.59375q0.515625 0.59375 0.515625 1.625q0 0.5625 -0.140625 0.984375q-0.125 0.40625 -0.34375 0.7656255q-0.203125 0.359375 -0.453125 0.75l-1.984375 3.03125l2.71875 0l0 0.953125l-4.0625 0z" fill-rule="nonzero"/><path fill="#ffffff" d="m41.320267 18.8807l0 -10.71875q-0.015625 0.015625 -0.359375 0.09375q-0.34375 0.078125 -0.78125 0.15625q-0.421875 0.078125 -0.765625 0.15625q-0.328125 0.0625 -0.34375 0.0625l0 -1.2968755q0.265625 -0.0625 0.625 -0.171875q0.359375 -0.125 0.734375 -0.28125q0.375 -0.15625 0.71875 -0.390625q0.34375 -0.25 0.59375 -0.5625l1.296875 0l0 12.953125l-1.71875 0zm7.742264 0.140625q-1.09375 0 -1.8125 -0.484375q-0.71875 -0.5 -1.0625 -1.359375q-0.34375 -0.875 -0.34375 -1.984375l0 -5.578125q0 -1.140625 0.328125 -1.9843755q0.34375 -0.859375 1.0625 -1.34375q0.71875 -0.484375 1.828125 -0.484375q1.125 0 1.828125 0.484375q0.703125 0.484375 1.03125 1.34375q0.34375 0.8437505 0.34375 1.9843755l0 5.578125q0 1.125 -0.34375 2.0q-0.34375 0.859375 -1.046875 1.34375q-0.703125 0.484375 -1.8125 0.484375zm0 -1.40625q0.609375 0 0.921875 -0.34375q0.3125 -0.359375 0.421875 -0.90625q0.125 -0.5625 0.125 -1.140625l0 -5.625q0 -0.625 -0.109375 -1.171875q-0.109375 -0.5625005 -0.421875 -0.8906255q-0.3125 -0.34375 -0.9375 -0.34375q-0.625 0 -0.953125 0.34375q-0.3125 0.328125 -0.421875 0.8906255q-0.109375 0.546875 -0.109375 1.171875l0 5.625q0 0.578125 0.109375 1.140625q0.125 0.546875 0.453125 0.90625q0.328125 0.34375 0.921875 0.34375z" fill-rule="nonzero"/><path fill="#ffffff" d="m55.022045 12.880699l0 -7.1406255q-0.015625 0.015625 -0.25 0.078125q-0.21875 0.046875 -0.515625 0.09375q-0.28125 0.046875 -0.515625 0.09375q-0.21875 0.046875 -0.234375 0.046875l0 -0.859375q0.1875 -0.046875 0.421875 -0.125q0.25 -0.078125 0.5 -0.171875q0.25 -0.109375 0.46875 -0.265625q0.234375 -0.171875 0.390625 -0.375l0.875 0l0 8.625l-1.140625 0z" fill-rule="nonzero"/><path fill="#ffffff" d="m61.830414 18.8807l0 -10.71875q-0.015625 0.015625 -0.359375 0.09375q-0.34375 0.078125 -0.78125 0.15625q-0.421875 0.078125 -0.765625 0.15625q-0.328125 0.0625 -0.34375 0.0625l0 -1.2968755q0.265625 -0.0625 0.625 -0.171875q0.359375 -0.125 0.734375 -0.28125q0.375 -0.15625 0.71875 -0.390625q0.34375 -0.25 0.59375 -0.5625l1.296875 0l0 12.953125l-1.71875 0zm7.742264 0.140625q-1.09375 0 -1.8125 -0.484375q-0.71875 -0.5 -1.0625 -1.359375q-0.34375 -0.875 -0.34375 -1.984375l0 -5.578125q0 -1.140625 0.328125 -1.9843755q0.34375 -0.859375 1.0625 -1.34375q0.71875 -0.484375 1.828125 -0.484375q1.125 0 1.828125 0.484375q0.703125 0.484375 1.03125 1.34375q0.34375 0.8437505 0.34375 1.9843755l0 5.578125q0 1.125 -0.34375 2.0q-0.34375 0.859375 -1.046875 1.34375q-0.703125 0.484375 -1.8125 0.484375zm0 -1.40625q0.609375 0 0.921875 -0.34375q0.3125 -0.359375 0.421875 -0.90625q0.125 -0.5625 0.125 -1.140625l0 -5.625q0 -0.625 -0.109375 -1.171875q-0.109375 -0.5625005 -0.421875 -0.8906255q-0.3125 -0.34375 -0.9375 -0.34375q-0.625 0 -0.953125 0.34375q-0.3125 0.328125 -0.421875 0.8906255q-0.109375 0.546875 -0.109375 1.171875l0 5.625q0 0.578125 0.109375 1.140625q0.125 0.546875 0.453125 0.90625q0.328125 0.34375 0.921875 0.34375z" fill-rule="nonzero"/><path fill="#ffffff" d="m76.469696 12.974449q-0.734375 0 -1.21875 -0.328125q-0.46875 -0.328125 -0.703125 -0.90625q-0.21875 -0.578125 -0.21875 -1.3125l0 -3.7187505q0 -0.75 0.21875 -1.3125q0.21875 -0.578125 0.6875 -0.890625q0.484375 -0.328125 1.234375 -0.328125q0.734375 0 1.203125 0.328125q0.46875 0.3125 0.6875 0.890625q0.234375 0.5625 0.234375 1.3125l0 3.7187505q0 0.75 -0.234375 1.328125q-0.21875 0.578125 -0.6875 0.90625q-0.46875 0.3125 -1.203125 0.3125zm0 -0.9375q0.40625 0 0.609375 -0.234375q0.203125 -0.234375 0.28125 -0.59375q0.078125 -0.375 0.078125 -0.765625l0 -3.7500005q0 -0.40625 -0.078125 -0.765625q-0.0625 -0.375 -0.28125 -0.59375q-0.203125 -0.234375 -0.609375 -0.234375q-0.421875 0 -0.640625 0.234375q-0.203125 0.21875 -0.28125 0.59375q-0.078125 0.359375 -0.078125 0.765625l0 3.7500005q0 0.390625 0.078125 0.765625q0.078125 0.359375 0.296875 0.59375q0.21875 0.234375 0.625 0.234375z" fill-rule="nonzero"/><path fill="#000000" d="m26.838139 43.00633q-0.875 0 -1.46875 -0.328125q-0.578125 -0.34375 -0.875 -0.96875q-0.296875 -0.625 -0.296875 -1.484375l0 -0.359375l1.421875 0q0 0.0625 0 0.125q0 0.046875 0 0.125q0 0.46875 0.09375 0.859375q0.109375 0.390625 0.359375 0.625q0.265625 0.21875 0.765625 0.21875q0.515625 0 0.78125 -0.25q0.265625 -0.25 0.359375 -0.703125q0.09375 -0.453125 0.09375 -1.03125q0 -0.859375 -0.3125 -1.390625q-0.3125 -0.546875 -1.09375 -0.59375q-0.046875 -0.015625 -0.109375 -0.015625q-0.046875 0 -0.09375 0l0 -1.4375q0.046875 0 0.09375 0q0.0625 0 0.09375 0q0.765625 -0.015625 1.09375 -0.390625q0.328125 -0.375 0.328125 -1.234375q0 -0.734375 -0.25 -1.171875q-0.234375 -0.453125 -0.96875 -0.453125q-0.734375 0 -0.984375 0.5q-0.234375 0.484375 -0.25 1.234375q0 0.0625 0 0.125q0 0.046875 0 0.109375l-1.421875 0l0 -0.359375q0 -0.875 0.296875 -1.484375q0.296875 -0.609375 0.890625 -0.9375q0.59375 -0.34375 1.46875 -0.34375q0.890625 0 1.46875 0.34375q0.59375 0.328125 0.890625 0.953125q0.296875 0.609375 0.296875 1.484375q0 0.96875 -0.421875 1.5625q-0.421875 0.578125 -1.125 0.796875q0.484375 0.140625 0.828125 0.5q0.34375 0.359375 0.53125 0.921875q0.1875 0.546875 0.1875 1.28125q0 0.953125 -0.28125 1.671875q-0.265625 0.703125 -0.859375 1.109375q-0.578125 0.390625 -1.53125 0.390625z" fill-rule="nonzero"/><path fill="#000000" d="m48.00769 43.00633q-0.921875 0 -1.515625 -0.40625q-0.59375 -0.421875 -0.890625 -1.140625q-0.28125 -0.71875 -0.28125 -1.640625l0 -4.65625q0 -0.9375 0.28125 -1.65625q0.28125 -0.71875 0.875 -1.109375q0.59375 -0.40625 1.53125 -0.40625q0.9375 0 1.515625 0.40625q0.59375 0.390625 0.875 1.109375q0.28125 0.71875 0.28125 1.65625l0 4.65625q0 0.9375 -0.296875 1.65625q-0.28125 0.71875 -0.875 1.125q-0.578125 0.40625 -1.5 0.40625zm0 -1.171875q0.5 0 0.765625 -0.296875q0.265625 -0.296875 0.359375 -0.75q0.09375 -0.46875 0.09375 -0.953125l0 -4.6875q0 -0.515625 -0.09375 -0.96875q-0.09375 -0.46875 -0.359375 -0.75q-0.25 -0.28125 -0.765625 -0.28125q-0.515625 0 -0.78125 0.28125q-0.265625 0.28125 -0.359375 0.75q-0.09375 0.453125 -0.09375 0.96875l0 4.6875q0 0.484375 0.09375 0.953125q0.09375 0.453125 0.359375 0.75q0.28125 0.296875 0.78125 0.296875z" fill-rule="nonzero"/><path fill="#000000" d="m69.21702 42.990704q-0.96875 0 -1.546875 -0.375q-0.5625 -0.375 -0.8125 -1.078125q-0.25 -0.703125 -0.25 -1.6875l1.421875 0q0 0.484375 0.078125 0.953125q0.09375 0.453125 0.34375 0.75q0.265625 0.296875 0.796875 0.296875q0.59375 0 0.84375 -0.328125q0.25 -0.34375 0.3125 -0.921875q0.0625 -0.578125 0.0625 -1.3125q0 -0.734375 -0.078125 -1.25q-0.078125 -0.515625 -0.328125 -0.78125q-0.25 -0.28125 -0.796875 -0.28125q-0.4375 0 -0.75 0.28125q-0.3125 0.265625 -0.453125 0.609375l-1.21875 0l0 -5.78125l4.65625 0l0 1.421875l-3.359375 0l-0.09375 2.984375q0.265625 -0.265625 0.65625 -0.421875q0.40625 -0.171875 0.90625 -0.171875q0.875 0 1.375 0.421875q0.5 0.40625 0.703125 1.125q0.21875 0.71875 0.21875 1.65625q0 0.828125 -0.125 1.546875q-0.125 0.703125 -0.421875 1.234375q-0.296875 0.515625 -0.828125 0.8125q-0.515625 0.296875 -1.3125 0.296875z" fill-rule="nonzero"/></g></svg>