<svg version="1.1" viewBox="0.0 0.0 384.0 192.0" fill="none" stroke="none" stroke-linecap="square" stroke-miterlimit="10" xmlns:xlink="http://www.w3.org/1999/xlink" xmlns="http://www.w3.org/2000/svg"><clipPath id="p.0"><path d="m0 0l384.0 0l0 192.0l-384.0 0l0 -192.0z" clip-rule="nonzero"/></clipPath><g clip-path="url(#p.0)"><path fill="#000000" fill-opacity="0.0" d="m0 0l384.0 0l0 192.0l-384.0 0z" fill-rule="evenodd"/><path fill="#343434" d="m0 0l384.0 0l0 192.0l-384.0 0z" fill-rule="evenodd"/><path fill="#000000" fill-opacity="0.0" d="m91.95276 0l200.09448 0l0 198.77165l-200.09448 0z" fill-rule="evenodd"/><path fill="#ffffff" d="m238.0211 13.58l0 8.03125l1.484375 0q0.53125 0 0.75 0.203125q0.234375 0.203125 0.234375 0.53125q0 0.328125 -0.234375 0.53125q-0.21875 0.203125 -0.75 0.203125l-4.421875 0q-0.53125 0 -0.765625 -0.203125q-0.21875 -0.203125 -0.21875 -0.53125q0 -0.328125 0.21875 -0.53125q0.234375 -0.203125 0.765625 -0.203125l1.46875 0l0 -6.109375l-1.296875 0.328125q-0.328125 0.09375 -0.484375 0.09375q-0.265625 0 -0.484375 -0.21875q-0.203125 -0.21875 -0.203125 -0.546875q0 -0.296875 0.15625 -0.453125q0.15625 -0.171875 0.625 -0.3125l3.15625 -0.8125zm8.795181 0l0 8.03125l1.484375 0q0.53125 0 0.75 0.203125q0.234375 0.203125 0.234375 0.53125q0 0.328125 -0.234375 0.53125q-0.21875 0.203125 -0.75 0.203125l-4.421875 0q-0.53125 0 -0.765625 -0.203125q-0.21875 -0.203125 -0.21875 -0.53125q0 -0.328125 0.21875 -0.53125q0.234375 -0.203125 0.765625 -0.203125l1.46875 0l0 -6.109375l-1.296875 0.328125q-0.328125 0.09375 -0.484375 0.09375q-0.265625 0 -0.484375 -0.21875q-0.203125 -0.21875 -0.203125 -0.546875q0 -0.296875 0.15625 -0.453125q0.15625 -0.171875 0.625 -0.3125l3.15625 -0.8125z" fill-rule="nonzero"/><path fill="#00ff00" d="m255.61147 13.58l0 8.03125l1.4843597 0q0.53125 0 0.75 0.203125q0.234375 0.203125 0.234375 0.53125q0 0.328125 -0.234375 0.53125q-0.21875 0.203125 -0.75 0.203125l-4.4218597 0q-0.53125 0 -0.765625 -0.203125q-0.21875 -0.203125 -0.21875 -0.53125q0 -0.328125 0.21875 -0.53125q0.234375 -0.203125 0.765625 -0.203125l1.46875 0l0 -6.109375l-1.296875 0.328125q-0.328125 0.09375 -0.484375 0.09375q-0.265625 0 -0.484375 -0.21875q-0.203125 -0.21875 -0.203125 -0.546875q0 -0.296875 0.15625 -0.453125q0.15625 -0.171875 0.625 -0.3125l3.15625 -0.8125z" fill-rule="nonzero"/><path fill="#ffffff" d="m106.09338 32.46l0 8.03125l1.484375 0q0.53125 0 0.75 0.203125q0.234375 0.203125 0.234375 0.53125q0 0.328125 -0.234375 0.53125q-0.21875 0.203125 -0.75 0.203125l-4.421875 0q-0.53125 0 -0.765625 -0.203125q-0.21875 -0.203125 -0.21875 -0.53125q0 -0.328125 0.21875 -0.53125q0.234375 -0.203125 0.765625 -0.203125l1.46875 0l0 -6.109375l-1.296875 0.328125q-0.328125 0.09375 -0.484375 0.09375q-0.265625 0 -0.484375 -0.21875q-0.203125 -0.21875 -0.203125 -0.546875q0 -0.296875 0.15625 -0.453125q0.15625 -0.171875 0.625 -0.3125l3.15625 -0.8125zm8.795181 0l0 8.03125l1.484375 0q0.53125 0 0.75 0.203125q0.234375 0.203125 0.234375 0.53125q0 0.328125 -0.234375 0.53125q-0.21875 0.203125 -0.75 0.203125l-4.421875 0q-0.53125 0 -0.765625 -0.203125q-0.21875 -0.203125 -0.21875 -0.53125q0 -0.328125 0.21875 -0.53125q0.234375 -0.203125 0.765625 -0.203125l1.46875 0l0 -6.109375l-1.296875 0.328125q-0.328125 0.09375 -0.484375 0.09375q-0.265625 0 -0.484375 -0.21875q-0.203125 -0.21875 -0.203125 -0.546875q0 -0.296875 0.15625 -0.453125q0.15625 -0.171875 0.625 -0.3125l3.15625 -0.8125zm8.795181 0l0 8.03125l1.484375 0q0.53125 0 0.75 0.203125q0.234375 0.203125 0.234375 0.53125q0 0.328125 -0.234375 0.53125q-0.21875 0.203125 -0.75 0.203125l-4.421875 0q-0.53125 0 -0.765625 -0.203125q-0.21875 -0.203125 -0.21875 -0.53125q0 -0.328125 0.21875 -0.53125q0.234375 -0.203125 0.765625 -0.203125l1.46875 0l0 -6.109375l-1.296875 0.328125q-0.328125 0.09375 -0.484375 0.09375q-0.265625 0 -0.484375 -0.21875q-0.203125 -0.21875 -0.203125 -0.546875q0 -0.296875 0.15625 -0.453125q0.15625 -0.171875 0.625 -0.3125l3.15625 -0.8125zm8.795181 0l0 8.03125l1.484375 0q0.53125 0 0.75 0.203125q0.234375 0.203125 0.234375 0.53125q0 0.328125 -0.234375 0.53125q-0.21875 0.203125 -0.75 0.203125l-4.421875 0q-0.53125 0 -0.765625 -0.203125q-0.21875 -0.203125 -0.21875 -0.53125q0 -0.328125 0.21875 -0.53125q0.234375 -0.203125 0.765625 -0.203125l1.46875 0l0 -6.109375l-1.296875 0.328125q-0.328125 0.09375 -0.484375 0.09375q-0.265625 0 -0.484375 -0.21875q-0.203125 -0.21875 -0.203125 -0.546875q0 -0.296875 0.15625 -0.453125q0.15625 -0.171875 0.625 -0.3125l3.15625 -0.8125zm11.248306 4.046875l0 1.625q0 1.421875 -0.828125 2.734375q-0.8125 1.3125 -2.359375 1.3125q-0.890625 0 -1.5 -0.390625q-0.609375 -0.390625 -1.15625 -1.4375q-0.546875 -1.046875 -0.546875 -2.21875l0 -1.625q0 -1.421875 0.8125 -2.734375q0.828125 -1.3125 2.375 -1.3125q0.875 0 1.484375 0.390625q0.609375 0.390625 1.15625 1.4375q0.5625 1.046875 0.5625 2.21875zm-1.46875 0q0 -1.1875 -0.671875 -2.078125q-0.375 -0.5 -1.0625 -0.5q-0.65625 0 -1.078125 0.546875q-0.640625 0.828125 -0.640625 2.03125l0 1.625q0 1.1875 0.671875 2.078125q0.375 0.5 1.0625 0.5q0.65625 0 1.078125 -0.546875q0.640625 -0.828125 0.640625 -2.03125l0 -1.625zm10.263931 0l0 1.625q0 1.421875 -0.828125 2.734375q-0.8125 1.3125 -2.359375 1.3125q-0.890625 0 -1.5 -0.390625q-0.609375 -0.390625 -1.15625 -1.4375q-0.546875 -1.046875 -0.546875 -2.21875l0 -1.625q0 -1.421875 0.8125 -2.734375q0.828125 -1.3125 2.375 -1.3125q0.875 0 1.484375 0.390625q0.609375 0.390625 1.15625 1.4375q0.5625 1.046875 0.5625 2.21875zm-1.46875 0q0 -1.1875 -0.671875 -2.078125q-0.375 -0.5 -1.0625 -0.5q-0.65625 0 -1.078125 0.546875q-0.640625 0.828125 -0.640625 2.03125l0 1.625q0 1.1875 0.671875 2.078125q0.375 0.5 1.0625 0.5q0.65625 0 1.078125 -0.546875q0.640625 -0.828125 0.640625 -2.03125l0 -1.625zm10.263931 0l0 1.625q0 1.421875 -0.828125 2.734375q-0.8125 1.3125 -2.359375 1.3125q-0.890625 0 -1.5 -0.390625q-0.609375 -0.390625 -1.15625 -1.4375q-0.546875 -1.046875 -0.546875 -2.21875l0 -1.625q0 -1.421875 0.8125 -2.734375q0.828125 -1.3125 2.375 -1.3125q0.875 0 1.484375 0.390625q0.609375 0.390625 1.15625 1.4375q0.5625 1.046875 0.5625 2.21875zm-1.46875 0q0 -1.1875 -0.671875 -2.078125q-0.375 -0.5 -1.0625 -0.5q-0.65625 0 -1.078125 0.546875q-0.640625 0.828125 -0.640625 2.03125l0 1.625q0 1.1875 0.671875 2.078125q0.375 0.5 1.0625 0.5q0.65625 0 1.078125 -0.546875q0.640625 -0.828125 0.640625 -2.03125l0 -1.625z" fill-rule="nonzero"/><path fill="#ffffff" d="m168.0034 38.069374q0 1.359375 -0.453125 2.765625q-0.328125 1.03125 -1.03125 2.296875q-0.515625 0.90625 -0.765625 1.109375q-0.234375 0.21875 -0.53125 0.21875q-0.34375 0 -0.578125 -0.234375q-0.234375 -0.234375 -0.234375 -0.5625q0 -0.234375 0.1875 -0.53125q0.84375 -1.390625 1.234375 -2.59375q0.390625 -1.21875 0.390625 -2.46875q0 -1.25 -0.390625 -2.453125q-0.390625 -1.21875 -1.234375 -2.59375q-0.1875 -0.3125 -0.1875 -0.546875q0 -0.328125 0.234375 -0.5625q0.234375 -0.234375 0.578125 -0.234375q0.296875 0 0.515625 0.1875q0.3125 0.265625 0.828125 1.234375q0.734375 1.375 1.015625 2.265625q0.421875 1.390625 0.421875 2.703125z" fill-rule="nonzero"/><path fill="#ffffff" d="m177.26122 32.46l0 8.03125l1.484375 0q0.53125 0 0.75 0.203125q0.234375 0.203125 0.234375 0.53125q0 0.328125 -0.234375 0.53125q-0.21875 0.203125 -0.75 0.203125l-4.421875 0q-0.53125 0 -0.765625 -0.203125q-0.21875 -0.203125 -0.21875 -0.53125q0 -0.328125 0.21875 -0.53125q0.234375 -0.203125 0.765625 -0.203125l1.46875 0l0 -6.109375l-1.296875 0.328125q-0.328125 0.09375 -0.484375 0.09375q-0.265625 0 -0.484375 -0.21875q-0.203125 -0.21875 -0.203125 -0.546875q0 -0.296875 0.15625 -0.453125q0.15625 -0.171875 0.625 -0.3125l3.15625 -0.8125zm8.795181 0l0 8.03125l1.484375 0q0.53125 0 0.75 0.203125q0.234375 0.203125 0.234375 0.53125q0 0.328125 -0.234375 0.53125q-0.21875 0.203125 -0.75 0.203125l-4.421875 0q-0.53125 0 -0.765625 -0.203125q-0.21875 -0.203125 -0.21875 -0.53125q0 -0.328125 0.21875 -0.53125q0.234375 -0.203125 0.765625 -0.203125l1.46875 0l0 -6.109375l-1.296875 0.328125q-0.328125 0.09375 -0.484375 0.09375q-0.265625 0 -0.484375 -0.21875q-0.203125 -0.21875 -0.203125 -0.546875q0 -0.296875 0.15625 -0.453125q0.15625 -0.171875 0.625 -0.3125l3.15625 -0.8125zm8.795181 0l0 8.03125l1.484375 0q0.53125 0 0.75 0.203125q0.234375 0.203125 0.234375 0.53125q0 0.328125 -0.234375 0.53125q-0.21875 0.203125 -0.75 0.203125l-4.421875 0q-0.53125 0 -0.765625 -0.203125q-0.21875 -0.203125 -0.21875 -0.53125q0 -0.328125 0.21875 -0.53125q0.234375 -0.203125 0.765625 -0.203125l1.46875 0l0 -6.109375l-1.296875 0.328125q-0.328125 0.09375 -0.484375 0.09375q-0.265625 0 -0.484375 -0.21875q-0.203125 -0.21875 -0.203125 -0.546875q0 -0.296875 0.15625 -0.453125q0.15625 -0.171875 0.625 -0.3125l3.15625 -0.8125zm11.248306 4.046875l0 1.625q0 1.421875 -0.828125 2.734375q-0.8125 1.3125 -2.359375 1.3125q-0.890625 0 -1.5 -0.390625q-0.609375 -0.390625 -1.15625 -1.4375q-0.546875 -1.046875 -0.546875 -2.21875l0 -1.625q0 -1.421875 0.8125 -2.734375q0.828125 -1.3125 2.375 -1.3125q0.875 0 1.484375 0.390625q0.609375 0.390625 1.15625 1.4375q0.5625 1.046875 0.5625 2.21875zm-1.46875 0q0 -1.1875 -0.671875 -2.078125q-0.375 -0.5 -1.0625 -0.5q-0.65625 0 -1.078125 0.546875q-0.640625 0.828125 -0.640625 2.03125l0 1.625q0 1.1875 0.671875 2.078125q0.375 0.5 1.0625 0.5q0.65625 0 1.078125 -0.546875q0.640625 -0.828125 0.640625 -2.03125l0 -1.625zm10.263931 0l0 1.625q0 1.421875 -0.828125 2.734375q-0.8125 1.3125 -2.359375 1.3125q-0.890625 0 -1.5 -0.390625q-0.609375 -0.390625 -1.15625 -1.4375q-0.546875 -1.046875 -0.546875 -2.21875l0 -1.625q0 -1.421875 0.8125 -2.734375q0.828125 -1.3125 2.375 -1.3125q0.875 0 1.484375 0.390625q0.609375 0.390625 1.15625 1.4375q0.5625 1.046875 0.5625 2.21875zm-1.46875 0q0 -1.1875 -0.671875 -2.078125q-0.375 -0.5 -1.0625 -0.5q-0.65625 0 -1.078125 0.546875q-0.640625 0.828125 -0.640625 2.03125l0 1.625q0 1.1875 0.671875 2.078125q0.375 0.5 1.0625 0.5q0.65625 0 1.078125 -0.546875q0.640625 -0.828125 0.640625 -2.03125l0 -1.625zm10.263931 0l0 1.625q0 1.421875 -0.828125 2.734375q-0.8125 1.3125 -2.359375 1.3125q-0.890625 0 -1.5 -0.390625q-0.609375 -0.390625 -1.15625 -1.4375q-0.546875 -1.046875 -0.546875 -2.21875l0 -1.625q0 -1.421875 0.8125 -2.734375q0.828125 -1.3125 2.375 -1.3125q0.875 0 1.484375 0.390625q0.609375 0.390625 1.15625 1.4375q0.5625 1.046875 0.5625 2.21875zm-1.46875 0q0 -1.1875 -0.671875 -2.078125q-0.375 -0.5 -1.0625 -0.5q-0.65625 0 -1.078125 0.546875q-0.640625 0.828125 -0.640625 2.03125l0 1.625q0 1.1875 0.671875 2.078125q0.375 0.5 1.0625 0.5q0.65625 0 1.078125 -0.546875q0.640625 -0.828125 0.640625 -2.03125l0 -1.625zm10.263931 0l0 1.625q0 1.421875 -0.828125 2.734375q-0.8125 1.3125 -2.359375 1.3125q-0.890625 0 -1.5 -0.390625q-0.609375 -0.390625 -1.15625 -1.4375q-0.546875 -1.046875 -0.546875 -2.21875l0 -1.625q0 -1.421875 0.8125 -2.734375q0.828125 -1.3125 2.375 -1.3125q0.875 0 1.484375 0.390625q0.609375 0.390625 1.15625 1.4375q0.5625 1.046875 0.5625 2.21875zm-1.46875 0q0 -1.1875 -0.671875 -2.078125q-0.375 -0.5 -1.0625 -0.5q-0.65625 0 -1.078125 0.546875q-0.640625 0.828125 -0.640625 2.03125l0 1.625q0 1.1875 0.671875 2.078125q0.375 0.5 1.0625 0.5q0.65625 0 1.078125 -0.546875q0.640625 -0.828125 0.640625 -2.03125l0 -1.625zm7.8108063 -4.046875l0 8.03125l1.484375 0q0.53125 0 0.75 0.203125q0.234375 0.203125 0.234375 0.53125q0 0.328125 -0.234375 0.53125q-0.21875 0.203125 -0.75 0.203125l-4.421875 0q-0.53125 0 -0.765625 -0.203125q-0.21875 -0.203125 -0.21875 -0.53125q0 -0.328125 0.21875 -0.53125q0.234375 -0.203125 0.765625 -0.203125l1.46875 0l0 -6.109375l-1.296875 0.328125q-0.328125 0.09375 -0.484375 0.09375q-0.265625 0 -0.484375 -0.21875q-0.203125 -0.21875 -0.203125 -0.546875q0 -0.296875 0.15625 -0.453125q0.15625 -0.171875 0.625 -0.3125l3.15625 -0.8125zm11.248306 4.046875l0 1.625q0 1.421875 -0.828125 2.734375q-0.8125 1.3125 -2.359375 1.3125q-0.890625 0 -1.5 -0.390625q-0.609375 -0.390625 -1.15625 -1.4375q-0.546875 -1.046875 -0.546875 -2.21875l0 -1.625q0 -1.421875 0.8125 -2.734375q0.828125 -1.3125 2.375 -1.3125q0.875 0 1.484375 0.390625q0.609375 0.390625 1.15625 1.4375q0.5625 1.046875 0.5625 2.21875zm-1.46875 0q0 -1.1875 -0.671875 -2.078125q-0.375 -0.5 -1.0625 -0.5q-0.65625 0 -1.078125 0.546875q-0.640625 0.828125 -0.640625 2.03125l0 1.625q0 1.1875 0.671875 2.078125q0.375 0.5 1.0625 0.5q0.65625 0 1.078125 -0.546875q0.640625 -0.828125 0.640625 -2.03125l0 -1.625zm10.263931 0l0 1.625q0 1.421875 -0.828125 2.734375q-0.8125 1.3125 -2.359375 1.3125q-0.890625 0 -1.5 -0.390625q-0.609375 -0.390625 -1.15625 -1.4375q-0.546875 -1.046875 -0.546875 -2.21875l0 -1.625q0 -1.421875 0.8125 -2.734375q0.828125 -1.3125 2.375 -1.3125q0.875 0 1.484375 0.390625q0.609375 0.390625 1.15625 1.4375q0.5625 1.046875 0.5625 2.21875zm-1.46875 0q0 -1.1875 -0.671875 -2.078125q-0.375 -0.5 -1.0625 -0.5q-0.65625 0 -1.078125 0.546875q-0.640625 0.828125 -0.640625 2.03125l0 1.625q0 1.1875 0.671875 2.078125q0.375 0.5 1.0625 0.5q0.65625 0 1.078125 -0.546875q0.640625 -0.828125 0.640625 -2.03125l0 -1.625zm10.263916 0l0 1.625q0 1.421875 -0.828125 2.734375q-0.8125 1.3125 -2.359375 1.3125q-0.890625 0 -1.5 -0.390625q-0.609375 -0.390625 -1.15625 -1.4375q-0.546875 -1.046875 -0.546875 -2.21875l0 -1.625q0 -1.421875 0.8125 -2.734375q0.828125 -1.3125 2.375 -1.3125q0.875 0 1.484375 0.390625q0.609375 0.390625 1.15625 1.4375q0.5625 1.046875 0.5625 2.21875zm-1.46875 0q0 -1.1875 -0.671875 -2.078125q-0.375 -0.5 -1.0625 -0.5q-0.65625 0 -1.078125 0.546875q-0.640625 0.828125 -0.640625 2.03125l0 1.625q0 1.1875 0.671875 2.078125q0.375 0.5 1.0625 0.5q0.65625 0 1.078125 -0.546875q0.640625 -0.828125 0.640625 -2.03125l0 -1.625z" fill-rule="nonzero"/><path fill="#010000" fill-opacity="0.0" d="m171.31421 47.678383l8.795181 0l0 16.602783l-8.795181 0l0 -16.602783z" fill-rule="nonzero"/><path fill="#ffffff" d="m178.78296 56.379997l-6.125 0l0 -1.328125l6.125 0l0 1.328125z" fill-rule="nonzero"/><path fill="#000000" fill-opacity="0.0" d="m180.10939 47.678383l61.56627 0l0 16.602783l-61.56627 0l0 -16.602783z" fill-rule="nonzero"/><path fill="#ffffff" d="m185.25002 50.379997l0 8.03125l1.484375 0q0.53125 0 0.75 0.203125q0.234375 0.203125 0.234375 0.53125q0 0.328125 -0.234375 0.53125q-0.21875 0.203125 -0.75 0.203125l-4.421875 0q-0.53125 0 -0.765625 -0.203125q-0.21875 -0.203125 -0.21875 -0.53125q0 -0.328125 0.21875 -0.53125q0.234375 -0.203125 0.765625 -0.203125l1.46875 0l0 -6.109375l-1.296875 0.328125q-0.328125 0.09375 -0.484375 0.09375q-0.265625 0 -0.484375 -0.21875q-0.203125 -0.21875 -0.203125 -0.546875q0 -0.296875 0.15625 -0.453125q0.15625 -0.171875 0.625 -0.3125l3.15625 -0.8125zm8.795181 0l0 8.03125l1.484375 0q0.53125 0 0.75 0.203125q0.234375 0.203125 0.234375 0.53125q0 0.328125 -0.234375 0.53125q-0.21875 0.203125 -0.75 0.203125l-4.421875 0q-0.53125 0 -0.765625 -0.203125q-0.21875 -0.203125 -0.21875 -0.53125q0 -0.328125 0.21875 -0.53125q0.234375 -0.203125 0.765625 -0.203125l1.46875 0l0 -6.109375l-1.296875 0.328125q-0.328125 0.09375 -0.484375 0.09375q-0.265625 0 -0.484375 -0.21875q-0.203125 -0.21875 -0.203125 -0.546875q0 -0.296875 0.15625 -0.453125q0.15625 -0.171875 0.625 -0.3125l3.15625 -0.8125zm8.795181 0l0 8.03125l1.484375 0q0.53125 0 0.75 0.203125q0.234375 0.203125 0.234375 0.53125q0 0.328125 -0.234375 0.53125q-0.21875 0.203125 -0.75 0.203125l-4.421875 0q-0.53125 0 -0.765625 -0.203125q-0.21875 -0.203125 -0.21875 -0.53125q0 -0.328125 0.21875 -0.53125q0.234375 -0.203125 0.765625 -0.203125l1.46875 0l0 -6.109375l-1.296875 0.328125q-0.328125 0.09375 -0.484375 0.09375q-0.265625 0 -0.484375 -0.21875q-0.203125 -0.21875 -0.203125 -0.546875q0 -0.296875 0.15625 -0.453125q0.15625 -0.171875 0.625 -0.3125l3.15625 -0.8125zm8.795181 0l0 8.03125l1.484375 0q0.53125 0 0.75 0.203125q0.234375 0.203125 0.234375 0.53125q0 0.328125 -0.234375 0.53125q-0.21875 0.203125 -0.75 0.203125l-4.421875 0q-0.53125 0 -0.765625 -0.203125q-0.21875 -0.203125 -0.21875 -0.53125q0 -0.328125 0.21875 -0.53125q0.234375 -0.203125 0.765625 -0.203125l1.46875 0l0 -6.109375l-1.296875 0.328125q-0.328125 0.09375 -0.484375 0.09375q-0.265625 0 -0.484375 -0.21875q-0.203125 -0.21875 -0.203125 -0.546875q0 -0.296875 0.15625 -0.453125q0.15625 -0.171875 0.625 -0.3125l3.15625 -0.8125zm11.248306 4.046875l0 1.625q0 1.421875 -0.828125 2.734375q-0.8125 1.3125 -2.359375 1.3125q-0.890625 0 -1.5 -0.390625q-0.609375 -0.390625 -1.15625 -1.4375q-0.546875 -1.046875 -0.546875 -2.21875l0 -1.625q0 -1.421875 0.8125 -2.734375q0.828125 -1.3125 2.375 -1.3125q0.875 0 1.484375 0.390625q0.609375 0.390625 1.15625 1.4375q0.5625 1.046875 0.5625 2.21875zm-1.46875 0q0 -1.1875 -0.671875 -2.078125q-0.375 -0.5 -1.0625 -0.5q-0.65625 0 -1.078125 0.546875q-0.640625 0.828125 -0.640625 2.03125l0 1.625q0 1.1875 0.671875 2.078125q0.375 0.5 1.0625 0.5q0.65625 0 1.078125 -0.546875q0.640625 -0.828125 0.640625 -2.03125l0 -1.625zm10.263931 0l0 1.625q0 1.421875 -0.828125 2.734375q-0.8125 1.3125 -2.359375 1.3125q-0.890625 0 -1.5 -0.390625q-0.609375 -0.390625 -1.15625 -1.4375q-0.546875 -1.046875 -0.546875 -2.21875l0 -1.625q0 -1.421875 0.8125 -2.734375q0.828125 -1.3125 2.375 -1.3125q0.875 0 1.484375 0.390625q0.609375 0.390625 1.15625 1.4375q0.5625 1.046875 0.5625 2.21875zm-1.46875 0q0 -1.1875 -0.671875 -2.078125q-0.375 -0.5 -1.0625 -0.5q-0.65625 0 -1.078125 0.546875q-0.640625 0.828125 -0.640625 2.03125l0 1.625q0 1.1875 0.671875 2.078125q0.375 0.5 1.0625 0.5q0.65625 0 1.078125 -0.546875q0.640625 -0.828125 0.640625 -2.03125l0 -1.625zm10.263931 0l0 1.625q0 1.421875 -0.828125 2.734375q-0.8125 1.3125 -2.359375 1.3125q-0.890625 0 -1.5 -0.390625q-0.609375 -0.390625 -1.15625 -1.4375q-0.546875 -1.046875 -0.546875 -2.21875l0 -1.625q0 -1.421875 0.8125 -2.734375q0.828125 -1.3125 2.375 -1.3125q0.875 0 1.484375 0.390625q0.609375 0.390625 1.15625 1.4375q0.5625 1.046875 0.5625 2.21875zm-1.46875 0q0 -1.1875 -0.671875 -2.078125q-0.375 -0.5 -1.0625 -0.5q-0.65625 0 -1.078125 0.546875q-0.640625 0.828125 -0.640625 2.03125l0 1.625q0 1.1875 0.671875 2.078125q0.375 0.5 1.0625 0.5q0.65625 0 1.078125 -0.546875q0.640625 -0.828125 0.640625 -2.03125l0 -1.625z" fill-rule="nonzero"/><path fill="#010000" fill-opacity="0.0" d="m241.67566 47.678383l0 0l0 16.602783l0 0l0 -16.602783z" fill-rule="nonzero"/><path fill="#ffffff" d="m171.31421 60.833332l70.36145 0l0 1.3199997l-70.36145 0l0 -1.3199997z" fill-rule="nonzero"/><path fill="#ffffff" d="m185.25002 67.979996l0 8.03125l1.484375 0q0.53125 0 0.75 0.203125q0.234375 0.203125 0.234375 0.53125q0 0.328125 -0.234375 0.53125q-0.21875 0.203125 -0.75 0.203125l-4.421875 0q-0.53125 0 -0.765625 -0.203125q-0.21875 -0.203125 -0.21875 -0.53125q0 -0.328125 0.21875 -0.53125q0.234375 -0.203125 0.765625 -0.203125l1.46875 0l0 -6.109375l-1.296875 0.328125q-0.328125 0.09375 -0.484375 0.09375q-0.265625 0 -0.484375 -0.21875q-0.203125 -0.21875 -0.203125 -0.546875q0 -0.296875 0.15625 -0.453125q0.15625 -0.171875 0.625 -0.3125l3.15625 -0.8125zm8.795181 0l0 8.03125l1.484375 0q0.53125 0 0.75 0.203125q0.234375 0.203125 0.234375 0.53125q0 0.328125 -0.234375 0.53125q-0.21875 0.203125 -0.75 0.203125l-4.421875 0q-0.53125 0 -0.765625 -0.203125q-0.21875 -0.203125 -0.21875 -0.53125q0 -0.328125 0.21875 -0.53125q0.234375 -0.203125 0.765625 -0.203125l1.46875 0l0 -6.109375l-1.296875 0.328125q-0.328125 0.09375 -0.484375 0.09375q-0.265625 0 -0.484375 -0.21875q-0.203125 -0.21875 -0.203125 -0.546875q0 -0.296875 0.15625 -0.453125q0.15625 -0.171875 0.625 -0.3125l3.15625 -0.8125zm11.248306 4.046875l0 1.625q0 1.421875 -0.828125 2.734375q-0.8125 1.3125 -2.359375 1.3125q-0.890625 0 -1.5 -0.390625q-0.609375 -0.390625 -1.15625 -1.4375q-0.546875 -1.046875 -0.546875 -2.21875l0 -1.625q0 -1.421875 0.8125 -2.734375q0.828125 -1.3125 2.375 -1.3125q0.875 0 1.484375 0.390625q0.609375 0.390625 1.15625 1.4375q0.5625 1.046875 0.5625 2.21875zm-1.46875 0q0 -1.1875 -0.671875 -2.078125q-0.375 -0.5 -1.0625 -0.5q-0.65625 0 -1.078125 0.546875q-0.640625 0.828125 -0.640625 2.03125l0 1.625q0 1.1875 0.671875 2.078125q0.375 0.5 1.0625 0.5q0.65625 0 1.078125 -0.546875q0.640625 -0.828125 0.640625 -2.03125l0 -1.625zm7.8108063 -4.046875l0 8.03125l1.484375 0q0.53125 0 0.75 0.203125q0.234375 0.203125 0.234375 0.53125q0 0.328125 -0.234375 0.53125q-0.21875 0.203125 -0.75 0.203125l-4.421875 0q-0.53125 0 -0.765625 -0.203125q-0.21875 -0.203125 -0.21875 -0.53125q0 -0.328125 0.21875 -0.53125q0.234375 -0.203125 0.765625 -0.203125l1.46875 0l0 -6.109375l-1.296875 0.328125q-0.328125 0.09375 -0.484375 0.09375q-0.265625 0 -0.484375 -0.21875q-0.203125 -0.21875 -0.203125 -0.546875q0 -0.296875 0.15625 -0.453125q0.15625 -0.171875 0.625 -0.3125l3.15625 -0.8125zm11.248306 4.046875l0 1.625q0 1.421875 -0.828125 2.734375q-0.8125 1.3125 -2.359375 1.3125q-0.890625 0 -1.5 -0.390625q-0.609375 -0.390625 -1.15625 -1.4375q-0.546875 -1.046875 -0.546875 -2.21875l0 -1.625q0 -1.421875 0.8125 -2.734375q0.828125 -1.3125 2.375 -1.3125q0.875 0 1.484375 0.390625q0.609375 0.390625 1.15625 1.4375q0.5625 1.046875 0.5625 2.21875zm-1.46875 0q0 -1.1875 -0.671875 -2.078125q-0.375 -0.5 -1.0625 -0.5q-0.65625 0 -1.078125 0.546875q-0.640625 0.828125 -0.640625 2.03125l0 1.625q0 1.1875 0.671875 2.078125q0.375 0.5 1.0625 0.5q0.65625 0 1.078125 -0.546875q0.640625 -0.828125 0.640625 -2.03125l0 -1.625zm10.263931 0l0 1.625q0 1.421875 -0.828125 2.734375q-0.8125 1.3125 -2.359375 1.3125q-0.890625 0 -1.5 -0.390625q-0.609375 -0.390625 -1.15625 -1.4375q-0.546875 -1.046875 -0.546875 -2.21875l0 -1.625q0 -1.421875 0.8125 -2.734375q0.828125 -1.3125 2.375 -1.3125q0.875 0 1.484375 0.390625q0.609375 0.390625 1.15625 1.4375q0.5625 1.046875 0.5625 2.21875zm-1.46875 0q0 -1.1875 -0.671875 -2.078125q-0.375 -0.5 -1.0625 -0.5q-0.65625 0 -1.078125 0.546875q-0.640625 0.828125 -0.640625 2.03125l0 1.625q0 1.1875 0.671875 2.078125q0.375 0.5 1.0625 0.5q0.65625 0 1.078125 -0.546875q0.640625 -0.828125 0.640625 -2.03125l0 -1.625zm7.8108063 -4.046875l0 8.03125l1.484375 0q0.53125 0 0.75 0.203125q0.234375 0.203125 0.234375 0.53125q0 0.328125 -0.234375 0.53125q-0.21875 0.203125 -0.75 0.203125l-4.421875 0q-0.53125 0 -0.765625 -0.203125q-0.21875 -0.203125 -0.21875 -0.53125q0 -0.328125 0.21875 -0.53125q0.234375 -0.203125 0.765625 -0.203125l1.46875 0l0 -6.109375l-1.296875 0.328125q-0.328125 0.09375 -0.484375 0.09375q-0.265625 0 -0.484375 -0.21875q-0.203125 -0.21875 -0.203125 -0.546875q0 -0.296875 0.15625 -0.453125q0.15625 -0.171875 0.625 -0.3125l3.15625 -0.8125z" fill-rule="nonzero"/><path fill="#ffe599" d="m249.26941 72.02687l0 1.625q0 1.421875 -0.828125 2.734375q-0.8125 1.3125 -2.359375 1.3125q-0.890625 0 -1.5 -0.390625q-0.609375 -0.390625 -1.15625 -1.4375q-0.546875 -1.046875 -0.546875 -2.21875l0 -1.625q0 -1.421875 0.8125 -2.734375q0.828125 -1.3125 2.375 -1.3125q0.875 0 1.484375 0.390625q0.609375 0.390625 1.15625 1.4375q0.5625 1.046875 0.5625 2.21875zm-1.46875 0q0 -1.1875 -0.671875 -2.078125q-0.375 -0.5 -1.0625 -0.5q-0.65625 0 -1.078125 0.546875q-0.640625 0.828125 -0.640625 2.03125l0 1.625q0 1.1875 0.671875 2.078125q0.375 0.5 1.0625 0.5q0.65625 0 1.078125 -0.546875q0.640625 -0.828125 0.640625 -2.03125l0 -1.625z" fill-rule="nonzero"/><path fill="#010000" fill-opacity="0.0" d="m180.10939 82.87838l8.795181 0l0 16.602783l-8.795181 0l0 -16.602783z" fill-rule="nonzero"/><path fill="#ffffff" d="m187.57814 91.579994l-6.125 0l0 -1.328125l6.125 0l0 1.328125z" fill-rule="nonzero"/><path fill="#000000" fill-opacity="0.0" d="m188.90457 82.87838l61.56627 0l0 16.602783l-61.56627 0l0 -16.602783z" fill-rule="nonzero"/><path fill="#ffffff" d="m194.0452 85.579994l0 8.03125l1.484375 0q0.53125 0 0.75 0.203125q0.234375 0.203125 0.234375 0.53125q0 0.328125 -0.234375 0.53125q-0.21875 0.203125 -0.75 0.203125l-4.421875 0q-0.53125 0 -0.765625 -0.203125q-0.21875 -0.203125 -0.21875 -0.53125q0 -0.328125 0.21875 -0.53125q0.234375 -0.203125 0.765625 -0.203125l1.46875 0l0 -6.109375l-1.296875 0.328125q-0.328125 0.09375 -0.484375 0.09375q-0.265625 0 -0.484375 -0.21875q-0.203125 -0.21875 -0.203125 -0.546875q0 -0.296875 0.15625 -0.453125q0.15625 -0.171875 0.625 -0.3125l3.15625 -0.8125zm8.795181 0l0 8.03125l1.484375 0q0.53125 0 0.75 0.203125q0.234375 0.203125 0.234375 0.53125q0 0.328125 -0.234375 0.53125q-0.21875 0.203125 -0.75 0.203125l-4.421875 0q-0.53125 0 -0.765625 -0.203125q-0.21875 -0.203125 -0.21875 -0.53125q0 -0.328125 0.21875 -0.53125q0.234375 -0.203125 0.765625 -0.203125l1.46875 0l0 -6.109375l-1.296875 0.328125q-0.328125 0.09375 -0.484375 0.09375q-0.265625 0 -0.484375 -0.21875q-0.203125 -0.21875 -0.203125 -0.546875q0 -0.296875 0.15625 -0.453125q0.15625 -0.171875 0.625 -0.3125l3.15625 -0.8125zm8.795181 0l0 8.03125l1.484375 0q0.53125 0 0.75 0.203125q0.234375 0.203125 0.234375 0.53125q0 0.328125 -0.234375 0.53125q-0.21875 0.203125 -0.75 0.203125l-4.421875 0q-0.53125 0 -0.765625 -0.203125q-0.21875 -0.203125 -0.21875 -0.53125q0 -0.328125 0.21875 -0.53125q0.234375 -0.203125 0.765625 -0.203125l1.46875 0l0 -6.109375l-1.296875 0.328125q-0.328125 0.09375 -0.484375 0.09375q-0.265625 0 -0.484375 -0.21875q-0.203125 -0.21875 -0.203125 -0.546875q0 -0.296875 0.15625 -0.453125q0.15625 -0.171875 0.625 -0.3125l3.15625 -0.8125zm8.795181 0l0 8.03125l1.484375 0q0.53125 0 0.75 0.203125q0.234375 0.203125 0.234375 0.53125q0 0.328125 -0.234375 0.53125q-0.21875 0.203125 -0.75 0.203125l-4.421875 0q-0.53125 0 -0.765625 -0.203125q-0.21875 -0.203125 -0.21875 -0.53125q0 -0.328125 0.21875 -0.53125q0.234375 -0.203125 0.765625 -0.203125l1.46875 0l0 -6.109375l-1.296875 0.328125q-0.328125 0.09375 -0.484375 0.09375q-0.265625 0 -0.484375 -0.21875q-0.203125 -0.21875 -0.203125 -0.546875q0 -0.296875 0.15625 -0.453125q0.15625 -0.171875 0.625 -0.3125l3.15625 -0.8125zm11.248306 4.046875l0 1.625q0 1.421875 -0.828125 2.734375q-0.8125 1.3125 -2.359375 1.3125q-0.890625 0 -1.5 -0.390625q-0.609375 -0.390625 -1.15625 -1.4375q-0.546875 -1.046875 -0.546875 -2.21875l0 -1.625q0 -1.421875 0.8125 -2.734375q0.828125 -1.3125 2.375 -1.3125q0.875 0 1.484375 0.390625q0.609375 0.390625 1.15625 1.4375q0.5625 1.046875 0.5625 2.21875zm-1.46875 0q0 -1.1875 -0.671875 -2.078125q-0.375 -0.5 -1.0625 -0.5q-0.65625 0 -1.078125 0.546875q-0.640625 0.828125 -0.640625 2.03125l0 1.625q0 1.1875 0.671875 2.078125q0.375 0.5 1.0625 0.5q0.65625 0 1.078125 -0.546875q0.640625 -0.828125 0.640625 -2.03125l0 -1.625zm10.263931 0l0 1.625q0 1.421875 -0.828125 2.734375q-0.8125 1.3125 -2.359375 1.3125q-0.890625 0 -1.5 -0.390625q-0.609375 -0.390625 -1.15625 -1.4375q-0.546875 -1.046875 -0.546875 -2.21875l0 -1.625q0 -1.421875 0.8125 -2.734375q0.828125 -1.3125 2.375 -1.3125q0.875 0 1.484375 0.390625q0.609375 0.390625 1.15625 1.4375q0.5625 1.046875 0.5625 2.21875zm-1.46875 0q0 -1.1875 -0.671875 -2.078125q-0.375 -0.5 -1.0625 -0.5q-0.65625 0 -1.078125 0.546875q-0.640625 0.828125 -0.640625 2.03125l0 1.625q0 1.1875 0.671875 2.078125q0.375 0.5 1.0625 0.5q0.65625 0 1.078125 -0.546875q0.640625 -0.828125 0.640625 -2.03125l0 -1.625zm10.263931 0l0 1.625q0 1.421875 -0.828125 2.734375q-0.8125 1.3125 -2.359375 1.3125q-0.890625 0 -1.5 -0.390625q-0.609375 -0.390625 -1.15625 -1.4375q-0.546875 -1.046875 -0.546875 -2.21875l0 -1.625q0 -1.421875 0.8125 -2.734375q0.828125 -1.3125 2.375 -1.3125q0.875 0 1.484375 0.390625q0.609375 0.390625 1.15625 1.4375q0.5625 1.046875 0.5625 2.21875zm-1.46875 0q0 -1.1875 -0.671875 -2.078125q-0.375 -0.5 -1.0625 -0.5q-0.65625 0 -1.078125 0.546875q-0.640625 0.828125 -0.640625 2.03125l0 1.625q0 1.1875 0.671875 2.078125q0.375 0.5 1.0625 0.5q0.65625 0 1.078125 -0.546875q0.640625 -0.828125 0.640625 -2.03125l0 -1.625z" fill-rule="nonzero"/><path fill="#010000" fill-opacity="0.0" d="m250.47084 82.87838l0 0l0 16.602783l0 0l0 -16.602783z" fill-rule="nonzero"/><path fill="#ffffff" d="m180.10939 96.033325l70.36145 0l0 1.3199997l-70.36145 0l0 -1.3199997z" fill-rule="nonzero"/><path fill="#ffffff" d="m194.0452 103.17999l0 8.03125l1.484375 0q0.53125 0 0.75 0.203125q0.234375 0.203125 0.234375 0.53125q0 0.328125 -0.234375 0.53125q-0.21875 0.203125 -0.75 0.203125l-4.421875 0q-0.53125 0 -0.765625 -0.203125q-0.21875 -0.203125 -0.21875 -0.53125q0 -0.328125 0.21875 -0.53125q0.234375 -0.203125 0.765625 -0.203125l1.46875 0l0 -6.109375l-1.296875 0.328125q-0.328125 0.09375 -0.484375 0.09375q-0.265625 0 -0.484375 -0.21875q-0.203125 -0.21875 -0.203125 -0.546875q0 -0.296875 0.15625 -0.453125q0.15625 -0.171875 0.625 -0.3125l3.15625 -0.8125zm11.248306 4.046875l0 1.625q0 1.421875 -0.828125 2.734375q-0.8125 1.3125 -2.359375 1.3125q-0.890625 0 -1.5 -0.390625q-0.609375 -0.390625 -1.15625 -1.4375q-0.546875 -1.046875 -0.546875 -2.21875l0 -1.625q0 -1.421875 0.8125 -2.734375q0.828125 -1.3125 2.375 -1.3125q0.875 0 1.484375 0.390625q0.609375 0.390625 1.15625 1.4375q0.5625 1.046875 0.5625 2.21875zm-1.46875 0q0 -1.1875 -0.671875 -2.078125q-0.375 -0.5 -1.0625 -0.5q-0.65625 0 -1.078125 0.546875q-0.640625 0.828125 -0.640625 2.03125l0 1.625q0 1.1875 0.671875 2.078125q0.375 0.5 1.0625 0.5q0.65625 0 1.078125 -0.546875q0.640625 -0.828125 0.640625 -2.03125l0 -1.625zm7.8108063 -4.046875l0 8.03125l1.484375 0q0.53125 0 0.75 0.203125q0.234375 0.203125 0.234375 0.53125q0 0.328125 -0.234375 0.53125q-0.21875 0.203125 -0.75 0.203125l-4.421875 0q-0.53125 0 -0.765625 -0.203125q-0.21875 -0.203125 -0.21875 -0.53125q0 -0.328125 0.21875 -0.53125q0.234375 -0.203125 0.765625 -0.203125l1.46875 0l0 -6.109375l-1.296875 0.328125q-0.328125 0.09375 -0.484375 0.09375q-0.265625 0 -0.484375 -0.21875q-0.203125 -0.21875 -0.203125 -0.546875q0 -0.296875 0.15625 -0.453125q0.15625 -0.171875 0.625 -0.3125l3.15625 -0.8125zm8.795181 0l0 8.03125l1.484375 0q0.53125 0 0.75 0.203125q0.234375 0.203125 0.234375 0.53125q0 0.328125 -0.234375 0.53125q-0.21875 0.203125 -0.75 0.203125l-4.421875 0q-0.53125 0 -0.765625 -0.203125q-0.21875 -0.203125 -0.21875 -0.53125q0 -0.328125 0.21875 -0.53125q0.234375 -0.203125 0.765625 -0.203125l1.46875 0l0 -6.109375l-1.296875 0.328125q-0.328125 0.09375 -0.484375 0.09375q-0.265625 0 -0.484375 -0.21875q-0.203125 -0.21875 -0.203125 -0.546875q0 -0.296875 0.15625 -0.453125q0.15625 -0.171875 0.625 -0.3125l3.15625 -0.8125zm11.248306 4.046875l0 1.625q0 1.421875 -0.828125 2.734375q-0.8125 1.3125 -2.359375 1.3125q-0.890625 0 -1.5 -0.390625q-0.609375 -0.390625 -1.15625 -1.4375q-0.546875 -1.046875 -0.546875 -2.21875l0 -1.625q0 -1.421875 0.8125 -2.734375q0.828125 -1.3125 2.375 -1.3125q0.875 0 1.484375 0.390625q0.609375 0.390625 1.15625 1.4375q0.5625 1.046875 0.5625 2.21875zm-1.46875 0q0 -1.1875 -0.671875 -2.078125q-0.375 -0.5 -1.0625 -0.5q-0.65625 0 -1.078125 0.546875q-0.640625 0.828125 -0.640625 2.03125l0 1.625q0 1.1875 0.671875 2.078125q0.375 0.5 1.0625 0.5q0.65625 0 1.078125 -0.546875q0.640625 -0.828125 0.640625 -2.03125l0 -1.625zm7.8108063 -4.046875l0 8.03125l1.484375 0q0.53125 0 0.75 0.203125q0.234375 0.203125 0.234375 0.53125q0 0.328125 -0.234375 0.53125q-0.21875 0.203125 -0.75 0.203125l-4.421875 0q-0.53125 0 -0.765625 -0.203125q-0.21875 -0.203125 -0.21875 -0.53125q0 -0.328125 0.21875 -0.53125q0.234375 -0.203125 0.765625 -0.203125l1.46875 0l0 -6.109375l-1.296875 0.328125q-0.328125 0.09375 -0.484375 0.09375q-0.265625 0 -0.484375 -0.21875q-0.203125 -0.21875 -0.203125 -0.546875q0 -0.296875 0.15625 -0.453125q0.15625 -0.171875 0.625 -0.3125l3.15625 -0.8125zm11.248306 4.046875l0 1.625q0 1.421875 -0.828125 2.734375q-0.8125 1.3125 -2.359375 1.3125q-0.890625 0 -1.5 -0.390625q-0.609375 -0.390625 -1.15625 -1.4375q-0.546875 -1.046875 -0.546875 -2.21875l0 -1.625q0 -1.421875 0.8125 -2.734375q0.828125 -1.3125 2.375 -1.3125q0.875 0 1.484375 0.390625q0.609375 0.390625 1.15625 1.4375q0.5625 1.046875 0.5625 2.21875zm-1.46875 0q0 -1.1875 -0.671875 -2.078125q-0.375 -0.5 -1.0625 -0.5q-0.65625 0 -1.078125 0.546875q-0.640625 0.828125 -0.640625 2.03125l0 1.625q0 1.1875 0.671875 2.078125q0.375 0.5 1.0625 0.5q0.65625 0 1.078125 -0.546875q0.640625 -0.828125 0.640625 -2.03125l0 -1.625zm10.263916 0l0 1.625q0 1.421875 -0.828125 2.734375q-0.8125 1.3125 -2.3593597 1.3125q-0.890625 0 -1.5 -0.390625q-0.609375 -0.390625 -1.15625 -1.4375q-0.546875 -1.046875 -0.546875 -2.21875l0 -1.625q0 -1.421875 0.8125 -2.734375q0.828125 -1.3125 2.375 -1.3125q0.875 0 1.4843597 0.390625q0.609375 0.390625 1.15625 1.4375q0.5625 1.046875 0.5625 2.21875zm-1.46875 0q0 -1.1875 -0.67185974 -2.078125q-0.375 -0.5 -1.0625 -0.5q-0.65625 0 -1.078125 0.546875q-0.640625 0.828125 -0.640625 2.03125l0 1.625q0 1.1875 0.671875 2.078125q0.375 0.5 1.0625 0.5q0.65625 0 1.078125 -0.546875q0.64060974 -0.828125 0.64060974 -2.03125l0 -1.625z" fill-rule="nonzero"/><path fill="#010000" fill-opacity="0.0" d="m188.90457 118.07837l70.36145 0l0 16.602783l-70.36145 0l0 -16.602783z" fill-rule="nonzero"/><path fill="#ffffff" d="m196.37332 126.77998l-6.125 0l0 -1.328125l6.125 0l0 1.328125zm6.4670563 -6.0l0 8.03125l1.484375 0q0.53125 0 0.75 0.203125q0.234375 0.203125 0.234375 0.53125q0 0.328125 -0.234375 0.53125q-0.21875 0.203125 -0.75 0.203125l-4.421875 0q-0.53125 0 -0.765625 -0.203125q-0.21875 -0.203125 -0.21875 -0.53125q0 -0.328125 0.21875 -0.53125q0.234375 -0.203125 0.765625 -0.203125l1.46875 0l0 -6.109375l-1.296875 0.328125q-0.328125 0.09375 -0.484375 0.09375q-0.265625 0 -0.484375 -0.21875q-0.203125 -0.21875 -0.203125 -0.546875q0 -0.296875 0.15625 -0.453125q0.15625 -0.171875 0.625 -0.3125l3.15625 -0.8125zm8.795181 0l0 8.03125l1.484375 0q0.53125 0 0.75 0.203125q0.234375 0.203125 0.234375 0.53125q0 0.328125 -0.234375 0.53125q-0.21875 0.203125 -0.75 0.203125l-4.421875 0q-0.53125 0 -0.765625 -0.203125q-0.21875 -0.203125 -0.21875 -0.53125q0 -0.328125 0.21875 -0.53125q0.234375 -0.203125 0.765625 -0.203125l1.46875 0l0 -6.109375l-1.296875 0.328125q-0.328125 0.09375 -0.484375 0.09375q-0.265625 0 -0.484375 -0.21875q-0.203125 -0.21875 -0.203125 -0.546875q0 -0.296875 0.15625 -0.453125q0.15625 -0.171875 0.625 -0.3125l3.15625 -0.8125zm8.795181 0l0 8.03125l1.484375 0q0.53125 0 0.75 0.203125q0.234375 0.203125 0.234375 0.53125q0 0.328125 -0.234375 0.53125q-0.21875 0.203125 -0.75 0.203125l-4.421875 0q-0.53125 0 -0.765625 -0.203125q-0.21875 -0.203125 -0.21875 -0.53125q0 -0.328125 0.21875 -0.53125q0.234375 -0.203125 0.765625 -0.203125l1.46875 0l0 -6.109375l-1.296875 0.328125q-0.328125 0.09375 -0.484375 0.09375q-0.265625 0 -0.484375 -0.21875q-0.203125 -0.21875 -0.203125 -0.546875q0 -0.296875 0.15625 -0.453125q0.15625 -0.171875 0.625 -0.3125l3.15625 -0.8125zm8.795181 0l0 8.03125l1.484375 0q0.53125 0 0.75 0.203125q0.234375 0.203125 0.234375 0.53125q0 0.328125 -0.234375 0.53125q-0.21875 0.203125 -0.75 0.203125l-4.421875 0q-0.53125 0 -0.765625 -0.203125q-0.21875 -0.203125 -0.21875 -0.53125q0 -0.328125 0.21875 -0.53125q0.234375 -0.203125 0.765625 -0.203125l1.46875 0l0 -6.109375l-1.296875 0.328125q-0.328125 0.09375 -0.484375 0.09375q-0.265625 0 -0.484375 -0.21875q-0.203125 -0.21875 -0.203125 -0.546875q0 -0.296875 0.15625 -0.453125q0.15625 -0.171875 0.625 -0.3125l3.15625 -0.8125zm11.248306 4.046875l0 1.625q0 1.421875 -0.828125 2.734375q-0.8125 1.3125 -2.359375 1.3125q-0.890625 0 -1.5 -0.390625q-0.609375 -0.390625 -1.15625 -1.4375q-0.546875 -1.046875 -0.546875 -2.21875l0 -1.625q0 -1.421875 0.8125 -2.734375q0.828125 -1.3125 2.375 -1.3125q0.875 0 1.484375 0.390625q0.609375 0.390625 1.15625 1.4375q0.5625 1.046875 0.5625 2.21875zm-1.46875 0q0 -1.1875 -0.671875 -2.078125q-0.375 -0.5 -1.0625 -0.5q-0.65625 0 -1.078125 0.546875q-0.640625 0.828125 -0.640625 2.03125l0 1.625q0 1.1875 0.671875 2.078125q0.375 0.5 1.0625 0.5q0.65625 0 1.078125 -0.546875q0.640625 -0.828125 0.640625 -2.03125l0 -1.625zm10.263931 0l0 1.625q0 1.421875 -0.828125 2.734375q-0.8125 1.3125 -2.359375 1.3125q-0.890625 0 -1.5 -0.390625q-0.609375 -0.390625 -1.15625 -1.4375q-0.546875 -1.046875 -0.546875 -2.21875l0 -1.625q0 -1.421875 0.8125 -2.734375q0.828125 -1.3125 2.375 -1.3125q0.875 0 1.484375 0.390625q0.609375 0.390625 1.15625 1.4375q0.5625 1.046875 0.5625 2.21875zm-1.46875 0q0 -1.1875 -0.671875 -2.078125q-0.375 -0.5 -1.0625 -0.5q-0.65625 0 -1.078125 0.546875q-0.640625 0.828125 -0.640625 2.03125l0 1.625q0 1.1875 0.671875 2.078125q0.375 0.5 1.0625 0.5q0.65625 0 1.078125 -0.546875q0.640625 -0.828125 0.640625 -2.03125l0 -1.625zm10.263916 0l0 1.625q0 1.421875 -0.828125 2.734375q-0.8125 1.3125 -2.3593597 1.3125q-0.890625 0 -1.5 -0.390625q-0.609375 -0.390625 -1.15625 -1.4375q-0.546875 -1.046875 -0.546875 -2.21875l0 -1.625q0 -1.421875 0.8125 -2.734375q0.828125 -1.3125 2.375 -1.3125q0.875 0 1.4843597 0.390625q0.609375 0.390625 1.15625 1.4375q0.5625 1.046875 0.5625 2.21875zm-1.46875 0q0 -1.1875 -0.67185974 -2.078125q-0.375 -0.5 -1.0625 -0.5q-0.65625 0 -1.078125 0.546875q-0.640625 0.828125 -0.640625 2.03125l0 1.625q0 1.1875 0.671875 2.078125q0.375 0.5 1.0625 0.5q0.65625 0 1.078125 -0.546875q0.64060974 -0.828125 0.64060974 -2.03125l0 -1.625z" fill-rule="nonzero"/><path fill="#010000" fill-opacity="0.0" d="m259.26602 118.07837l0 0l0 16.602783l0 0l0 -16.602783z" fill-rule="nonzero"/><path fill="#ffffff" d="m188.90457 131.23332l70.36145 0l0 1.3199921l-70.36145 0l0 -1.3199921z" fill-rule="nonzero"/><path fill="#ffffff" d="m211.63556 138.37999l0 8.03125l1.484375 0q0.53125 0 0.75 0.203125q0.234375 0.203125 0.234375 0.53125q0 0.328125 -0.234375 0.53125q-0.21875 0.203125 -0.75 0.203125l-4.421875 0q-0.53125 0 -0.765625 -0.203125q-0.21875 -0.203125 -0.21875 -0.53125q0 -0.328125 0.21875 -0.53125q0.234375 -0.203125 0.765625 -0.203125l1.46875 0l0 -6.109375l-1.296875 0.328125q-0.328125 0.09375 -0.484375 0.09375q-0.265625 0 -0.484375 -0.21875q-0.203125 -0.21875 -0.203125 -0.546875q0 -0.296875 0.15625 -0.453125q0.15625 -0.171875 0.625 -0.3125l3.15625 -0.8125zm8.795181 0l0 8.03125l1.484375 0q0.53125 0 0.75 0.203125q0.234375 0.203125 0.234375 0.53125q0 0.328125 -0.234375 0.53125q-0.21875 0.203125 -0.75 0.203125l-4.421875 0q-0.53125 0 -0.765625 -0.203125q-0.21875 -0.203125 -0.21875 -0.53125q0 -0.328125 0.21875 -0.53125q0.234375 -0.203125 0.765625 -0.203125l1.46875 0l0 -6.109375l-1.296875 0.328125q-0.328125 0.09375 -0.484375 0.09375q-0.265625 0 -0.484375 -0.21875q-0.203125 -0.21875 -0.203125 -0.546875q0 -0.296875 0.15625 -0.453125q0.15625 -0.171875 0.625 -0.3125l3.15625 -0.8125zm8.795181 0l0 8.03125l1.484375 0q0.53125 0 0.75 0.203125q0.234375 0.203125 0.234375 0.53125q0 0.328125 -0.234375 0.53125q-0.21875 0.203125 -0.75 0.203125l-4.421875 0q-0.53125 0 -0.765625 -0.203125q-0.21875 -0.203125 -0.21875 -0.53125q0 -0.328125 0.21875 -0.53125q0.234375 -0.203125 0.765625 -0.203125l1.46875 0l0 -6.109375l-1.296875 0.328125q-0.328125 0.09375 -0.484375 0.09375q-0.265625 0 -0.484375 -0.21875q-0.203125 -0.21875 -0.203125 -0.546875q0 -0.296875 0.15625 -0.453125q0.15625 -0.171875 0.625 -0.3125l3.15625 -0.8125zm8.795181 0l0 8.03125l1.484375 0q0.53125 0 0.75 0.203125q0.234375 0.203125 0.234375 0.53125q0 0.328125 -0.234375 0.53125q-0.21875 0.203125 -0.75 0.203125l-4.421875 0q-0.53125 0 -0.765625 -0.203125q-0.21875 -0.203125 -0.21875 -0.53125q0 -0.328125 0.21875 -0.53125q0.234375 -0.203125 0.765625 -0.203125l1.46875 0l0 -6.109375l-1.296875 0.328125q-0.328125 0.09375 -0.484375 0.09375q-0.265625 0 -0.484375 -0.21875q-0.203125 -0.21875 -0.203125 -0.546875q0 -0.296875 0.15625 -0.453125q0.15625 -0.171875 0.625 -0.3125l3.15625 -0.8125zm11.248306 4.046875l0 1.625q0 1.421875 -0.828125 2.734375q-0.8125 1.3125 -2.359375 1.3125q-0.890625 0 -1.5 -0.390625q-0.609375 -0.390625 -1.15625 -1.4375q-0.546875 -1.046875 -0.546875 -2.21875l0 -1.625q0 -1.421875 0.8125 -2.734375q0.828125 -1.3125 2.375 -1.3125q0.875 0 1.484375 0.390625q0.609375 0.390625 1.15625 1.4375q0.5625 1.046875 0.5625 2.21875zm-1.46875 0q0 -1.1875 -0.671875 -2.078125q-0.375 -0.5 -1.0625 -0.5q-0.65625 0 -1.078125 0.546875q-0.640625 0.828125 -0.640625 2.03125l0 1.625q0 1.1875 0.671875 2.078125q0.375 0.5 1.0625 0.5q0.65625 0 1.078125 -0.546875q0.640625 -0.828125 0.640625 -2.03125l0 -1.625zm10.263916 0l0 1.625q0 1.421875 -0.828125 2.734375q-0.8125 1.3125 -2.3593597 1.3125q-0.890625 0 -1.5 -0.390625q-0.609375 -0.390625 -1.15625 -1.4375q-0.546875 -1.046875 -0.546875 -2.21875l0 -1.625q0 -1.421875 0.8125 -2.734375q0.828125 -1.3125 2.375 -1.3125q0.875 0 1.4843597 0.390625q0.609375 0.390625 1.15625 1.4375q0.5625 1.046875 0.5625 2.21875zm-1.46875 0q0 -1.1875 -0.67185974 -2.078125q-0.375 -0.5 -1.0625 -0.5q-0.65625 0 -1.078125 0.546875q-0.640625 0.828125 -0.640625 2.03125l0 1.625q0 1.1875 0.671875 2.078125q0.375 0.5 1.0625 0.5q0.65625 0 1.078125 -0.546875q0.64060974 -0.828125 0.64060974 -2.03125l0 -1.625z" fill-rule="nonzero"/><path fill="#000000" fill-opacity="0.0" d="m165.14436 31.212074l102.80315 0" fill-rule="evenodd"/><path stroke="#ffffff" stroke-width="1.0" stroke-linejoin="round" stroke-linecap="butt" d="m165.14436 31.212074l102.80315 0" fill-rule="evenodd"/><path fill="#000000" fill-opacity="0.0" d="m247.17323 45.435696l0 20.50394" fill-rule="evenodd"/><path stroke="#ffe599" stroke-width="1.0" stroke-linejoin="round" stroke-linecap="butt" d="m247.17323 45.435696l0 17.076847" fill-rule="evenodd"/><path fill="#ffe599" stroke="#ffe599" stroke-width="1.0" stroke-linecap="butt" d="m247.17323 62.512547l-1.124588 -1.1245842l1.124588 3.0897675l1.1245728 -3.0897675z" fill-rule="evenodd"/><path fill="#000000" fill-opacity="0.0" d="m256.3386 44.97638l0.09448242 55.496063" fill-rule="evenodd"/><path stroke="#ffe599" stroke-width="1.0" stroke-linejoin="round" stroke-linecap="butt" d="m256.3386 44.97638l0.08862305 52.068977" fill-rule="evenodd"/><path fill="#ffe599" stroke="#ffe599" stroke-width="1.0" stroke-linecap="butt" d="m256.42725 97.04536l-1.1265106 -1.1226654l1.129837 3.0878525l1.1193237 -3.0916824z" fill-rule="evenodd"/></g></svg>