<svg version="1.1" viewBox="0.0 0.0 384.0 192.0" fill="none" stroke="none" stroke-linecap="square" stroke-miterlimit="10" xmlns:xlink="http://www.w3.org/1999/xlink" xmlns="http://www.w3.org/2000/svg"><clipPath id="p.0"><path d="m0 0l384.0 0l0 192.0l-384.0 0l0 -192.0z" clip-rule="nonzero"/></clipPath><g clip-path="url(#p.0)"><path fill="#000000" fill-opacity="0.0" d="m0 0l384.0 0l0 192.0l-384.0 0z" fill-rule="evenodd"/><path fill="#343434" d="m0 0l384.0 0l0 192.0l-384.0 0z" fill-rule="evenodd"/><path fill="#000000" fill-opacity="0.0" d="m0 0l200.09448 0l0 127.65354l-200.09448 0z" fill-rule="evenodd"/><path fill="#00ff00" d="m146.06834 13.58l0 8.03125l1.484375 0q0.53125 0 0.75 0.203125q0.234375 0.203125 0.234375 0.53125q0 0.328125 -0.234375 0.53125q-0.21875 0.203125 -0.75 0.203125l-4.421875 0q-0.53125 0 -0.765625 -0.203125q-0.21875 -0.203125 -0.21875 -0.53125q0 -0.328125 0.21875 -0.53125q0.234375 -0.203125 0.765625 -0.203125l1.46875 0l0 -6.109375l-1.296875 0.328125q-0.328125 0.09375 -0.484375 0.09375q-0.265625 0 -0.484375 -0.21875q-0.203125 -0.21875 -0.203125 -0.546875q0 -0.296875 0.15625 -0.453125q0.15625 -0.171875 0.625 -0.3125l3.15625 -0.8125z" fill-rule="nonzero"/><path fill="#ffffff" d="m14.140625 32.46l0 8.03125l1.484375 0q0.53125 0 0.75 0.203125q0.234375 0.203125 0.234375 0.53125q0 0.328125 -0.234375 0.53125q-0.21875 0.203125 -0.75 0.203125l-4.421875 0q-0.53125 0 -0.765625 -0.203125q-0.21875 -0.203125 -0.21875 -0.53125q0 -0.328125 0.21875 -0.53125q0.234375 -0.203125 0.765625 -0.203125l1.46875 0l0 -6.109375l-1.296875 0.328125q-0.328125 0.09375 -0.484375 0.09375q-0.265625 0 -0.484375 -0.21875q-0.203125 -0.21875 -0.203125 -0.546875q0 -0.296875 0.15625 -0.453125q0.15625 -0.171875 0.625 -0.3125l3.15625 -0.8125zm8.795181 0l0 8.03125l1.484375 0q0.53125 0 0.75 0.203125q0.234375 0.203125 0.234375 0.53125q0 0.328125 -0.234375 0.53125q-0.21875 0.203125 -0.75 0.203125l-4.421875 0q-0.53125 0 -0.765625 -0.203125q-0.21875 -0.203125 -0.21875 -0.53125q0 -0.328125 0.21875 -0.53125q0.234375 -0.203125 0.765625 -0.203125l1.46875 0l0 -6.109375l-1.296875 0.328125q-0.328125 0.09375 -0.484375 0.09375q-0.265625 0 -0.484375 -0.21875q-0.203125 -0.21875 -0.203125 -0.546875q0 -0.296875 0.15625 -0.453125q0.15625 -0.171875 0.625 -0.3125l3.15625 -0.8125zm8.795181 0l0 8.03125l1.484375 0q0.53125 0 0.75 0.203125q0.234375 0.203125 0.234375 0.53125q0 0.328125 -0.234375 0.53125q-0.21875 0.203125 -0.75 0.203125l-4.421875 0q-0.53125 0 -0.765625 -0.203125q-0.21875 -0.203125 -0.21875 -0.53125q0 -0.328125 0.21875 -0.53125q0.234375 -0.203125 0.765625 -0.203125l1.46875 0l0 -6.109375l-1.296875 0.328125q-0.328125 0.09375 -0.484375 0.09375q-0.265625 0 -0.484375 -0.21875q-0.203125 -0.21875 -0.203125 -0.546875q0 -0.296875 0.15625 -0.453125q0.15625 -0.171875 0.625 -0.3125l3.15625 -0.8125zm8.795181 0l0 8.03125l1.484375 0q0.53125 0 0.75 0.203125q0.234375 0.203125 0.234375 0.53125q0 0.328125 -0.234375 0.53125q-0.21875 0.203125 -0.75 0.203125l-4.421875 0q-0.53125 0 -0.765625 -0.203125q-0.21875 -0.203125 -0.21875 -0.53125q0 -0.328125 0.21875 -0.53125q0.234375 -0.203125 0.765625 -0.203125l1.46875 0l0 -6.109375l-1.296875 0.328125q-0.328125 0.09375 -0.484375 0.09375q-0.265625 0 -0.484375 -0.21875q-0.203125 -0.21875 -0.203125 -0.546875q0 -0.296875 0.15625 -0.453125q0.15625 -0.171875 0.625 -0.3125l3.15625 -0.8125zm11.248306 4.046875l0 1.625q0 1.421875 -0.828125 2.734375q-0.8125 1.3125 -2.359375 1.3125q-0.890625 0 -1.5 -0.390625q-0.609375 -0.390625 -1.15625 -1.4375q-0.546875 -1.046875 -0.546875 -2.21875l0 -1.625q0 -1.421875 0.8125 -2.734375q0.828125 -1.3125 2.375 -1.3125q0.875 0 1.484375 0.390625q0.609375 0.390625 1.15625 1.4375q0.5625 1.046875 0.5625 2.21875zm-1.46875 0q0 -1.1875 -0.671875 -2.078125q-0.375 -0.5 -1.0625 -0.5q-0.65625 0 -1.078125 0.546875q-0.640625 0.828125 -0.640625 2.03125l0 1.625q0 1.1875 0.671875 2.078125q0.375 0.5 1.0625 0.5q0.65625 0 1.078125 -0.546875q0.640625 -0.828125 0.640625 -2.03125l0 -1.625zm10.263931 0l0 1.625q0 1.421875 -0.828125 2.734375q-0.8125 1.3125 -2.359375 1.3125q-0.890625 0 -1.5 -0.390625q-0.609375 -0.390625 -1.15625 -1.4375q-0.546875 -1.046875 -0.546875 -2.21875l0 -1.625q0 -1.421875 0.8125 -2.734375q0.828125 -1.3125 2.375 -1.3125q0.875 0 1.484375 0.390625q0.609375 0.390625 1.15625 1.4375q0.5625 1.046875 0.5625 2.21875zm-1.46875 0q0 -1.1875 -0.671875 -2.078125q-0.375 -0.5 -1.0625 -0.5q-0.65625 0 -1.078125 0.546875q-0.640625 0.828125 -0.640625 2.03125l0 1.625q0 1.1875 0.671875 2.078125q0.375 0.5 1.0625 0.5q0.65625 0 1.078125 -0.546875q0.640625 -0.828125 0.640625 -2.03125l0 -1.625zm10.263931 0l0 1.625q0 1.421875 -0.828125 2.734375q-0.8125 1.3125 -2.359375 1.3125q-0.890625 0 -1.5 -0.390625q-0.609375 -0.390625 -1.15625 -1.4375q-0.546875 -1.046875 -0.546875 -2.21875l0 -1.625q0 -1.421875 0.8125 -2.734375q0.828125 -1.3125 2.375 -1.3125q0.875 0 1.484375 0.390625q0.609375 0.390625 1.15625 1.4375q0.5625 1.046875 0.5625 2.21875zm-1.46875 0q0 -1.1875 -0.671875 -2.078125q-0.375 -0.5 -1.0625 -0.5q-0.65625 0 -1.078125 0.546875q-0.640625 0.828125 -0.640625 2.03125l0 1.625q0 1.1875 0.671875 2.078125q0.375 0.5 1.0625 0.5q0.65625 0 1.078125 -0.546875q0.640625 -0.828125 0.640625 -2.03125l0 -1.625z" fill-rule="nonzero"/><path fill="#ffffff" d="m76.050644 38.069374q0 1.359375 -0.453125 2.765625q-0.328125 1.03125 -1.03125 2.296875q-0.515625 0.90625 -0.765625 1.109375q-0.234375 0.21875 -0.53125 0.21875q-0.34375 0 -0.578125 -0.234375q-0.234375 -0.234375 -0.234375 -0.5625q0 -0.234375 0.1875 -0.53125q0.84375 -1.390625 1.234375 -2.59375q0.390625 -1.21875 0.390625 -2.46875q0 -1.25 -0.390625 -2.453125q-0.390625 -1.21875 -1.234375 -2.59375q-0.1875 -0.3125 -0.1875 -0.546875q0 -0.328125 0.234375 -0.5625q0.234375 -0.234375 0.578125 -0.234375q0.296875 0 0.515625 0.1875q0.3125 0.265625 0.828125 1.234375q0.734375 1.375 1.015625 2.265625q0.421875 1.390625 0.421875 2.703125z" fill-rule="nonzero"/><path fill="#ffffff" d="m85.30846 32.46l0 8.03125l1.484375 0q0.53125 0 0.75 0.203125q0.234375 0.203125 0.234375 0.53125q0 0.328125 -0.234375 0.53125q-0.21875 0.203125 -0.75 0.203125l-4.421875 0q-0.53125 0 -0.765625 -0.203125q-0.21875 -0.203125 -0.21875 -0.53125q0 -0.328125 0.21875 -0.53125q0.234375 -0.203125 0.765625 -0.203125l1.46875 0l0 -6.109375l-1.296875 0.328125q-0.328125 0.09375 -0.484375 0.09375q-0.265625 0 -0.484375 -0.21875q-0.203125 -0.21875 -0.203125 -0.546875q0 -0.296875 0.15625 -0.453125q0.15625 -0.171875 0.625 -0.3125l3.15625 -0.8125zm8.795181 0l0 8.03125l1.484375 0q0.53125 0 0.75 0.203125q0.234375 0.203125 0.234375 0.53125q0 0.328125 -0.234375 0.53125q-0.21875 0.203125 -0.75 0.203125l-4.421875 0q-0.53125 0 -0.765625 -0.203125q-0.21875 -0.203125 -0.21875 -0.53125q0 -0.328125 0.21875 -0.53125q0.234375 -0.203125 0.765625 -0.203125l1.46875 0l0 -6.109375l-1.296875 0.328125q-0.328125 0.09375 -0.484375 0.09375q-0.265625 0 -0.484375 -0.21875q-0.203125 -0.21875 -0.203125 -0.546875q0 -0.296875 0.15625 -0.453125q0.15625 -0.171875 0.625 -0.3125l3.15625 -0.8125zm8.795181 0l0 8.03125l1.484375 0q0.53125 0 0.75 0.203125q0.234375 0.203125 0.234375 0.53125q0 0.328125 -0.234375 0.53125q-0.21875 0.203125 -0.75 0.203125l-4.421875 0q-0.53125 0 -0.765625 -0.203125q-0.21875 -0.203125 -0.21875 -0.53125q0 -0.328125 0.21875 -0.53125q0.234375 -0.203125 0.765625 -0.203125l1.46875 0l0 -6.109375l-1.296875 0.328125q-0.328125 0.09375 -0.484375 0.09375q-0.265625 0 -0.484375 -0.21875q-0.203125 -0.21875 -0.203125 -0.546875q0 -0.296875 0.15625 -0.453125q0.15625 -0.171875 0.625 -0.3125l3.15625 -0.8125zm11.248306 4.046875l0 1.625q0 1.421875 -0.828125 2.734375q-0.8125 1.3125 -2.359375 1.3125q-0.890625 0 -1.5 -0.390625q-0.609375 -0.390625 -1.15625 -1.4375q-0.546875 -1.046875 -0.546875 -2.21875l0 -1.625q0 -1.421875 0.8125 -2.734375q0.828125 -1.3125 2.375 -1.3125q0.875 0 1.484375 0.390625q0.609375 0.390625 1.15625 1.4375q0.5625 1.046875 0.5625 2.21875zm-1.46875 0q0 -1.1875 -0.671875 -2.078125q-0.375 -0.5 -1.0625 -0.5q-0.65625 0 -1.078125 0.546875q-0.640625 0.828125 -0.640625 2.03125l0 1.625q0 1.1875 0.671875 2.078125q0.375 0.5 1.0625 0.5q0.65625 0 1.078125 -0.546875q0.640625 -0.828125 0.640625 -2.03125l0 -1.625zm10.263931 0l0 1.625q0 1.421875 -0.828125 2.734375q-0.8125 1.3125 -2.359375 1.3125q-0.890625 0 -1.5 -0.390625q-0.609375 -0.390625 -1.15625 -1.4375q-0.546875 -1.046875 -0.546875 -2.21875l0 -1.625q0 -1.421875 0.8125 -2.734375q0.828125 -1.3125 2.375 -1.3125q0.875 0 1.484375 0.390625q0.609375 0.390625 1.15625 1.4375q0.5625 1.046875 0.5625 2.21875zm-1.46875 0q0 -1.1875 -0.671875 -2.078125q-0.375 -0.5 -1.0625 -0.5q-0.65625 0 -1.078125 0.546875q-0.640625 0.828125 -0.640625 2.03125l0 1.625q0 1.1875 0.671875 2.078125q0.375 0.5 1.0625 0.5q0.65625 0 1.078125 -0.546875q0.640625 -0.828125 0.640625 -2.03125l0 -1.625zm10.263931 0l0 1.625q0 1.421875 -0.828125 2.734375q-0.8125 1.3125 -2.359375 1.3125q-0.890625 0 -1.5 -0.390625q-0.609375 -0.390625 -1.15625 -1.4375q-0.546875 -1.046875 -0.546875 -2.21875l0 -1.625q0 -1.421875 0.8125 -2.734375q0.828125 -1.3125 2.375 -1.3125q0.875 0 1.484375 0.390625q0.609375 0.390625 1.15625 1.4375q0.5625 1.046875 0.5625 2.21875zm-1.46875 0q0 -1.1875 -0.671875 -2.078125q-0.375 -0.5 -1.0625 -0.5q-0.65625 0 -1.078125 0.546875q-0.640625 0.828125 -0.640625 2.03125l0 1.625q0 1.1875 0.671875 2.078125q0.375 0.5 1.0625 0.5q0.65625 0 1.078125 -0.546875q0.640625 -0.828125 0.640625 -2.03125l0 -1.625zm10.263931 0l0 1.625q0 1.421875 -0.828125 2.734375q-0.8125 1.3125 -2.359375 1.3125q-0.890625 0 -1.5 -0.390625q-0.609375 -0.390625 -1.15625 -1.4375q-0.546875 -1.046875 -0.546875 -2.21875l0 -1.625q0 -1.421875 0.8125 -2.734375q0.828125 -1.3125 2.375 -1.3125q0.875 0 1.484375 0.390625q0.609375 0.390625 1.15625 1.4375q0.5625 1.046875 0.5625 2.21875zm-1.46875 0q0 -1.1875 -0.671875 -2.078125q-0.375 -0.5 -1.0625 -0.5q-0.65625 0 -1.078125 0.546875q-0.640625 0.828125 -0.640625 2.03125l0 1.625q0 1.1875 0.671875 2.078125q0.375 0.5 1.0625 0.5q0.65625 0 1.078125 -0.546875q0.640625 -0.828125 0.640625 -2.03125l0 -1.625zm7.8108063 -4.046875l0 8.03125l1.484375 0q0.53125 0 0.75 0.203125q0.234375 0.203125 0.234375 0.53125q0 0.328125 -0.234375 0.53125q-0.21875 0.203125 -0.75 0.203125l-4.421875 0q-0.53125 0 -0.765625 -0.203125q-0.21875 -0.203125 -0.21875 -0.53125q0 -0.328125 0.21875 -0.53125q0.234375 -0.203125 0.765625 -0.203125l1.46875 0l0 -6.109375l-1.296875 0.328125q-0.328125 0.09375 -0.484375 0.09375q-0.265625 0 -0.484375 -0.21875q-0.203125 -0.21875 -0.203125 -0.546875q0 -0.296875 0.15625 -0.453125q0.15625 -0.171875 0.625 -0.3125l3.15625 -0.8125zm11.248306 4.046875l0 1.625q0 1.421875 -0.828125 2.734375q-0.8125 1.3125 -2.359375 1.3125q-0.890625 0 -1.5 -0.390625q-0.609375 -0.390625 -1.15625 -1.4375q-0.546875 -1.046875 -0.546875 -2.21875l0 -1.625q0 -1.421875 0.8125 -2.734375q0.828125 -1.3125 2.375 -1.3125q0.875 0 1.484375 0.390625q0.609375 0.390625 1.15625 1.4375q0.5625 1.046875 0.5625 2.21875zm-1.46875 0q0 -1.1875 -0.671875 -2.078125q-0.375 -0.5 -1.0625 -0.5q-0.65625 0 -1.078125 0.546875q-0.640625 0.828125 -0.640625 2.03125l0 1.625q0 1.1875 0.671875 2.078125q0.375 0.5 1.0625 0.5q0.65625 0 1.078125 -0.546875q0.640625 -0.828125 0.640625 -2.03125l0 -1.625zm10.263931 0l0 1.625q0 1.421875 -0.828125 2.734375q-0.8125 1.3125 -2.359375 1.3125q-0.890625 0 -1.5 -0.390625q-0.609375 -0.390625 -1.15625 -1.4375q-0.546875 -1.046875 -0.546875 -2.21875l0 -1.625q0 -1.421875 0.8125 -2.734375q0.828125 -1.3125 2.375 -1.3125q0.875 0 1.484375 0.390625q0.609375 0.390625 1.15625 1.4375q0.5625 1.046875 0.5625 2.21875zm-1.46875 0q0 -1.1875 -0.671875 -2.078125q-0.375 -0.5 -1.0625 -0.5q-0.65625 0 -1.078125 0.546875q-0.640625 0.828125 -0.640625 2.03125l0 1.625q0 1.1875 0.671875 2.078125q0.375 0.5 1.0625 0.5q0.65625 0 1.078125 -0.546875q0.640625 -0.828125 0.640625 -2.03125l0 -1.625zm10.263931 0l0 1.625q0 1.421875 -0.828125 2.734375q-0.8125 1.3125 -2.359375 1.3125q-0.890625 0 -1.5 -0.390625q-0.609375 -0.390625 -1.15625 -1.4375q-0.546875 -1.046875 -0.546875 -2.21875l0 -1.625q0 -1.421875 0.8125 -2.734375q0.828125 -1.3125 2.375 -1.3125q0.875 0 1.484375 0.390625q0.609375 0.390625 1.15625 1.4375q0.5625 1.046875 0.5625 2.21875zm-1.46875 0q0 -1.1875 -0.671875 -2.078125q-0.375 -0.5 -1.0625 -0.5q-0.65625 0 -1.078125 0.546875q-0.640625 0.828125 -0.640625 2.03125l0 1.625q0 1.1875 0.671875 2.078125q0.375 0.5 1.0625 0.5q0.65625 0 1.078125 -0.546875q0.640625 -0.828125 0.640625 -2.03125l0 -1.625z" fill-rule="nonzero"/><path fill="#010000" fill-opacity="0.0" d="m79.36145 47.678383l8.795181 0l0 16.602783l-8.795181 0l0 -16.602783z" fill-rule="nonzero"/><path fill="#ffffff" d="m86.8302 56.379997l-6.125 0l0 -1.328125l6.125 0l0 1.328125z" fill-rule="nonzero"/><path fill="#000000" fill-opacity="0.0" d="m88.15663 47.678383l61.56627 0l0 16.602783l-61.56627 0l0 -16.602783z" fill-rule="nonzero"/><path fill="#ffffff" d="m93.29726 50.379997l0 8.03125l1.484375 0q0.53125 0 0.75 0.203125q0.234375 0.203125 0.234375 0.53125q0 0.328125 -0.234375 0.53125q-0.21875 0.203125 -0.75 0.203125l-4.421875 0q-0.53125 0 -0.765625 -0.203125q-0.21875 -0.203125 -0.21875 -0.53125q0 -0.328125 0.21875 -0.53125q0.234375 -0.203125 0.765625 -0.203125l1.46875 0l0 -6.109375l-1.296875 0.328125q-0.328125 0.09375 -0.484375 0.09375q-0.265625 0 -0.484375 -0.21875q-0.203125 -0.21875 -0.203125 -0.546875q0 -0.296875 0.15625 -0.453125q0.15625 -0.171875 0.625 -0.3125l3.15625 -0.8125zm8.795181 0l0 8.03125l1.484375 0q0.53125 0 0.75 0.203125q0.234375 0.203125 0.234375 0.53125q0 0.328125 -0.234375 0.53125q-0.21875 0.203125 -0.75 0.203125l-4.421875 0q-0.53125 0 -0.765625 -0.203125q-0.21875 -0.203125 -0.21875 -0.53125q0 -0.328125 0.21875 -0.53125q0.234375 -0.203125 0.765625 -0.203125l1.46875 0l0 -6.109375l-1.296875 0.328125q-0.328125 0.09375 -0.484375 0.09375q-0.265625 0 -0.484375 -0.21875q-0.203125 -0.21875 -0.203125 -0.546875q0 -0.296875 0.15625 -0.453125q0.15625 -0.171875 0.625 -0.3125l3.15625 -0.8125zm8.795181 0l0 8.03125l1.484375 0q0.53125 0 0.75 0.203125q0.234375 0.203125 0.234375 0.53125q0 0.328125 -0.234375 0.53125q-0.21875 0.203125 -0.75 0.203125l-4.421875 0q-0.53125 0 -0.765625 -0.203125q-0.21875 -0.203125 -0.21875 -0.53125q0 -0.328125 0.21875 -0.53125q0.234375 -0.203125 0.765625 -0.203125l1.46875 0l0 -6.109375l-1.296875 0.328125q-0.328125 0.09375 -0.484375 0.09375q-0.265625 0 -0.484375 -0.21875q-0.203125 -0.21875 -0.203125 -0.546875q0 -0.296875 0.15625 -0.453125q0.15625 -0.171875 0.625 -0.3125l3.15625 -0.8125zm8.795181 0l0 8.03125l1.484375 0q0.53125 0 0.75 0.203125q0.234375 0.203125 0.234375 0.53125q0 0.328125 -0.234375 0.53125q-0.21875 0.203125 -0.75 0.203125l-4.421875 0q-0.53125 0 -0.765625 -0.203125q-0.21875 -0.203125 -0.21875 -0.53125q0 -0.328125 0.21875 -0.53125q0.234375 -0.203125 0.765625 -0.203125l1.46875 0l0 -6.109375l-1.296875 0.328125q-0.328125 0.09375 -0.484375 0.09375q-0.265625 0 -0.484375 -0.21875q-0.203125 -0.21875 -0.203125 -0.546875q0 -0.296875 0.15625 -0.453125q0.15625 -0.171875 0.625 -0.3125l3.15625 -0.8125zm11.248306 4.046875l0 1.625q0 1.421875 -0.828125 2.734375q-0.8125 1.3125 -2.359375 1.3125q-0.890625 0 -1.5 -0.390625q-0.609375 -0.390625 -1.15625 -1.4375q-0.546875 -1.046875 -0.546875 -2.21875l0 -1.625q0 -1.421875 0.8125 -2.734375q0.828125 -1.3125 2.375 -1.3125q0.875 0 1.484375 0.390625q0.609375 0.390625 1.15625 1.4375q0.5625 1.046875 0.5625 2.21875zm-1.46875 0q0 -1.1875 -0.671875 -2.078125q-0.375 -0.5 -1.0625 -0.5q-0.65625 0 -1.078125 0.546875q-0.640625 0.828125 -0.640625 2.03125l0 1.625q0 1.1875 0.671875 2.078125q0.375 0.5 1.0625 0.5q0.65625 0 1.078125 -0.546875q0.640625 -0.828125 0.640625 -2.03125l0 -1.625zm10.263931 0l0 1.625q0 1.421875 -0.828125 2.734375q-0.8125 1.3125 -2.359375 1.3125q-0.890625 0 -1.5 -0.390625q-0.609375 -0.390625 -1.15625 -1.4375q-0.546875 -1.046875 -0.546875 -2.21875l0 -1.625q0 -1.421875 0.8125 -2.734375q0.828125 -1.3125 2.375 -1.3125q0.875 0 1.484375 0.390625q0.609375 0.390625 1.15625 1.4375q0.5625 1.046875 0.5625 2.21875zm-1.46875 0q0 -1.1875 -0.671875 -2.078125q-0.375 -0.5 -1.0625 -0.5q-0.65625 0 -1.078125 0.546875q-0.640625 0.828125 -0.640625 2.03125l0 1.625q0 1.1875 0.671875 2.078125q0.375 0.5 1.0625 0.5q0.65625 0 1.078125 -0.546875q0.640625 -0.828125 0.640625 -2.03125l0 -1.625zm10.263931 0l0 1.625q0 1.421875 -0.828125 2.734375q-0.8125 1.3125 -2.359375 1.3125q-0.890625 0 -1.5 -0.390625q-0.609375 -0.390625 -1.15625 -1.4375q-0.546875 -1.046875 -0.546875 -2.21875l0 -1.625q0 -1.421875 0.8125 -2.734375q0.828125 -1.3125 2.375 -1.3125q0.875 0 1.484375 0.390625q0.609375 0.390625 1.15625 1.4375q0.5625 1.046875 0.5625 2.21875zm-1.46875 0q0 -1.1875 -0.671875 -2.078125q-0.375 -0.5 -1.0625 -0.5q-0.65625 0 -1.078125 0.546875q-0.640625 0.828125 -0.640625 2.03125l0 1.625q0 1.1875 0.671875 2.078125q0.375 0.5 1.0625 0.5q0.65625 0 1.078125 -0.546875q0.640625 -0.828125 0.640625 -2.03125l0 -1.625z" fill-rule="nonzero"/><path fill="#010000" fill-opacity="0.0" d="m149.7229 47.678383l0 0l0 16.602783l0 0l0 -16.602783z" fill-rule="nonzero"/><path fill="#ffffff" d="m79.36145 60.833332l70.36145 0l0 1.3199997l-70.36145 0l0 -1.3199997z" fill-rule="nonzero"/><path fill="#ffffff" d="m93.29726 67.979996l0 8.03125l1.484375 0q0.53125 0 0.75 0.203125q0.234375 0.203125 0.234375 0.53125q0 0.328125 -0.234375 0.53125q-0.21875 0.203125 -0.75 0.203125l-4.421875 0q-0.53125 0 -0.765625 -0.203125q-0.21875 -0.203125 -0.21875 -0.53125q0 -0.328125 0.21875 -0.53125q0.234375 -0.203125 0.765625 -0.203125l1.46875 0l0 -6.109375l-1.296875 0.328125q-0.328125 0.09375 -0.484375 0.09375q-0.265625 0 -0.484375 -0.21875q-0.203125 -0.21875 -0.203125 -0.546875q0 -0.296875 0.15625 -0.453125q0.15625 -0.171875 0.625 -0.3125l3.15625 -0.8125zm8.795181 0l0 8.03125l1.484375 0q0.53125 0 0.75 0.203125q0.234375 0.203125 0.234375 0.53125q0 0.328125 -0.234375 0.53125q-0.21875 0.203125 -0.75 0.203125l-4.421875 0q-0.53125 0 -0.765625 -0.203125q-0.21875 -0.203125 -0.21875 -0.53125q0 -0.328125 0.21875 -0.53125q0.234375 -0.203125 0.765625 -0.203125l1.46875 0l0 -6.109375l-1.296875 0.328125q-0.328125 0.09375 -0.484375 0.09375q-0.265625 0 -0.484375 -0.21875q-0.203125 -0.21875 -0.203125 -0.546875q0 -0.296875 0.15625 -0.453125q0.15625 -0.171875 0.625 -0.3125l3.15625 -0.8125zm11.248306 4.046875l0 1.625q0 1.421875 -0.828125 2.734375q-0.8125 1.3125 -2.359375 1.3125q-0.890625 0 -1.5 -0.390625q-0.609375 -0.390625 -1.15625 -1.4375q-0.546875 -1.046875 -0.546875 -2.21875l0 -1.625q0 -1.421875 0.8125 -2.734375q0.828125 -1.3125 2.375 -1.3125q0.875 0 1.484375 0.390625q0.609375 0.390625 1.15625 1.4375q0.5625 1.046875 0.5625 2.21875zm-1.46875 0q0 -1.1875 -0.671875 -2.078125q-0.375 -0.5 -1.0625 -0.5q-0.65625 0 -1.078125 0.546875q-0.640625 0.828125 -0.640625 2.03125l0 1.625q0 1.1875 0.671875 2.078125q0.375 0.5 1.0625 0.5q0.65625 0 1.078125 -0.546875q0.640625 -0.828125 0.640625 -2.03125l0 -1.625zm7.8108063 -4.046875l0 8.03125l1.484375 0q0.53125 0 0.75 0.203125q0.234375 0.203125 0.234375 0.53125q0 0.328125 -0.234375 0.53125q-0.21875 0.203125 -0.75 0.203125l-4.421875 0q-0.53125 0 -0.765625 -0.203125q-0.21875 -0.203125 -0.21875 -0.53125q0 -0.328125 0.21875 -0.53125q0.234375 -0.203125 0.765625 -0.203125l1.46875 0l0 -6.109375l-1.296875 0.328125q-0.328125 0.09375 -0.484375 0.09375q-0.265625 0 -0.484375 -0.21875q-0.203125 -0.21875 -0.203125 -0.546875q0 -0.296875 0.15625 -0.453125q0.15625 -0.171875 0.625 -0.3125l3.15625 -0.8125zm11.248306 4.046875l0 1.625q0 1.421875 -0.828125 2.734375q-0.8125 1.3125 -2.359375 1.3125q-0.890625 0 -1.5 -0.390625q-0.609375 -0.390625 -1.15625 -1.4375q-0.546875 -1.046875 -0.546875 -2.21875l0 -1.625q0 -1.421875 0.8125 -2.734375q0.828125 -1.3125 2.375 -1.3125q0.875 0 1.484375 0.390625q0.609375 0.390625 1.15625 1.4375q0.5625 1.046875 0.5625 2.21875zm-1.46875 0q0 -1.1875 -0.671875 -2.078125q-0.375 -0.5 -1.0625 -0.5q-0.65625 0 -1.078125 0.546875q-0.640625 0.828125 -0.640625 2.03125l0 1.625q0 1.1875 0.671875 2.078125q0.375 0.5 1.0625 0.5q0.65625 0 1.078125 -0.546875q0.640625 -0.828125 0.640625 -2.03125l0 -1.625zm10.263931 0l0 1.625q0 1.421875 -0.828125 2.734375q-0.8125 1.3125 -2.359375 1.3125q-0.890625 0 -1.5 -0.390625q-0.609375 -0.390625 -1.15625 -1.4375q-0.546875 -1.046875 -0.546875 -2.21875l0 -1.625q0 -1.421875 0.8125 -2.734375q0.828125 -1.3125 2.375 -1.3125q0.875 0 1.484375 0.390625q0.609375 0.390625 1.15625 1.4375q0.5625 1.046875 0.5625 2.21875zm-1.46875 0q0 -1.1875 -0.671875 -2.078125q-0.375 -0.5 -1.0625 -0.5q-0.65625 0 -1.078125 0.546875q-0.640625 0.828125 -0.640625 2.03125l0 1.625q0 1.1875 0.671875 2.078125q0.375 0.5 1.0625 0.5q0.65625 0 1.078125 -0.546875q0.640625 -0.828125 0.640625 -2.03125l0 -1.625zm7.8108063 -4.046875l0 8.03125l1.484375 0q0.53125 0 0.75 0.203125q0.234375 0.203125 0.234375 0.53125q0 0.328125 -0.234375 0.53125q-0.21875 0.203125 -0.75 0.203125l-4.421875 0q-0.53125 0 -0.765625 -0.203125q-0.21875 -0.203125 -0.21875 -0.53125q0 -0.328125 0.21875 -0.53125q0.234375 -0.203125 0.765625 -0.203125l1.46875 0l0 -6.109375l-1.296875 0.328125q-0.328125 0.09375 -0.484375 0.09375q-0.265625 0 -0.484375 -0.21875q-0.203125 -0.21875 -0.203125 -0.546875q0 -0.296875 0.15625 -0.453125q0.15625 -0.171875 0.625 -0.3125l3.15625 -0.8125z" fill-rule="nonzero"/><path fill="#000000" fill-opacity="0.0" d="m73.191605 31.212074l102.80315 0" fill-rule="evenodd"/><path stroke="#ffffff" stroke-width="1.0" stroke-linejoin="round" stroke-linecap="butt" d="m73.191605 31.212074l102.80315 0" fill-rule="evenodd"/></g></svg>