<svg version="1.1" viewBox="0.0 0.0 384.0 192.0" fill="none" stroke="none" stroke-linecap="square" stroke-miterlimit="10" xmlns:xlink="http://www.w3.org/1999/xlink" xmlns="http://www.w3.org/2000/svg"><clipPath id="p.0"><path d="m0 0l384.0 0l0 192.0l-384.0 0l0 -192.0z" clip-rule="nonzero"/></clipPath><g clip-path="url(#p.0)"><path fill="#000000" fill-opacity="0.0" d="m0 0l384.0 0l0 192.0l-384.0 0z" fill-rule="evenodd"/><path fill="#343434" d="m0 0l384.0 0l0 192.0l-384.0 0z" fill-rule="evenodd"/><path fill="#000000" fill-opacity="0.0" d="m134.00262 37.59055l176.6614 0l0 42.01575l-176.6614 0z" fill-rule="evenodd"/><path fill="#ffffff" d="m142.83075 68.19805l0 -1.65625l10.640625 0l0 1.65625l-10.640625 0zm10.375717 0l0 -1.65625l10.640625 0l0 1.65625l-10.640625 0zm10.375717 0l0 -1.65625l10.640625 0l0 1.65625l-10.640625 0zm10.375717 0l0 -1.65625l10.640625 0l0 1.65625l-10.640625 0zm10.375717 0l0 -1.65625l10.640625 0l0 1.65625l-10.640625 0z" fill-rule="nonzero"/><path fill="#000000" fill-opacity="0.0" d="m96.0 32.0l183.1181 0l0 156.7559l-183.1181 0z" fill-rule="evenodd"/><path fill="#ffffff" d="m178.7203 46.82625l0 10.21875l1.890625 0q0.671875 0 0.953125 0.265625q0.296875 0.265625 0.296875 0.6875q0 0.40625 -0.296875 0.671875q-0.28125 0.25 -0.953125 0.25l-5.640625 0q-0.671875 0 -0.96875 -0.25q-0.28125 -0.265625 -0.28125 -0.6875q0 -0.40625 0.28125 -0.671875q0.296875 -0.265625 0.96875 -0.265625l1.890625 0l0 -7.78125l-1.671875 0.4375q-0.40625 0.109375 -0.609375 0.109375q-0.34375 0 -0.609375 -0.28125q-0.25 -0.28125 -0.25 -0.6875q0 -0.375 0.1875 -0.59375q0.1875 -0.21875 0.796875 -0.375l4.015625 -1.046875zm8.679947 2.171875l0 2.21875q1.03125 -0.328125 1.875 -0.328125q1.734375 0 2.859375 1.1875q1.140625 1.171875 1.140625 3.03125q0 1.90625 -1.15625 3.0q-1.140625 1.078125 -3.515625 1.078125q-2.09375 0 -3.328125 -0.78125q-0.703125 -0.453125 -0.703125 -1.046875q0 -0.375 0.28125 -0.65625q0.28125 -0.28125 0.65625 -0.28125q0.3125 0 0.6875 0.3125q0.375 0.296875 0.78125 0.421875q0.59375 0.171875 1.5 0.171875q1.703125 0 2.3125 -0.53125q0.625 -0.546875 0.625 -1.671875q0 -1.109375 -0.609375 -1.734375q-0.59375 -0.625 -1.53125 -0.625q-1.0 0 -2.296875 0.65625q-0.296875 0.15625 -0.515625 0.15625q-0.390625 0 -0.671875 -0.296875q-0.265625 -0.296875 -0.265625 -0.75l0 -5.390625l5.71875 0q0.671875 0 0.953125 0.265625q0.296875 0.25 0.296875 0.671875q0 0.40625 -0.296875 0.671875q-0.28125 0.25 -0.953125 0.25l-3.84375 0z" fill-rule="nonzero"/><path fill="#ffffff" d="m111.546875 70.50625l0 10.21875l1.890625 0q0.671875 0 0.953125 0.265625q0.296875 0.265625 0.296875 0.6875q0 0.40625 -0.296875 0.671875q-0.28125 0.25 -0.953125 0.25l-5.640625 0q-0.671875 0 -0.96875 -0.25q-0.28125 -0.265625 -0.28125 -0.6875q0 -0.40625 0.28125 -0.671875q0.296875 -0.265625 0.96875 -0.265625l1.890625 0l0 -7.78125l-1.671875 0.4375q-0.40625 0.109375 -0.609375 0.109375q-0.34375 0 -0.609375 -0.28125q-0.25 -0.28125 -0.25 -0.6875q0 -0.375 0.1875 -0.59375q0.1875 -0.21875 0.796875 -0.375l4.015625 -1.046875zm8.508072 10.21875l4.078125 0q0.34375 -0.265625 0.640625 -0.265625q0.4375 0 0.6875 0.28125q0.25 0.28125 0.25 0.96875l0 0.890625l-8.515625 0l0 -1.984375q5.046875 -4.15625 6.09375 -5.34375q0.53125 -0.609375 0.53125 -1.15625q0 -0.6875 -0.59375 -1.203125q-0.59375 -0.53125 -1.59375 -0.53125q-1.0 0 -1.671875 0.578125q-0.34375 0.3125 -0.546875 0.921875q-0.125 0.390625 -0.359375 0.5625q-0.21875 0.15625 -0.546875 0.15625q-0.375 0 -0.65625 -0.265625q-0.28125 -0.28125 -0.28125 -0.65625q0 -0.546875 0.5 -1.359375q0.515625 -0.828125 1.484375 -1.3125q0.96875 -0.5 2.109375 -0.5q1.765625 0 2.890625 1.078125q1.125 1.0625 1.125 2.59375q0 0.765625 -0.328125 1.4375q-0.3125 0.65625 -1.546875 1.8125q-0.953125 0.921875 -3.75 3.296875zm17.008072 -5.0625l0 2.0625q0 1.8125 -1.0625 3.484375q-1.046875 1.65625 -3.0 1.65625q-1.125 0 -1.90625 -0.484375q-0.78125 -0.5 -1.484375 -1.828125q-0.6875 -1.34375 -0.6875 -2.828125l0 -2.0625q0 -1.8125 1.046875 -3.484375q1.046875 -1.671875 3.0 -1.671875q1.125 0 1.90625 0.5q0.78125 0.484375 1.484375 1.828125q0.703125 1.328125 0.703125 2.828125zm-1.875 0q0 -1.515625 -0.84375 -2.65625q-0.484375 -0.625 -1.359375 -0.625q-0.84375 0 -1.390625 0.6875q-0.8125 1.046875 -0.8125 2.59375l0 2.0625q0 1.515625 0.859375 2.65625q0.484375 0.625 1.359375 0.625q0.84375 0 1.375 -0.6875q0.8125 -1.046875 0.8125 -2.59375l0 -2.0625z" fill-rule="nonzero"/><path fill="#ffffff" d="m145.44609 77.74062q0 1.703125 -0.5625 3.46875q-0.421875 1.28125 -1.3125 2.859375q-0.625 1.125 -0.9375 1.390625q-0.296875 0.265625 -0.671875 0.265625q-0.421875 0 -0.71875 -0.296875q-0.296875 -0.28125 -0.296875 -0.703125q0 -0.28125 0.234375 -0.671875q1.0625 -1.734375 1.546875 -3.234375q0.484375 -1.515625 0.484375 -3.078125q0 -1.5625 -0.484375 -3.0625q-0.484375 -1.515625 -1.546875 -3.25q-0.234375 -0.390625 -0.234375 -0.671875q0 -0.40625 0.296875 -0.703125q0.296875 -0.296875 0.71875 -0.296875q0.359375 0 0.640625 0.234375q0.390625 0.328125 1.03125 1.53125q0.9375 1.734375 1.265625 2.84375q0.546875 1.734375 0.546875 3.375z" fill-rule="nonzero"/><path fill="#ffffff" d="m157.13554 70.50625l0 10.21875l1.890625 0q0.671875 0 0.953125 0.265625q0.296875 0.265625 0.296875 0.6875q0 0.40625 -0.296875 0.671875q-0.28125 0.25 -0.953125 0.25l-5.640625 0q-0.671875 0 -0.96875 -0.25q-0.28125 -0.265625 -0.28125 -0.6875q0 -0.40625 0.28125 -0.671875q0.296875 -0.265625 0.96875 -0.265625l1.890625 0l0 -7.78125l-1.671875 0.4375q-0.40625 0.109375 -0.609375 0.109375q-0.34375 0 -0.609375 -0.28125q-0.25 -0.28125 -0.25 -0.6875q0 -0.375 0.1875 -0.59375q0.1875 -0.21875 0.796875 -0.375l4.015625 -1.046875zm12.898697 6.125q0.71875 0.5625 1.078125 1.265625q0.359375 0.703125 0.359375 1.546875q0 0.9375 -0.46875 1.734375q-0.453125 0.78125 -1.4375 1.234375q-0.984375 0.453125 -2.1875 0.453125q-1.203125 0 -2.171875 -0.453125q-0.96875 -0.453125 -1.421875 -1.234375q-0.453125 -0.796875 -0.453125 -1.734375q0 -0.84375 0.359375 -1.546875q0.359375 -0.703125 1.078125 -1.265625q-0.640625 -0.578125 -0.953125 -1.234375q-0.3125 -0.65625 -0.3125 -1.390625q0 -1.421875 1.09375 -2.453125q1.09375 -1.046875 2.796875 -1.046875q1.71875 0 2.8125 1.046875q1.09375 1.03125 1.09375 2.453125q0 0.734375 -0.328125 1.390625q-0.3125 0.65625 -0.9375 1.234375zm-0.65625 -2.578125q0 -0.703125 -0.546875 -1.1875q-0.53125 -0.484375 -1.453125 -0.484375q-0.921875 0 -1.46875 0.484375q-0.546875 0.484375 -0.546875 1.1875q0 0.6875 0.546875 1.1875q0.546875 0.484375 1.46875 0.484375q0.921875 0 1.453125 -0.484375q0.546875 -0.5 0.546875 -1.1875zm0.21875 5.484375q0 -0.734375 -0.640625 -1.328125q-0.625 -0.59375 -1.5625 -0.59375q-0.9375 0 -1.578125 0.59375q-0.625 0.59375 -0.625 1.34375q0 0.59375 0.546875 1.03125q0.546875 0.421875 1.65625 0.421875q1.125 0 1.65625 -0.421875q0.546875 -0.4375 0.546875 -1.046875zm13.054947 -3.875l0 2.0625q0 1.8125 -1.0625 3.484375q-1.046875 1.65625 -3.0 1.65625q-1.125 0 -1.90625 -0.484375q-0.78125 -0.5 -1.484375 -1.828125q-0.6875 -1.34375 -0.6875 -2.828125l0 -2.0625q0 -1.8125 1.046875 -3.484375q1.046875 -1.671875 3.0 -1.671875q1.125 0 1.90625 0.5q0.78125 0.484375 1.484375 1.828125q0.703125 1.328125 0.703125 2.828125zm-1.875 0q0 -1.515625 -0.84375 -2.65625q-0.484375 -0.625 -1.359375 -0.625q-0.84375 0 -1.390625 0.6875q-0.8125 1.046875 -0.8125 2.59375l0 2.0625q0 1.515625 0.859375 2.65625q0.484375 0.625 1.359375 0.625q0.84375 0 1.375 -0.6875q0.8125 -1.046875 0.8125 -2.59375l0 -2.0625zm13.070572 0l0 2.0625q0 1.8125 -1.0625 3.484375q-1.046875 1.65625 -3.0 1.65625q-1.125 0 -1.90625 -0.484375q-0.78125 -0.5 -1.484375 -1.828125q-0.6875 -1.34375 -0.6875 -2.828125l0 -2.0625q0 -1.8125 1.046875 -3.484375q1.046875 -1.671875 3.0 -1.671875q1.125 0 1.90625 0.5q0.78125 0.484375 1.484375 1.828125q0.703125 1.328125 0.703125 2.828125zm-1.875 0q0 -1.515625 -0.84375 -2.65625q-0.484375 -0.625 -1.359375 -0.625q-0.84375 0 -1.390625 0.6875q-0.8125 1.046875 -0.8125 2.59375l0 2.0625q0 1.515625 0.859375 2.65625q0.484375 0.625 1.359375 0.625q0.84375 0 1.375 -0.6875q0.8125 -1.046875 0.8125 -2.59375l0 -2.0625z" fill-rule="nonzero"/><path fill="#010000" fill-opacity="0.0" d="m149.78229 89.7883l33.586716 0l0 21.134033l-33.586716 0l0 -21.134033z" fill-rule="nonzero"/><path fill="#ffffff" d="m156.32916 93.22624l0 10.21875l1.890625 0q0.671875 0 0.953125 0.265625q0.296875 0.265625 0.296875 0.6875q0 0.40625 -0.296875 0.671875q-0.28125 0.25 -0.953125 0.25l-5.640625 0q-0.671875 0 -0.96875 -0.25q-0.28125 -0.265625 -0.28125 -0.6875q0 -0.40625 0.28125 -0.671875q0.296875 -0.265625 0.96875 -0.265625l1.890625 0l0 -7.78125l-1.671875 0.4375q-0.40625 0.109375 -0.609375 0.109375q-0.34375 0 -0.609375 -0.28125q-0.25 -0.28125 -0.25 -0.6875q0 -0.375 0.1875 -0.59375q0.1875 -0.21875 0.796875 -0.375l4.015625 -1.046875zm8.508072 10.21875l4.078125 0q0.34375 -0.265625 0.640625 -0.265625q0.4375 0 0.6875 0.28125q0.25 0.28125 0.25 0.96875l0 0.890625l-8.515625 0l0 -1.984375q5.046875 -4.15625 6.09375 -5.34375q0.53125 -0.609375 0.53125 -1.15625q0 -0.6875 -0.59375 -1.203125q-0.59375 -0.53125 -1.59375 -0.53125q-1.0 0 -1.671875 0.578125q-0.34375 0.3125 -0.546875 0.921875q-0.125 0.390625 -0.359375 0.5625q-0.21875 0.15625 -0.546875 0.15625q-0.375 0 -0.65625 -0.265625q-0.28125 -0.28125 -0.28125 -0.65625q0 -0.546875 0.5 -1.359375q0.515625 -0.828125 1.484375 -1.3125q0.96875 -0.5 2.109375 -0.5q1.765625 0 2.890625 1.078125q1.125 1.0625 1.125 2.59375q0 0.765625 -0.328125 1.4375q-0.3125 0.65625 -1.546875 1.8125q-0.953125 0.921875 -3.75 3.296875zm17.008072 -5.0625l0 2.0625q0 1.8125 -1.0625 3.484375q-1.046875 1.65625 -3.0 1.65625q-1.125 0 -1.90625 -0.484375q-0.78125 -0.5 -1.484375 -1.828125q-0.6875 -1.34375 -0.6875 -2.828125l0 -2.0625q0 -1.8125 1.046875 -3.484375q1.046875 -1.671875 3.0 -1.671875q1.125 0 1.90625 0.5q0.78125 0.484375 1.484375 1.828125q0.703125 1.328125 0.703125 2.828125zm-1.875 0q0 -1.515625 -0.84375 -2.65625q-0.484375 -0.625 -1.359375 -0.625q-0.84375 0 -1.390625 0.6875q-0.8125 1.046875 -0.8125 2.59375l0 2.0625q0 1.515625 0.859375 2.65625q0.484375 0.625 1.359375 0.625q0.84375 0 1.375 -0.6875q0.8125 -1.046875 0.8125 -2.59375l0 -2.0625z" fill-rule="nonzero"/><path fill="#ffffff" d="m149.78229 106.533325l33.586716 0l0 1.6800003l-33.586716 0l0 -1.6800003z" fill-rule="nonzero"/><path fill="#ffffff" d="m164.82161 121.344986q0.671875 -0.5625 1.28125 -0.8125q0.609375 -0.265625 1.3125 -0.265625q1.453125 0 2.5625 1.171875q1.109375 1.15625 1.109375 2.90625q0 1.640625 -1.03125 2.640625q-1.03125 1.0 -2.78125 1.0q-1.46875 0 -2.421875 -0.671875q-0.9375 -0.6875 -1.421875 -2.109375q-0.484375 -1.421875 -0.484375 -3.171875q0 -2.09375 0.953125 -3.484375q0.953125 -1.390625 2.25 -2.15625q1.296875 -0.765625 2.734375 -0.765625q1.140625 0 1.765625 0.453125q0.40625 0.296875 0.40625 0.765625q0 0.40625 -0.28125 0.6875q-0.265625 0.28125 -0.640625 0.28125q-0.21875 0 -0.625 -0.21875q-0.25 -0.125 -0.484375 -0.125q-0.890625 0 -1.84375 0.5q-0.953125 0.5 -1.65625 1.546875q-0.484375 0.734375 -0.703125 1.828125zm0.28125 2.890625q0.28125 1.09375 0.78125 1.5q0.5 0.390625 1.421875 0.390625q0.90625 0 1.40625 -0.484375q0.5 -0.484375 0.5 -1.3125q0 -0.953125 -0.578125 -1.578125q-0.5625 -0.625 -1.265625 -0.625q-0.5625 0 -1.21875 0.5625q-0.640625 0.546875 -1.046875 1.546875zm16.742447 -3.453125l0 2.0625q0 1.8125 -1.0625 3.484375q-1.046875 1.65625 -3.0 1.65625q-1.125 0 -1.90625 -0.484375q-0.78125 -0.5 -1.484375 -1.828125q-0.6875 -1.34375 -0.6875 -2.828125l0 -2.0625q0 -1.8125 1.046875 -3.484375q1.046875 -1.671875 3.0 -1.671875q1.125 0 1.90625 0.5q0.78125 0.484375 1.484375 1.828125q0.703125 1.328125 0.703125 2.828125zm-1.875 0q0 -1.515625 -0.84375 -2.65625q-0.484375 -0.625 -1.359375 -0.625q-0.84375 0 -1.390625 0.6875q-0.8125 1.046875 -0.8125 2.59375l0 2.0625q0 1.515625 0.859375 2.65625q0.484375 0.625 1.359375 0.625q0.84375 0 1.375 -0.6875q0.8125 -1.046875 0.8125 -2.59375l0 -2.0625z" fill-rule="nonzero"/><path fill="#ffe599" d="m193.04088 120.782486l0 2.0625q0 1.8125 -1.0625 3.484375q-1.046875 1.65625 -3.0 1.65625q-1.125 0 -1.90625 -0.484375q-0.78125 -0.5 -1.484375 -1.828125q-0.6875 -1.34375 -0.6875 -2.828125l0 -2.0625q0 -1.8125 1.046875 -3.484375q1.046875 -1.671875 3.0 -1.671875q1.125 0 1.90625 0.5q0.78125 0.484375 1.484375 1.828125q0.703125 1.328125 0.703125 2.828125zm-1.875 0q0 -1.515625 -0.84375 -2.65625q-0.484375 -0.625 -1.359375 -0.625q-0.84375 0 -1.390625 0.6875q-0.8125 1.046875 -0.8125 2.59375l0 2.0625q0 1.515625 0.859375 2.65625q0.484375 0.625 1.359375 0.625q0.84375 0 1.375 -0.6875q0.8125 -1.046875 0.8125 -2.59375l0 -2.0625z" fill-rule="nonzero"/><path fill="#010000" fill-opacity="0.0" d="m160.97786 134.58829l33.586716 0l0 21.134033l-33.586716 0l0 -21.134033z" fill-rule="nonzero"/><path fill="#ffffff" d="m164.82161 143.74498q0.671875 -0.5625 1.28125 -0.8125q0.609375 -0.265625 1.3125 -0.265625q1.453125 0 2.5625 1.171875q1.109375 1.15625 1.109375 2.90625q0 1.640625 -1.03125 2.640625q-1.03125 1.0 -2.78125 1.0q-1.46875 0 -2.421875 -0.671875q-0.9375 -0.6875 -1.421875 -2.109375q-0.484375 -1.421875 -0.484375 -3.171875q0 -2.09375 0.953125 -3.484375q0.953125 -1.390625 2.25 -2.15625q1.296875 -0.765625 2.734375 -0.765625q1.140625 0 1.765625 0.453125q0.40625 0.296875 0.40625 0.765625q0 0.40625 -0.28125 0.6875q-0.265625 0.28125 -0.640625 0.28125q-0.21875 0 -0.625 -0.21875q-0.25 -0.125 -0.484375 -0.125q-0.890625 0 -1.84375 0.5q-0.953125 0.5 -1.65625 1.546875q-0.484375 0.734375 -0.703125 1.828125zm0.28125 2.890625q0.28125 1.09375 0.78125 1.5q0.5 0.390625 1.421875 0.390625q0.90625 0 1.40625 -0.484375q0.5 -0.484375 0.5 -1.3125q0 -0.953125 -0.578125 -1.578125q-0.5625 -0.625 -1.265625 -0.625q-0.5625 0 -1.21875 0.5625q-0.640625 0.546875 -1.046875 1.546875zm16.742447 -3.453125l0 2.0625q0 1.8125 -1.0625 3.484375q-1.046875 1.65625 -3.0 1.65625q-1.125 0 -1.90625 -0.484375q-0.78125 -0.5 -1.484375 -1.828125q-0.6875 -1.34375 -0.6875 -2.828125l0 -2.0625q0 -1.8125 1.046875 -3.484375q1.046875 -1.671875 3.0 -1.671875q1.125 0 1.90625 0.5q0.78125 0.484375 1.484375 1.828125q0.703125 1.328125 0.703125 2.828125zm-1.875 0q0 -1.515625 -0.84375 -2.65625q-0.484375 -0.625 -1.359375 -0.625q-0.84375 0 -1.390625 0.6875q-0.8125 1.046875 -0.8125 2.59375l0 2.0625q0 1.515625 0.859375 2.65625q0.484375 0.625 1.359375 0.625q0.84375 0 1.375 -0.6875q0.8125 -1.046875 0.8125 -2.59375l0 -2.0625zm13.070572 0l0 2.0625q0 1.8125 -1.0625 3.484375q-1.046875 1.65625 -3.0 1.65625q-1.125 0 -1.90625 -0.484375q-0.78125 -0.5 -1.484375 -1.828125q-0.6875 -1.34375 -0.6875 -2.828125l0 -2.0625q0 -1.8125 1.046875 -3.484375q1.046875 -1.671875 3.0 -1.671875q1.125 0 1.90625 0.5q0.78125 0.484375 1.484375 1.828125q0.703125 1.328125 0.703125 2.828125zm-1.875 0q0 -1.515625 -0.84375 -2.65625q-0.484375 -0.625 -1.359375 -0.625q-0.84375 0 -1.390625 0.6875q-0.8125 1.046875 -0.8125 2.59375l0 2.0625q0 1.515625 0.859375 2.65625q0.484375 0.625 1.359375 0.625q0.84375 0 1.375 -0.6875q0.8125 -1.046875 0.8125 -2.59375l0 -2.0625z" fill-rule="nonzero"/><path fill="#010000" fill-opacity="0.0" d="m194.56458 134.58829l0 0l0 21.134033l0 0l0 -21.134033z" fill-rule="nonzero"/><path fill="#ffffff" d="m160.97786 151.33331l33.586716 0l0 1.6799927l-33.586716 0l0 -1.6799927z" fill-rule="nonzero"/><path fill="#ffffff" d="m193.04088 165.58247l0 2.0625q0 1.8125 -1.0625 3.484375q-1.046875 1.65625 -3.0 1.65625q-1.125 0 -1.90625 -0.484375q-0.78125 -0.5 -1.484375 -1.828125q-0.6875 -1.34375 -0.6875 -2.828125l0 -2.0625q0 -1.8125 1.046875 -3.484375q1.046875 -1.671875 3.0 -1.671875q1.125 0 1.90625 0.5q0.78125 0.484375 1.484375 1.828125q0.703125 1.328125 0.703125 2.828125zm-1.875 0q0 -1.515625 -0.84375 -2.65625q-0.484375 -0.625 -1.359375 -0.625q-0.84375 0 -1.390625 0.6875q-0.8125 1.046875 -0.8125 2.59375l0 2.0625q0 1.515625 0.859375 2.65625q0.484375 0.625 1.359375 0.625q0.84375 0 1.375 -0.6875q0.8125 -1.046875 0.8125 -2.59375l0 -2.0625z" fill-rule="nonzero"/><path fill="#000000" fill-opacity="0.0" d="m190.24672 88.13911l0 20.503937" fill-rule="evenodd"/><path stroke="#ffe599" stroke-width="1.0" stroke-linejoin="round" stroke-linecap="butt" d="m190.24672 88.13911l0 17.07685" fill-rule="evenodd"/><path fill="#ffe599" stroke="#ffe599" stroke-width="1.0" stroke-linecap="butt" d="m190.24672 105.21596l-1.124588 -1.1245804l1.124588 3.0897675l1.124588 -3.0897675z" fill-rule="evenodd"/><path fill="#000000" fill-opacity="0.0" d="m-2.1732283 -12.3202095l190.77165 0l0 42.015747l-190.77165 0z" fill-rule="evenodd"/><path fill="#ffffff" d="m13.373647 2.5060382l0 10.21875l1.890625 0q0.671875 0 0.95312405 0.265625q0.296875 0.265625 0.296875 0.6875q0 0.40625 -0.296875 0.671875q-0.28124905 0.25 -0.95312405 0.25l-5.640625 0q-0.671875 0 -0.96875 -0.25q-0.28125 -0.265625 -0.28125 -0.6875q0 -0.40625 0.28125 -0.671875q0.296875 -0.265625 0.96875 -0.265625l1.890625 0l0 -7.7812505l-1.671875 0.4375q-0.40625 0.109375 -0.609375 0.109375q-0.34375 0 -0.609375 -0.28125q-0.25 -0.28125 -0.25 -0.6875q0 -0.375 0.1875 -0.59375q0.1875 -0.21875 0.796875 -0.375l4.015625 -1.046875zm12.898696 6.1250005q0.71875 0.5625 1.078125 1.265625q0.359375 0.703125 0.359375 1.546875q0 0.9375 -0.46875 1.734375q-0.453125 0.78125 -1.4375 1.234375q-0.984375 0.453125 -2.1875 0.453125q-1.203125 0 -2.171875 -0.453125q-0.96875 -0.453125 -1.421875 -1.234375q-0.453125 -0.796875 -0.453125 -1.734375q0 -0.84375 0.359375 -1.546875q0.359375 -0.703125 1.078125 -1.265625q-0.640625 -0.578125 -0.953125 -1.2343755q-0.3125 -0.65625 -0.3125 -1.390625q0 -1.421875 1.09375 -2.453125q1.09375 -1.046875 2.796875 -1.046875q1.71875 0 2.8125 1.046875q1.09375 1.03125 1.09375 2.453125q0 0.734375 -0.328125 1.390625q-0.3125 0.6562505 -0.9375 1.2343755zm-0.65625 -2.5781255q0 -0.703125 -0.546875 -1.1875q-0.53125 -0.484375 -1.453125 -0.484375q-0.921875 0 -1.46875 0.484375q-0.546875 0.484375 -0.546875 1.1875q0 0.6875 0.546875 1.1875q0.546875 0.484375 1.46875 0.484375q0.921875 0 1.453125 -0.484375q0.546875 -0.5 0.546875 -1.1875zm0.21875 5.4843755q0 -0.734375 -0.640625 -1.328125q-0.625 -0.59375 -1.5625 -0.59375q-0.9375 0 -1.578125 0.59375q-0.625 0.59375 -0.625 1.34375q0 0.59375 0.546875 1.03125q0.546875 0.421875 1.65625 0.421875q1.125 0 1.65625 -0.421875q0.546875 -0.4375 0.546875 -1.046875zm13.054947 -3.8750005l0 2.0625005q0 1.8125 -1.0625 3.484375q-1.046875 1.65625 -3.0 1.65625q-1.125 0 -1.90625 -0.484375q-0.78125 -0.5 -1.484375 -1.828125q-0.6875 -1.34375 -0.6875 -2.828125l0 -2.0625005q0 -1.8125 1.046875 -3.484375q1.046875 -1.671875 3.0 -1.671875q1.125 0 1.90625 0.5q0.78125 0.484375 1.484375 1.828125q0.703125 1.328125 0.703125 2.828125zm-1.875 0q0 -1.515625 -0.84375 -2.65625q-0.484375 -0.625 -1.359375 -0.625q-0.84375 0 -1.390625 0.6875q-0.8125 1.046875 -0.8125 2.59375l0 2.0625005q0 1.515625 0.859375 2.65625q0.484375 0.625 1.359375 0.625q0.84375 0 1.375 -0.6875q0.8125 -1.046875 0.8125 -2.59375l0 -2.0625005zm13.070572 0l0 2.0625005q0 1.8125 -1.0625 3.484375q-1.046875 1.65625 -3.0 1.65625q-1.125 0 -1.90625 -0.484375q-0.78125 -0.5 -1.484375 -1.828125q-0.6875 -1.34375 -0.6875 -2.828125l0 -2.0625005q0 -1.8125 1.046875 -3.484375q1.046875 -1.671875 3.0 -1.671875q1.125 0 1.90625 0.5q0.78125 0.484375 1.484375 1.828125q0.703125 1.328125 0.703125 2.828125zm-1.875 0q0 -1.515625 -0.84375 -2.65625q-0.484375 -0.625 -1.359375 -0.625q-0.84375 0 -1.390625 0.6875q-0.8125 1.046875 -0.8125 2.59375l0 2.0625005q0 1.515625 0.859375 2.65625q0.484375 0.625 1.359375 0.625q0.84375 0 1.375 -0.6875q0.8125 -1.046875 0.8125 -2.59375l0 -2.0625005zm24.047398 -4.625l-5.984375 12.890625q-0.234375 0.484375 -0.421875 0.625q-0.234375 0.203125 -0.5625 0.203125q-0.390625 0 -0.671875 -0.28125q-0.265625 -0.265625 -0.265625 -0.625q0 -0.234375 0.21875 -0.71875l6.0 -12.890625q0.21875 -0.46875 0.390625 -0.625q0.25 -0.1875 0.578125 -0.1875q0.390625 0 0.65625 0.265625q0.28125 0.265625 0.28125 0.625q0 0.234375 -0.21875 0.71875zm19.484894 -0.53125l0 10.21875l1.890625 0q0.671875 0 0.953125 0.265625q0.296875 0.265625 0.296875 0.6875q0 0.40625 -0.296875 0.671875q-0.28125 0.25 -0.953125 0.25l-5.640625 0q-0.671875 0 -0.96875 -0.25q-0.28125 -0.265625 -0.28125 -0.6875q0 -0.40625 0.28125 -0.671875q0.296875 -0.265625 0.96875 -0.265625l1.890625 0l0 -7.7812505l-1.671875 0.4375q-0.40625 0.109375 -0.609375 0.109375q-0.34375 0 -0.609375 -0.28125q-0.25 -0.28125 -0.25 -0.6875q0 -0.375 0.1875 -0.59375q0.1875 -0.21875 0.796875 -0.375l4.015625 -1.046875zm8.508072 10.21875l4.078125 0q0.34375 -0.265625 0.640625 -0.265625q0.4375 0 0.6875 0.28125q0.25 0.28125 0.25 0.96875l0 0.890625l-8.515625 0l0 -1.984375q5.046875 -4.15625 6.09375 -5.3437505q0.53125 -0.609375 0.53125 -1.15625q0 -0.6875 -0.59375 -1.203125q-0.59375 -0.53125 -1.59375 -0.53125q-1.0 0 -1.671875 0.578125q-0.34375 0.3125 -0.546875 0.921875q-0.125 0.390625 -0.359375 0.5625q-0.21875 0.15625 -0.546875 0.15625q-0.375 0 -0.65625 -0.265625q-0.28125 -0.28125 -0.28125 -0.65625q0 -0.546875 0.5 -1.359375q0.515625 -0.828125 1.484375 -1.3125q0.96875 -0.5 2.109375 -0.5q1.765625 0 2.890625 1.078125q1.125 1.0625 1.125 2.59375q0 0.765625 -0.328125 1.4375q-0.3125 0.6562505 -1.546875 1.8125005q-0.953125 0.921875 -3.75 3.296875zm17.008072 -5.0625005l0 2.0625005q0 1.8125 -1.0625 3.484375q-1.046875 1.65625 -3.0 1.65625q-1.125 0 -1.90625 -0.484375q-0.78125 -0.5 -1.484375 -1.828125q-0.6875 -1.34375 -0.6875 -2.828125l0 -2.0625005q0 -1.8125 1.046875 -3.484375q1.046875 -1.671875 3.0 -1.671875q1.125 0 1.90625 0.5q0.78125 0.484375 1.484375 1.828125q0.703125 1.328125 0.703125 2.828125zm-1.875 0q0 -1.515625 -0.84375 -2.65625q-0.484375 -0.625 -1.359375 -0.625q-0.84375 0 -1.390625 0.6875q-0.8125 1.046875 -0.8125 2.59375l0 2.0625005q0 1.515625 0.859375 2.65625q0.484375 0.625 1.359375 0.625q0.84375 0 1.375 -0.6875q0.8125 -1.046875 0.8125 -2.59375l0 -2.0625005zm24.188011 0.7968755l-7.96875 0q-0.671875 0 -0.96875 -0.25q-0.28125 -0.26562548 -0.28125 -0.6875005q0 -0.40625 0.28125 -0.65625q0.296875 -0.265625 0.96875 -0.265625l7.96875 0q0.6875 0 0.96875 0.265625q0.28125 0.25 0.28125 0.671875q0 0.40625 -0.28125 0.6718755q-0.28125 0.25 -0.96875 0.25zm0 3.515625l-7.96875 0q-0.671875 0 -0.96875 -0.25q-0.28125 -0.265625 -0.28125 -0.671875q0 -0.421875 0.28125 -0.671875q0.296875 -0.265625 0.96875 -0.265625l7.96875 0q0.6875 0 0.96875 0.265625q0.28125 0.25 0.28125 0.671875q0 0.40625 -0.28125 0.671875q-0.28125 0.25 -0.96875 0.25zm19.344269 -9.46875l0 10.21875l1.890625 0q0.671875 0 0.953125 0.265625q0.296875 0.265625 0.296875 0.6875q0 0.40625 -0.296875 0.671875q-0.28125 0.25 -0.953125 0.25l-5.640625 0q-0.671875 0 -0.96875 -0.25q-0.28125 -0.265625 -0.28125 -0.6875q0 -0.40625 0.28125 -0.671875q0.296875 -0.265625 0.96875 -0.265625l1.890625 0l0 -7.7812505l-1.671875 0.4375q-0.40625 0.109375 -0.609375 0.109375q-0.34375 0 -0.609375 -0.28125q-0.25 -0.28125 -0.25 -0.6875q0 -0.375 0.1875 -0.59375q0.1875 -0.21875 0.796875 -0.375l4.015625 -1.046875zm8.679947 2.171875l0 2.21875q1.03125 -0.328125 1.875 -0.328125q1.734375 0 2.859375 1.1875q1.140625 1.1718755 1.140625 3.0312505q0 1.90625 -1.15625 3.0q-1.140625 1.078125 -3.515625 1.078125q-2.09375 0 -3.328125 -0.78125q-0.703125 -0.453125 -0.703125 -1.046875q0 -0.375 0.28125 -0.65625q0.28125 -0.28125 0.65625 -0.28125q0.3125 0 0.6875 0.3125q0.375 0.296875 0.78125 0.421875q0.59375 0.171875 1.5 0.171875q1.703125 0 2.3125 -0.53125q0.625 -0.546875 0.625 -1.671875q0 -1.109375 -0.609375 -1.734375q-0.59375 -0.625 -1.53125 -0.625q-1.0 0 -2.296875 0.65625q-0.296875 0.15625 -0.515625 0.15625q-0.390625 0 -0.671875 -0.296875q-0.265625 -0.296875 -0.265625 -0.75l0 -5.3906255l5.71875 0q0.671875 0 0.953125 0.265625q0.296875 0.25 0.296875 0.671875q0 0.40625 -0.296875 0.671875q-0.28125 0.25 -0.953125 0.25l-3.84375 0z" fill-rule="nonzero"/><path fill="#000000" fill-opacity="0.0" d="m121.76378 93.83727l0 19.338577" fill-rule="evenodd"/><path stroke="#c27ba0" stroke-width="1.0" stroke-linejoin="round" stroke-linecap="butt" d="m121.76378 97.26435l0 15.911499" fill-rule="evenodd"/><path fill="#c27ba0" stroke="#c27ba0" stroke-width="1.0" stroke-linecap="butt" d="m121.76378 97.26436l1.124588 1.1245804l-1.124588 -3.0897675l-1.1245804 3.0897675z" fill-rule="evenodd"/><path fill="#000000" fill-opacity="0.0" d="m121.76378 113.17585l-46.29921 0" fill-rule="evenodd"/><path stroke="#c27ba0" stroke-width="1.0" stroke-linejoin="round" stroke-linecap="butt" d="m121.76378 113.17585l-46.29921 0" fill-rule="evenodd"/><path fill="#000000" fill-opacity="0.0" d="m22.695538 108.64304l90.17323 0l0 33.921257l-90.17323 0z" fill-rule="evenodd"/><path fill="#c27ba0" d="m33.367413 128.66304l0 -5.8593674l-0.421875 0q-0.171875 0 -0.25 -0.0625q-0.078125 -0.078125 -0.078125 -0.1875q0 -0.109375 0.078125 -0.171875q0.078125 -0.078125 0.25 -0.078125l2.65625 0q0.625 0 1.125 0.265625q0.515625 0.25 0.78125 0.578125q0.46875 0.5625 0.703125 1.1875q0.171875 0.4375 0.171875 1.0625l0 0.671875q0 0.765625 -0.328125 1.46875q-0.328125 0.7031174 -1.109375 1.2343674q-0.578125 0.390625 -1.34375 0.390625l-2.65625 0q-0.171875 0 -0.25 -0.0625q-0.078125 -0.078125 -0.078125 -0.1875q0 -0.109375 0.078125 -0.171875q0.078125 -0.078125 0.25 -0.078125l0.421875 0zm0.484375 0l1.796875 0q0.625 0 1.15625 -0.390625q0.546875 -0.40624237 0.8125 -0.9687424q0.28125 -0.578125 0.28125 -1.125l0 -0.890625q0 -0.453125 -0.15625 -0.8125q-0.203125 -0.515625 -0.59375 -0.984375q-0.203125 -0.265625 -0.625 -0.46875q-0.40625 -0.21875 -0.875 -0.21875l-1.796875 0l0 5.8593674zm8.888672 -7.0937424l0 1.265625l-0.71875 0l0 -1.265625l0.71875 0zm0.015625 2.515625l0 4.5781174l1.9375 0q0.1875 0 0.25 0.078125q0.078125 0.0625 0.078125 0.171875q0 0.109375 -0.078125 0.1875q-0.0625 0.0625 -0.25 0.0625l-4.359375 0q-0.171875 0 -0.25 -0.0625q-0.078125 -0.078125 -0.078125 -0.1875q0 -0.109375 0.078125 -0.171875q0.078125 -0.078125 0.25 -0.078125l1.9375 0l0 -4.0781174l-1.4375 0q-0.171875 0 -0.265625 -0.0625q-0.078125 -0.078125 -0.078125 -0.1875q0 -0.109375 0.078125 -0.171875q0.078125 -0.078125 0.265625 -0.078125l1.921875 0zm7.373047 5.0781174l-0.828125 0l-2.03125 -4.5781174l-0.5 0q-0.171875 0 -0.25 -0.0625q-0.078125 -0.078125 -0.078125 -0.1875q0 -0.109375 0.078125 -0.171875q0.078125 -0.078125 0.25 -0.078125l1.84375 0q0.1875 0 0.25 0.078125q0.078125 0.0625 0.078125 0.171875q0 0.109375 -0.078125 0.1875q-0.0625 0.0625 -0.25 0.0625l-0.8125 0l1.8125 4.0781174l0.21875 0l1.765625 -4.0781174l-0.828125 0q-0.171875 0 -0.25 -0.0625q-0.078125 -0.078125 -0.078125 -0.1875q0 -0.109375 0.078125 -0.171875q0.078125 -0.078125 0.25 -0.078125l1.859375 0q0.171875 0 0.25 0.078125q0.078125 0.0625 0.078125 0.171875q0 0.109375 -0.078125 0.1875q-0.078125 0.0625 -0.25 0.0625l-0.5 0l-2.0 4.5781174zm7.013672 -7.5937424l0 1.265625l-0.71875 0l0 -1.265625l0.71875 0zm0.015625 2.515625l0 4.5781174l1.9375 0q0.1875 0 0.25 0.078125q0.078125 0.0625 0.078125 0.171875q0 0.109375 -0.078125 0.1875q-0.0625 0.0625 -0.25 0.0625l-4.359375 0q-0.171875 0 -0.25 -0.0625q-0.078125 -0.078125 -0.078125 -0.1875q0 -0.109375 0.078125 -0.171875q0.078125 -0.078125 0.25 -0.078125l1.9375 0l0 -4.0781174l-1.4375 0q-0.171875 0 -0.265625 -0.0625q-0.078125 -0.078125 -0.078125 -0.1875q0 -0.109375 0.078125 -0.171875q0.078125 -0.078125 0.265625 -0.078125l1.921875 0zm8.576176 0.328125q0 -0.171875 0.0625 -0.25q0.078125 -0.078125 0.171875 -0.078125q0.109375 0 0.171875 0.078125q0.078125 0.078125 0.078125 0.265625l0 0.84375q0 0.171875 -0.078125 0.25q-0.0625 0.078125 -0.171875 0.078125q-0.09375 0 -0.171875 -0.0625q-0.0625 -0.078125 -0.0625 -0.21875q-0.046875 -0.359375 -0.375 -0.578125q-0.46875 -0.328125 -1.265625 -0.328125q-0.8281288 0 -1.2812538 0.328125q-0.34375 0.25 -0.34375 0.5625q0 0.359375 0.40625 0.59375q0.28125 0.15625 1.0625 0.25q1.0312538 0.109375 1.4218788 0.25q0.578125 0.203125 0.84375 0.578125q0.28125 0.359375 0.28125 0.78125q0 0.6249924 -0.609375 1.1093674q-0.59375 0.484375 -1.765625 0.484375q-1.1562538 0 -1.9062538 -0.59375q0 0.203125 -0.03125 0.265625q-0.015625 0.0625 -0.078125 0.109375q-0.0625 0.03125 -0.140625 0.03125q-0.09375 0 -0.171875 -0.078125q-0.0625 -0.078125 -0.0625 -0.25l0 -1.0156174q0 -0.171875 0.0625 -0.25q0.0625 -0.078125 0.171875 -0.078125q0.109375 0 0.1875 0.078125q0.078125 0.0625 0.078125 0.1875q0 0.28124237 0.125 0.45311737q0.203125 0.28125 0.65625 0.46875q0.453125 0.1875 1.0937538 0.1875q0.96875 0 1.4375 -0.359375q0.46875 -0.359375 0.46875 -0.7499924q0 -0.46875 -0.484375 -0.734375q-0.46875 -0.28125 -1.390625 -0.375q-0.9218788 -0.09375 -1.3281288 -0.234375q-0.390625 -0.15625 -0.609375 -0.453125q-0.21875 -0.3125 -0.21875 -0.671875q0 -0.625 0.609375 -1.0q0.625 -0.375 1.4843788 -0.375q1.03125 0 1.671875 0.5zm8.326172 2.21875q0 1.125 -0.8125 1.9218674q-0.8125 0.796875 -1.9375 0.796875q-1.15625 0 -1.96875 -0.796875q-0.796875 -0.7968674 -0.796875 -1.9218674q0 -1.125 0.796875 -1.921875q0.8125 -0.796875 1.96875 -0.796875q1.125 0 1.9375 0.796875q0.8125 0.796875 0.8125 1.921875zm-0.5 0q0 -0.921875 -0.671875 -1.5625q-0.65625 -0.65625 -1.59375 -0.65625q-0.9375 0 -1.59375 0.65625q-0.65625 0.640625 -0.65625 1.5625q0 0.921875 0.65625 1.5781174q0.65625 0.65625 1.59375 0.65625q0.9375 0 1.59375 -0.65625q0.671875 -0.6562424 0.671875 -1.5781174zm4.357422 -2.546875l0 1.25q0.953125 -0.875 1.421875 -1.125q0.484375 -0.25 0.890625 -0.25q0.4375 0 0.8125 0.296875q0.390625 0.296875 0.390625 0.453125q0 0.109375 -0.078125 0.1875q-0.078125 0.0625 -0.1875 0.0625q-0.046875 0 -0.09375 -0.015625q-0.046875 -0.015625 -0.15625 -0.125q-0.203125 -0.203125 -0.359375 -0.28125q-0.140625 -0.078125 -0.296875 -0.078125q-0.3125 0 -0.78125 0.265625q-0.453125 0.25 -1.5625 1.25l0 2.6874924l2.171875 0q0.1875 0 0.265625 0.078125q0.078125 0.0625 0.078125 0.171875q0 0.109375 -0.078125 0.1875q-0.078125 0.0625 -0.265625 0.0625l-3.859375 0q-0.171875 0 -0.25 -0.0625q-0.078125 -0.078125 -0.078125 -0.171875q0 -0.109375 0.078125 -0.171875q0.078125 -0.0625 0.25 -0.0625l1.1875 0l0 -4.1093674l-0.90625 0q-0.171875 0 -0.25 -0.0625q-0.078125 -0.078125 -0.078125 -0.1875q0 -0.109375 0.078125 -0.171875q0.078125 -0.078125 0.25 -0.078125l1.40625 0z" fill-rule="nonzero"/><path fill="#000000" fill-opacity="0.0" d="m200.28084 77.59843l29.448822 0.31495667" fill-rule="evenodd"/><path stroke="#c27ba0" stroke-width="1.0" stroke-linejoin="round" stroke-linecap="butt" d="m203.70773 77.63508l26.021927 0.27830505" fill-rule="evenodd"/><path fill="#c27ba0" stroke="#c27ba0" stroke-width="1.0" stroke-linecap="butt" d="m203.70773 77.63508l1.1365509 -1.1124954l-3.1016235 1.0914764l3.0775604 1.1575623z" fill-rule="evenodd"/><path fill="#000000" fill-opacity="0.0" d="m229.72966 59.17323l90.17323 0l0 33.92126l-90.17323 0z" fill-rule="evenodd"/><path fill="#c27ba0" d="m240.40154 79.19323l0 -5.859375l-0.421875 0q-0.171875 0 -0.25 -0.0625q-0.078125 -0.078125 -0.078125 -0.1875q0 -0.109375 0.078125 -0.171875q0.078125 -0.078125 0.25 -0.078125l2.65625 0q0.625 0 1.125 0.265625q0.515625 0.25 0.78125 0.578125q0.46875 0.5625 0.703125 1.1875q0.171875 0.4375 0.171875 1.0625l0 0.671875q0 0.765625 -0.328125 1.46875q-0.328125 0.703125 -1.109375 1.234375q-0.578125 0.390625 -1.34375 0.390625l-2.65625 0q-0.171875 0 -0.25 -0.0625q-0.078125 -0.078125 -0.078125 -0.1875q0 -0.109375 0.078125 -0.171875q0.078125 -0.078125 0.25 -0.078125l0.421875 0zm0.484375 0l1.796875 0q0.625 0 1.15625 -0.390625q0.546875 -0.40625 0.8125 -0.96875q0.28125 -0.578125 0.28125 -1.125l0 -0.890625q0 -0.453125 -0.15625 -0.8125q-0.203125 -0.515625 -0.59375 -0.984375q-0.203125 -0.265625 -0.625 -0.46875q-0.40625 -0.21875 -0.875 -0.21875l-1.796875 0l0 5.859375zm8.888672 -7.09375l0 1.265625l-0.71875 0l0 -1.265625l0.71875 0zm0.015625 2.515625l0 4.578125l1.9375 0q0.1875 0 0.25 0.078125q0.078125 0.0625 0.078125 0.171875q0 0.109375 -0.078125 0.1875q-0.0625 0.0625 -0.25 0.0625l-4.359375 0q-0.171875 0 -0.25 -0.0625q-0.078125 -0.078125 -0.078125 -0.1875q0 -0.109375 0.078125 -0.171875q0.078125 -0.078125 0.25 -0.078125l1.9375 0l0 -4.078125l-1.4375 0q-0.171875 0 -0.265625 -0.0625q-0.078125 -0.078125 -0.078125 -0.1875q0 -0.109375 0.078125 -0.171875q0.078125 -0.078125 0.265625 -0.078125l1.921875 0zm7.3730316 5.078125l-0.828125 0l-2.0312347 -4.578125l-0.5 0q-0.171875 0 -0.25 -0.0625q-0.078125 -0.078125 -0.078125 -0.1875q0 -0.109375 0.078125 -0.171875q0.078125 -0.078125 0.25 -0.078125l1.84375 0q0.1875 0 0.25 0.078125q0.078125 0.0625 0.078125 0.171875q0 0.109375 -0.078125 0.1875q-0.0625 0.0625 -0.25 0.0625l-0.8125 0l1.8124847 4.078125l0.21875 0l1.765625 -4.078125l-0.828125 0q-0.171875 0 -0.25 -0.0625q-0.078125 -0.078125 -0.078125 -0.1875q0 -0.109375 0.078125 -0.171875q0.078125 -0.078125 0.25 -0.078125l1.859375 0q0.171875 0 0.25 0.078125q0.078125 0.0625 0.078125 0.171875q0 0.109375 -0.078125 0.1875q-0.078125 0.0625 -0.25 0.0625l-0.5 0l-2.0 4.578125zm7.013672 -7.59375l0 1.265625l-0.71875 0l0 -1.265625l0.71875 0zm0.015625 2.515625l0 4.578125l1.9375 0q0.1875 0 0.25 0.078125q0.078125 0.0625 0.078125 0.171875q0 0.109375 -0.078125 0.1875q-0.0625 0.0625 -0.25 0.0625l-4.359375 0q-0.171875 0 -0.25 -0.0625q-0.078125 -0.078125 -0.078125 -0.1875q0 -0.109375 0.078125 -0.171875q0.078125 -0.078125 0.25 -0.078125l1.9375 0l0 -4.078125l-1.4375 0q-0.171875 0 -0.265625 -0.0625q-0.078125 -0.078125 -0.078125 -0.1875q0 -0.109375 0.078125 -0.171875q0.078125 -0.078125 0.265625 -0.078125l1.921875 0zm9.357422 -2.28125l0 6.859375l0.65625 0q0.171875 0 0.25 0.078125q0.078125 0.0625 0.078125 0.171875q0 0.109375 -0.078125 0.1875q-0.078125 0.0625 -0.25 0.0625l-1.15625 0l0 -0.984375q-0.859375 1.171875 -2.171875 1.171875q-0.671875 0 -1.28125 -0.34375q-0.609375 -0.359375 -0.96875 -1.015625q-0.359375 -0.65625 -0.359375 -1.359375q0 -0.703125 0.359375 -1.34375q0.359375 -0.65625 0.96875 -1.015625q0.609375 -0.359375 1.28125 -0.359375q1.296875 0 2.171875 1.171875l0 -2.78125l-0.65625 0q-0.1875 0 -0.265625 -0.0625q-0.0625 -0.078125 -0.0625 -0.1875q0 -0.109375 0.0625 -0.171875q0.078125 -0.078125 0.265625 -0.078125l1.15625 0zm-0.5 4.828125q0 -0.9375 -0.640625 -1.578125q-0.625 -0.640625 -1.5 -0.640625q-0.875 0 -1.515625 0.640625q-0.625 0.640625 -0.625 1.578125q0 0.9375 0.625 1.59375q0.640625 0.640625 1.515625 0.640625q0.875 0 1.5 -0.640625q0.640625 -0.65625 0.640625 -1.59375zm7.951172 0.109375l-5.015625 0q0.125 0.953125 0.796875 1.546875q0.671875 0.578125 1.65625 0.578125q0.5625 0 1.15625 -0.171875q0.609375 -0.1875 0.984375 -0.5q0.109375 -0.078125 0.203125 -0.078125q0.09375 0 0.15625 0.078125q0.078125 0.0625 0.078125 0.171875q0 0.09375 -0.09375 0.1875q-0.28125 0.296875 -1.0 0.546875q-0.71875 0.25 -1.484375 0.25q-1.265625 0 -2.109375 -0.828125q-0.84375 -0.828125 -0.84375 -2.0q0 -1.078125 0.796875 -1.84375q0.796875 -0.765625 1.96875 -0.765625q1.203125 0 1.984375 0.796875q0.78125 0.78125 0.765625 2.03125zm-0.5 -0.5q-0.140625 -0.8125 -0.765625 -1.3125q-0.625 -0.515625 -1.484375 -0.515625q-0.859375 0 -1.484375 0.5q-0.625 0.5 -0.78125 1.328125l4.515625 0zm3.4511719 -2.15625l0 0.75q0.515625 -0.53125 0.921875 -0.71875q0.421875 -0.203125 0.9375 -0.203125q0.5625 0 1.03125 0.234375q0.328125 0.1875 0.59375 0.59375q0.265625 0.40625 0.265625 0.828125l0 3.09375l0.421875 0q0.171875 0 0.25 0.078125q0.078125 0.0625 0.078125 0.171875q0 0.109375 -0.078125 0.1875q-0.078125 0.0625 -0.25 0.0625l-1.328125 0q-0.171875 0 -0.25 -0.0625q-0.078125 -0.078125 -0.078125 -0.1875q0 -0.109375 0.078125 -0.171875q0.078125 -0.078125 0.25 -0.078125l0.421875 0l0 -3.015625q0 -0.515625 -0.390625 -0.875q-0.375 -0.359375 -1.015625 -0.359375q-0.484375 0 -0.84375 0.203125q-0.359375 0.1875 -1.015625 0.96875l0 3.078125l0.546875 0q0.1875 0 0.25 0.078125q0.078125 0.0625 0.078125 0.171875q0 0.109375 -0.078125 0.1875q-0.0625 0.0625 -0.25 0.0625l-1.59375 0q-0.1875 0 -0.265625 -0.0625q-0.0625 -0.078125 -0.0625 -0.1875q0 -0.109375 0.0625 -0.171875q0.078125 -0.078125 0.265625 -0.078125l0.546875 0l0 -4.078125l-0.40625 0q-0.1875 0 -0.265625 -0.0625q-0.0625 -0.078125 -0.0625 -0.1875q0 -0.109375 0.0625 -0.171875q0.078125 -0.078125 0.265625 -0.078125l0.90625 0zm11.201172 -2.28125l0 6.859375l0.65625 0q0.171875 0 0.25 0.078125q0.078125 0.0625 0.078125 0.171875q0 0.109375 -0.078125 0.1875q-0.078125 0.0625 -0.25 0.0625l-1.15625 0l0 -0.984375q-0.859375 1.171875 -2.171875 1.171875q-0.671875 0 -1.28125 -0.34375q-0.609375 -0.359375 -0.96875 -1.015625q-0.359375 -0.65625 -0.359375 -1.359375q0 -0.703125 0.359375 -1.34375q0.359375 -0.65625 0.96875 -1.015625q0.609375 -0.359375 1.28125 -0.359375q1.296875 0 2.171875 1.171875l0 -2.78125l-0.65625 0q-0.1875 0 -0.265625 -0.0625q-0.0625 -0.078125 -0.0625 -0.1875q0 -0.109375 0.0625 -0.171875q0.078125 -0.078125 0.265625 -0.078125l1.15625 0zm-0.5 4.828125q0 -0.9375 -0.640625 -1.578125q-0.625 -0.640625 -1.5 -0.640625q-0.875 0 -1.515625 0.640625q-0.625 0.640625 -0.625 1.578125q0 0.9375 0.625 1.59375q0.640625 0.640625 1.515625 0.640625q0.875 0 1.5 -0.640625q0.640625 -0.65625 0.640625 -1.59375z" fill-rule="nonzero"/><path fill="#000000" fill-opacity="0.0" d="m164.39633 53.367455l-70.23623 0" fill-rule="evenodd"/><path stroke="#c27ba0" stroke-width="1.0" stroke-linejoin="round" stroke-linecap="butt" d="m160.96924 53.367455l-66.809135 0" fill-rule="evenodd"/><path fill="#c27ba0" stroke="#c27ba0" stroke-width="1.0" stroke-linecap="butt" d="m160.96924 53.367455l-1.124588 1.1245842l3.0897675 -1.1245842l-3.0897675 -1.1245842z" fill-rule="evenodd"/><path fill="#000000" fill-opacity="0.0" d="m22.695538 36.406826l90.17323 0l0 33.92126l-90.17323 0z" fill-rule="evenodd"/><path fill="#c27ba0" d="m35.367413 57.114326l-0.65625 0.5q0.484375 -0.09375 0.796875 -0.09375q0.515625 0 1.015625 0.1875q0.359375 0.125 0.546875 0.125q0.34375 0 0.75 -0.265625q0.171875 -0.109375 0.234375 -0.109375q0.109375 0 0.171875 0.0625q0.078125 0.0625 0.078125 0.1875q0 0.078125 -0.0625 0.140625q-0.125 0.140625 -0.5625 0.328125q-0.328125 0.15625 -0.640625 0.15625q-0.25 0 -0.6875 -0.171875q-0.421875 -0.15625 -0.828125 -0.15625q-0.28125 0 -0.703125 0.078125q-0.59375 0.09375 -0.953125 0.203125q-0.125 0.03125 -0.171875 0.03125q-0.09375 0 -0.171875 -0.078125q-0.0625 -0.0625 -0.0625 -0.1875q0 -0.109375 0.125 -0.203125l1.09375 -0.796875q-0.96875 -0.25 -1.671875 -1.203125q-0.703125 -0.96875 -0.703125 -2.328125q0 -1.59375 0.90625 -2.59375q0.90625 -1.015625 2.09375 -1.015625q1.1875 0 2.09375 1.015625q0.90625 1.0 0.90625 2.59375q0 1.5625 -0.890625 2.578125q-0.890625 1.0 -2.046875 1.015625zm2.4375 -3.59375q0 -1.203125 -0.703125 -2.15625q-0.6875 -0.953125 -1.796875 -0.953125q-1.03125 0 -1.765625 0.90625q-0.734375 0.90625 -0.734375 2.203125q0 1.359375 0.765625 2.234375q0.765625 0.875 1.734375 0.875q1.109375 0 1.796875 -0.953125q0.703125 -0.953125 0.703125 -2.15625zm6.373047 3.40625l0 -0.71875q-1.0 0.90625 -2.171875 0.90625q-0.71875 0 -1.09375 -0.390625q-0.484375 -0.515625 -0.484375 -1.203125l0 -3.171875l-0.671875 0q-0.171875 0 -0.25 -0.0625q-0.078125 -0.078125 -0.078125 -0.1875q0 -0.109375 0.078125 -0.171875q0.078125 -0.078125 0.25 -0.078125l1.15625 0l0 3.671875q0 0.484375 0.296875 0.796875q0.3125 0.3125 0.765625 0.3125q1.203125 0 2.203125 -1.109375l0 -3.171875l-0.90625 0q-0.171875 0 -0.25 -0.0625q-0.078125 -0.078125 -0.078125 -0.1875q0 -0.109375 0.078125 -0.171875q0.078125 -0.078125 0.25 -0.078125l1.40625 0l0 4.578125l0.40625 0q0.1875 0 0.25 0.078125q0.078125 0.0625 0.078125 0.171875q0 0.109375 -0.078125 0.1875q-0.0625 0.0625 -0.25 0.0625l-0.90625 0zm8.279297 -2.53125q0 1.125 -0.8125 1.921875q-0.8125 0.796875 -1.9375 0.796875q-1.15625 0 -1.96875 -0.796875q-0.796875 -0.796875 -0.796875 -1.921875q0 -1.125 0.796875 -1.921875q0.8125 -0.796875 1.96875 -0.796875q1.125 0 1.9375 0.796875q0.8125 0.796875 0.8125 1.921875zm-0.5 0q0 -0.921875 -0.671875 -1.5625q-0.65625 -0.65625 -1.59375 -0.65625q-0.9375 0 -1.59375 0.65625q-0.65625 0.640625 -0.65625 1.5625q0 0.921875 0.65625 1.578125q0.65625 0.65625 1.59375 0.65625q0.9375 0 1.59375 -0.65625q0.671875 -0.65625 0.671875 -1.578125zm3.9355469 -2.546875l2.671875 0q0.171875 0 0.25 0.078125q0.078125 0.0625 0.078125 0.171875q0 0.109375 -0.078125 0.1875q-0.078125 0.0625 -0.25 0.0625l-2.671875 0l0 3.28125q0 0.421875 0.34375 0.71875q0.34375 0.28125 1.0 0.28125q0.5 0 1.078125 -0.140625q0.578125 -0.15625 0.90625 -0.34375q0.109375 -0.078125 0.1875 -0.078125q0.09375 0 0.15625 0.078125q0.078125 0.0625 0.078125 0.171875q0 0.078125 -0.078125 0.15625q-0.1875 0.1875 -0.90625 0.421875q-0.71875 0.21875 -1.390625 0.21875q-0.859375 0 -1.375 -0.390625q-0.5 -0.40625 -0.5 -1.09375l0 -3.28125l-0.90625 0q-0.171875 0 -0.25 -0.0625q-0.078125 -0.078125 -0.078125 -0.1875q0 -0.109375 0.078125 -0.171875q0.078125 -0.078125 0.25 -0.078125l0.90625 0l0 -1.453125q0 -0.171875 0.0625 -0.25q0.078125 -0.078125 0.1875 -0.078125q0.109375 0 0.171875 0.078125q0.078125 0.078125 0.078125 0.25l0 1.453125zm8.451176 -2.515625l0 1.265625l-0.7187538 0l0 -1.265625l0.7187538 0zm0.015625 2.515625l0 4.578125l1.9375 0q0.1875 0 0.25 0.078125q0.078125 0.0625 0.078125 0.171875q0 0.109375 -0.078125 0.1875q-0.0625 0.0625 -0.25 0.0625l-4.359379 0q-0.171875 0 -0.25 -0.0625q-0.078125 -0.078125 -0.078125 -0.1875q0 -0.109375 0.078125 -0.171875q0.078125 -0.078125 0.25 -0.078125l1.9375 0l0 -4.078125l-1.4375 0q-0.171875 0 -0.265625 -0.0625q-0.078125 -0.078125 -0.078125 -0.1875q0 -0.109375 0.078125 -0.171875q0.078125 -0.078125 0.265625 -0.078125l1.9218788 0zm9.607422 2.65625l-5.015625 0q0.125 0.953125 0.796875 1.546875q0.671875 0.578125 1.65625 0.578125q0.5625 0 1.15625 -0.171875q0.609375 -0.1875 0.984375 -0.5q0.109375 -0.078125 0.203125 -0.078125q0.09375 0 0.15625 0.078125q0.078125 0.0625 0.078125 0.171875q0 0.09375 -0.09375 0.1875q-0.28125 0.296875 -1.0 0.546875q-0.71875 0.25 -1.484375 0.25q-1.265625 0 -2.109375 -0.828125q-0.84375 -0.828125 -0.84375 -2.0q0 -1.078125 0.796875 -1.84375q0.796875 -0.765625 1.96875 -0.765625q1.203125 0 1.984375 0.796875q0.78125 0.78125 0.765625 2.03125zm-0.5 -0.5q-0.140625 -0.8125 -0.765625 -1.3125q-0.625 -0.515625 -1.484375 -0.515625q-0.859375 0 -1.484375 0.5q-0.625 0.5 -0.78125 1.328125l4.515625 0zm3.4511719 -2.15625l0 0.75q0.515625 -0.53125 0.921875 -0.71875q0.421875 -0.203125 0.9375 -0.203125q0.5625 0 1.03125 0.234375q0.328125 0.1875 0.59375 0.59375q0.265625 0.40625 0.265625 0.828125l0 3.09375l0.421875 0q0.171875 0 0.25 0.078125q0.078125 0.0625 0.078125 0.171875q0 0.109375 -0.078125 0.1875q-0.078125 0.0625 -0.25 0.0625l-1.328125 0q-0.171875 0 -0.25 -0.0625q-0.078125 -0.078125 -0.078125 -0.1875q0 -0.109375 0.078125 -0.171875q0.078125 -0.078125 0.25 -0.078125l0.421875 0l0 -3.015625q0 -0.515625 -0.390625 -0.875q-0.375 -0.359375 -1.015625 -0.359375q-0.484375 0 -0.84375 0.203125q-0.359375 0.1875 -1.015625 0.96875l0 3.078125l0.546875 0q0.1875 0 0.25 0.078125q0.078125 0.0625 0.078125 0.171875q0 0.109375 -0.078125 0.1875q-0.0625 0.0625 -0.25 0.0625l-1.59375 0q-0.1875 0 -0.265625 -0.0625q-0.0625 -0.078125 -0.0625 -0.1875q0 -0.109375 0.0625 -0.171875q0.078125 -0.078125 0.265625 -0.078125l0.546875 0l0 -4.078125l-0.40625 0q-0.1875 0 -0.265625 -0.0625q-0.0625 -0.078125 -0.0625 -0.1875q0 -0.109375 0.0625 -0.171875q0.078125 -0.078125 0.265625 -0.078125l0.90625 0zm7.779297 0l2.671875 0q0.171875 0 0.25 0.078125q0.078125 0.0625 0.078125 0.171875q0 0.109375 -0.078125 0.1875q-0.078125 0.0625 -0.25 0.0625l-2.671875 0l0 3.28125q0 0.421875 0.34375 0.71875q0.34375 0.28125 1.0 0.28125q0.5 0 1.078125 -0.140625q0.578125 -0.15625 0.90625 -0.34375q0.109375 -0.078125 0.1875 -0.078125q0.09375 0 0.15625 0.078125q0.078125 0.0625 0.078125 0.171875q0 0.078125 -0.078125 0.15625q-0.1875 0.1875 -0.90625 0.421875q-0.71875 0.21875 -1.390625 0.21875q-0.859375 0 -1.375 -0.390625q-0.5 -0.40625 -0.5 -1.09375l0 -3.28125l-0.90625 0q-0.171875 0 -0.25 -0.0625q-0.078125 -0.078125 -0.078125 -0.1875q0 -0.109375 0.078125 -0.171875q0.078125 -0.078125 0.25 -0.078125l0.90625 0l0 -1.453125q0 -0.171875 0.0625 -0.25q0.078125 -0.078125 0.1875 -0.078125q0.109375 0 0.171875 0.078125q0.078125 0.078125 0.078125 0.25l0 1.453125z" fill-rule="nonzero"/><path fill="#000000" fill-opacity="0.0" d="m230.95801 151.01837l90.17322 0l0 33.921265l-90.17322 0z" fill-rule="evenodd"/><path fill="#c27ba0" d="m241.95801 168.47588l0 2.5625l0.90625 0q0.1875 0 0.25 0.078125q0.078125 0.0625 0.078125 0.171875q0 0.109375 -0.078125 0.1875q-0.0625 0.0625 -0.25 0.0625l-2.0625 0q-0.171875 0 -0.25 -0.0625q-0.078125 -0.078125 -0.078125 -0.1875q0 -0.109375 0.078125 -0.171875q0.078125 -0.078125 0.25 -0.078125l0.65625 0l0 -5.859375l-0.65625 0q-0.171875 0 -0.25 -0.0625q-0.078125 -0.078125 -0.078125 -0.1875q0 -0.109375 0.078125 -0.171875q0.078125 -0.078125 0.25 -0.078125l2.984375 0q0.90625 0 1.53125 0.59375q0.640625 0.578125 0.640625 1.3125q0 0.515625 -0.390625 0.984375q-0.390625 0.46875 -1.296875 0.78125q0.515625 0.359375 0.890625 0.828125q0.375 0.453125 1.203125 1.859375l0.375 0q0.1875 0 0.25 0.078125q0.078125 0.0625 0.078125 0.171875q0 0.109375 -0.078125 0.1875q-0.0625 0.0625 -0.25 0.0625l-0.65625 0q-0.90625 -1.640625 -1.40625 -2.1875q-0.5 -0.5625 -1.15625 -0.875l-1.5625 0zm0 -0.484375l1.34375 0q0.640625 0 1.15625 -0.234375q0.53125 -0.234375 0.765625 -0.546875q0.25 -0.328125 0.25 -0.65625q0 -0.484375 -0.5 -0.921875q-0.5 -0.453125 -1.203125 -0.453125l-1.8125 0l0 2.8125zm11.466797 1.125l-5.015625 0q0.125 0.953125 0.796875 1.546875q0.671875 0.578125 1.65625 0.578125q0.5625 0 1.15625 -0.171875q0.609375 -0.1875 0.984375 -0.5q0.109375 -0.078125 0.203125 -0.078125q0.09375 0 0.15625 0.078125q0.078125 0.0625 0.078125 0.171875q0 0.09375 -0.09375 0.1875q-0.28125 0.296875 -1.0 0.546875q-0.71875 0.25 -1.484375 0.25q-1.265625 0 -2.109375 -0.828125q-0.84375 -0.828125 -0.84375 -2.0q0 -1.078125 0.796875 -1.84375q0.796875 -0.765625 1.96875 -0.765625q1.203125 0 1.984375 0.796875q0.78125 0.78125 0.765625 2.03125zm-0.5 -0.5q-0.140625 -0.8125 -0.765625 -1.3125q-0.625 -0.515625 -1.484375 -0.515625q-0.859375 0 -1.484375 0.5q-0.625 0.5 -0.78125 1.328125l4.515625 0zm2.7949219 -2.15625l0 0.5q0.625 -0.671875 1.265625 -0.671875q0.375 0 0.65625 0.203125q0.296875 0.203125 0.484375 0.609375q0.328125 -0.40625 0.65625 -0.609375q0.34375 -0.203125 0.6875 -0.203125q0.53125 0 0.84375 0.34375q0.421875 0.453125 0.421875 0.96875l0 3.4375l0.421875 0q0.171875 0 0.25 0.078125q0.078125 0.0625 0.078125 0.171875q0 0.109375 -0.078125 0.1875q-0.078125 0.0625 -0.25 0.0625l-0.90625 0l0 -3.890625q0 -0.375 -0.234375 -0.609375q-0.234375 -0.25 -0.53125 -0.25q-0.265625 0 -0.5625 0.203125q-0.296875 0.203125 -0.6875 0.796875l0 3.25l0.421875 0q0.171875 0 0.25 0.078125q0.078125 0.0625 0.078125 0.171875q0 0.109375 -0.078125 0.1875q-0.078125 0.0625 -0.25 0.0625l-0.921875 0l0 -3.84375q0 -0.40625 -0.234375 -0.65625q-0.21875 -0.25 -0.515625 -0.25q-0.25 0 -0.515625 0.171875q-0.359375 0.234375 -0.75 0.828125l0 3.25l0.421875 0q0.171875 0 0.25 0.078125q0.078125 0.0625 0.078125 0.171875q0 0.109375 -0.078125 0.1875q-0.078125 0.0625 -0.25 0.0625l-1.328125 0q-0.171875 0 -0.25 -0.0625q-0.078125 -0.078125 -0.078125 -0.1875q0 -0.109375 0.078125 -0.171875q0.078125 -0.078125 0.25 -0.078125l0.421875 0l0 -4.078125l-0.421875 0q-0.171875 0 -0.25 -0.0625q-0.078125 -0.078125 -0.078125 -0.1875q0 -0.109375 0.078125 -0.171875q0.078125 -0.078125 0.25 -0.078125l0.90625 0zm10.857422 5.078125l0 -0.703125q-1.078125 0.890625 -2.296875 0.890625q-0.875 0 -1.375 -0.4375q-0.5 -0.453125 -0.5 -1.109375q0 -0.703125 0.65625 -1.234375q0.65625 -0.546875 1.921875 -0.546875q0.328125 0 0.71875 0.046875q0.40625 0.046875 0.875 0.140625l0 -0.796875q0 -0.40625 -0.375 -0.703125q-0.375 -0.296875 -1.125 -0.296875q-0.578125 0 -1.609375 0.328125q-0.1875 0.0625 -0.234375 0.0625q-0.09375 0 -0.171875 -0.0625q-0.0625 -0.078125 -0.0625 -0.1875q0 -0.09375 0.0625 -0.15625q0.078125 -0.09375 0.65625 -0.234375q0.921875 -0.25 1.390625 -0.25q0.921875 0 1.4375 0.46875q0.53125 0.453125 0.53125 1.03125l0 3.25l0.65625 0q0.1875 0 0.25 0.078125q0.078125 0.0625 0.078125 0.171875q0 0.109375 -0.078125 0.1875q-0.0625 0.0625 -0.25 0.0625l-1.15625 0zm0 -2.453125q-0.34375 -0.09375 -0.734375 -0.140625q-0.390625 -0.046875 -0.8125 -0.046875q-1.078125 0 -1.671875 0.453125q-0.453125 0.359375 -0.453125 0.828125q0 0.453125 0.34375 0.765625q0.34375 0.296875 1.015625 0.296875q0.640625 0 1.1875 -0.25q0.546875 -0.265625 1.125 -0.8125l0 -1.09375zm6.029297 -5.140625l0 1.265625l-0.71875 0l0 -1.265625l0.71875 0zm0.015625 2.515625l0 4.578125l1.9375 0q0.1875 0 0.25 0.078125q0.078125 0.0625 0.078125 0.171875q0 0.109375 -0.078125 0.1875q-0.0625 0.0625 -0.25 0.0625l-4.359375 0q-0.171875 0 -0.25 -0.0625q-0.078125 -0.078125 -0.078125 -0.1875q0 -0.109375 0.078125 -0.171875q0.078125 -0.078125 0.25 -0.078125l1.9375 0l0 -4.078125l-1.4375 0q-0.171875 0 -0.265625 -0.0625q-0.078125 -0.078125 -0.078125 -0.1875q0 -0.109375 0.078125 -0.171875q0.078125 -0.078125 0.265625 -0.078125l1.921875 0zm5.357422 0l0 0.75q0.515625 -0.53125 0.921875 -0.71875q0.421875 -0.203125 0.9375 -0.203125q0.5625 0 1.03125 0.234375q0.328125 0.1875 0.59375 0.59375q0.265625 0.40625 0.265625 0.828125l0 3.09375l0.421875 0q0.171875 0 0.25 0.078125q0.078125 0.0625 0.078125 0.171875q0 0.109375 -0.078125 0.1875q-0.078125 0.0625 -0.25 0.0625l-1.328125 0q-0.171875 0 -0.25 -0.0625q-0.078125 -0.078125 -0.078125 -0.1875q0 -0.109375 0.078125 -0.171875q0.078125 -0.078125 0.25 -0.078125l0.421875 0l0 -3.015625q0 -0.515625 -0.390625 -0.875q-0.375 -0.359375 -1.015625 -0.359375q-0.484375 0 -0.84375 0.203125q-0.359375 0.1875 -1.015625 0.96875l0 3.078125l0.546875 0q0.1875 0 0.25 0.078125q0.078125 0.0625 0.078125 0.171875q0 0.109375 -0.078125 0.1875q-0.0625 0.0625 -0.25 0.0625l-1.59375 0q-0.1875 0 -0.265625 -0.0625q-0.0625 -0.078125 -0.0625 -0.1875q0 -0.109375 0.0625 -0.171875q0.078125 -0.078125 0.265625 -0.078125l0.546875 0l0 -4.078125l-0.40625 0q-0.1875 0 -0.265625 -0.0625q-0.0625 -0.078125 -0.0625 -0.1875q0 -0.109375 0.0625 -0.171875q0.078125 -0.078125 0.265625 -0.078125l0.90625 0zm11.201172 -2.28125l0 6.859375l0.65625 0q0.171875 0 0.25 0.078125q0.078125 0.0625 0.078125 0.171875q0 0.109375 -0.078125 0.1875q-0.078125 0.0625 -0.25 0.0625l-1.15625 0l0 -0.984375q-0.859375 1.171875 -2.171875 1.171875q-0.671875 0 -1.28125 -0.34375q-0.609375 -0.359375 -0.96875 -1.015625q-0.359375 -0.65625 -0.359375 -1.359375q0 -0.703125 0.359375 -1.34375q0.359375 -0.65625 0.96875 -1.015625q0.609375 -0.359375 1.28125 -0.359375q1.296875 0 2.171875 1.171875l0 -2.78125l-0.65625 0q-0.1875 0 -0.265625 -0.0625q-0.0625 -0.078125 -0.0625 -0.1875q0 -0.109375 0.0625 -0.171875q0.078125 -0.078125 0.265625 -0.078125l1.15625 0zm-0.5 4.828125q0 -0.9375 -0.640625 -1.578125q-0.625 -0.640625 -1.5 -0.640625q-0.875 0 -1.515625 0.640625q-0.625 0.640625 -0.625 1.578125q0 0.9375 0.625 1.59375q0.640625 0.640625 1.515625 0.640625q0.875 0 1.5 -0.640625q0.640625 -0.65625 0.640625 -1.59375zm7.951172 0.109375l-5.015625 0q0.125 0.953125 0.796875 1.546875q0.671875 0.578125 1.65625 0.578125q0.5625 0 1.15625 -0.171875q0.609375 -0.1875 0.984375 -0.5q0.109375 -0.078125 0.203125 -0.078125q0.09375 0 0.15625 0.078125q0.078125 0.0625 0.078125 0.171875q0 0.09375 -0.09375 0.1875q-0.28125 0.296875 -1.0 0.546875q-0.71875 0.25 -1.484375 0.25q-1.265625 0 -2.109375 -0.828125q-0.84375 -0.828125 -0.84375 -2.0q0 -1.078125 0.796875 -1.84375q0.796875 -0.765625 1.96875 -0.765625q1.203125 0 1.984375 0.796875q0.78125 0.78125 0.765625 2.03125zm-0.5 -0.5q-0.140625 -0.8125 -0.765625 -1.3125q-0.625 -0.515625 -1.484375 -0.515625q-0.859375 0 -1.484375 0.5q-0.625 0.5 -0.78125 1.328125l4.515625 0zm4.451172 -2.15625l0 1.25q0.953125 -0.875 1.421875 -1.125q0.484375 -0.25 0.890625 -0.25q0.4375 0 0.8125 0.296875q0.390625 0.296875 0.390625 0.453125q0 0.109375 -0.078125 0.1875q-0.078125 0.0625 -0.1875 0.0625q-0.046875 0 -0.09375 -0.015625q-0.046875 -0.015625 -0.15625 -0.125q-0.203125 -0.203125 -0.359375 -0.28125q-0.140625 -0.078125 -0.296875 -0.078125q-0.3125 0 -0.78125 0.265625q-0.453125 0.25 -1.5625 1.25l0 2.6875l2.171875 0q0.1875 0 0.265625 0.078125q0.078125 0.0625 0.078125 0.171875q0 0.109375 -0.078125 0.1875q-0.078125 0.0625 -0.265625 0.0625l-3.859375 0q-0.171875 0 -0.25 -0.0625q-0.078125 -0.078125 -0.078125 -0.171875q0 -0.109375 0.078125 -0.171875q0.078125 -0.0625 0.25 -0.0625l1.1875 0l0 -4.109375l-0.90625 0q-0.171875 0 -0.25 -0.0625q-0.078125 -0.078125 -0.078125 -0.1875q0 -0.109375 0.078125 -0.171875q0.078125 -0.078125 0.25 -0.078125l1.40625 0z" fill-rule="nonzero"/><path fill="#000000" fill-opacity="0.0" d="m200.28084 167.82152l29.448822 0.31497192" fill-rule="evenodd"/><path stroke="#c27ba0" stroke-width="1.0" stroke-linejoin="round" stroke-linecap="butt" d="m203.70773 167.85817l26.021927 0.2783203" fill-rule="evenodd"/><path fill="#c27ba0" stroke="#c27ba0" stroke-width="1.0" stroke-linecap="butt" d="m203.70773 167.85817l1.1365509 -1.1124878l-3.1016235 1.0914764l3.0775604 1.1575623z" fill-rule="evenodd"/></g></svg>