<svg version="1.1" viewBox="0.0 0.0 384.0 192.0" fill="none" stroke="none" stroke-linecap="square" stroke-miterlimit="10" xmlns:xlink="http://www.w3.org/1999/xlink" xmlns="http://www.w3.org/2000/svg"><clipPath id="p.0"><path d="m0 0l384.0 0l0 192.0l-384.0 0l0 -192.0z" clip-rule="nonzero"/></clipPath><g clip-path="url(#p.0)"><path fill="#000000" fill-opacity="0.0" d="m0 0l384.0 0l0 192.0l-384.0 0z" fill-rule="evenodd"/><path fill="#343434" d="m0 0l384.0 0l0 192.0l-384.0 0z" fill-rule="evenodd"/><path fill="#000000" fill-opacity="0.0" d="m0 0l183.1181 0l0 156.7559l-183.1181 0z" fill-rule="evenodd"/><path fill="#ffffff" d="m82.72031 14.826248l0 10.21875l1.890625 0q0.671875 0 0.953125 0.265625q0.296875 0.265625 0.296875 0.6875q0 0.40625 -0.296875 0.671875q-0.28125 0.25 -0.953125 0.25l-5.640625 0q-0.671875 0 -0.96875 -0.25q-0.28125 -0.265625 -0.28125 -0.6875q0 -0.40625 0.28125 -0.671875q0.296875 -0.265625 0.96875 -0.265625l1.890625 0l0 -7.78125l-1.671875 0.4375q-0.40625 0.109375 -0.609375 0.109375q-0.34375 0 -0.609375 -0.28125q-0.25 -0.28125 -0.25 -0.6875q0 -0.375 0.1875 -0.59375q0.1875 -0.21875 0.796875 -0.375l4.015625 -1.046875zm8.679947 2.171875l0 2.21875q1.03125 -0.328125 1.875 -0.328125q1.734375 0 2.859375 1.1875q1.140625 1.171875 1.140625 3.03125q0 1.90625 -1.15625 3.0q-1.140625 1.078125 -3.515625 1.078125q-2.09375 0 -3.328125 -0.78125q-0.703125 -0.453125 -0.703125 -1.046875q0 -0.375 0.28125 -0.65625q0.28125 -0.28125 0.65625 -0.28125q0.3125 0 0.6875 0.3125q0.375 0.296875 0.78125 0.421875q0.59375 0.171875 1.5 0.171875q1.703125 0 2.3125 -0.53125q0.625 -0.546875 0.625 -1.671875q0 -1.109375 -0.609375 -1.734375q-0.59375 -0.625 -1.53125 -0.625q-1.0 0 -2.296875 0.65625q-0.296875 0.15625 -0.515625 0.15625q-0.390625 0 -0.671875 -0.296875q-0.265625 -0.296875 -0.265625 -0.75l0 -5.390625l5.71875 0q0.671875 0 0.953125 0.265625q0.296875 0.25 0.296875 0.671875q0 0.40625 -0.296875 0.671875q-0.28125 0.25 -0.953125 0.25l-3.84375 0z" fill-rule="nonzero"/><path fill="#ffffff" d="m15.546875 38.50625l0 10.21875l1.890625 0q0.671875 0 0.953125 0.265625q0.296875 0.265625 0.296875 0.6875q0 0.40625 -0.296875 0.671875q-0.28125 0.25 -0.953125 0.25l-5.640625 0q-0.671875 0 -0.96875 -0.25q-0.28125 -0.265625 -0.28125 -0.6875q0 -0.40625 0.28125 -0.671875q0.296875 -0.265625 0.96875 -0.265625l1.890625 0l0 -7.78125l-1.671875 0.4375q-0.40625 0.109375 -0.609375 0.109375q-0.34375 0 -0.609375 -0.28125q-0.25 -0.28125 -0.25 -0.6875q0 -0.375 0.1875 -0.59375q0.1875 -0.21875 0.796875 -0.375l4.015625 -1.046875zm8.508072 10.21875l4.078125 0q0.34375 -0.265625 0.640625 -0.265625q0.4375 0 0.6875 0.28125q0.25 0.28125 0.25 0.96875l0 0.890625l-8.515625 0l0 -1.984375q5.046875 -4.15625 6.09375 -5.34375q0.53125 -0.609375 0.53125 -1.15625q0 -0.6875 -0.59375 -1.203125q-0.59375 -0.53125 -1.59375 -0.53125q-1.0 0 -1.671875 0.578125q-0.34375 0.3125 -0.546875 0.921875q-0.125 0.390625 -0.359375 0.5625q-0.21875 0.15625 -0.546875 0.15625q-0.375 0 -0.65625 -0.265625q-0.28125 -0.28125 -0.28125 -0.65625q0 -0.546875 0.5 -1.359375q0.515625 -0.828125 1.484375 -1.3125q0.96875 -0.5 2.109375 -0.5q1.765625 0 2.890625 1.078125q1.125 1.0625 1.125 2.59375q0 0.765625 -0.328125 1.4375q-0.3125 0.65625 -1.546875 1.8125q-0.953125 0.921875 -3.75 3.296875zm17.008072 -5.0625l0 2.0625q0 1.8125 -1.0625 3.484375q-1.046875 1.65625 -3.0 1.65625q-1.125 0 -1.90625 -0.484375q-0.78125 -0.5 -1.484375 -1.828125q-0.6875 -1.34375 -0.6875 -2.828125l0 -2.0625q0 -1.8125 1.046875 -3.484375q1.046875 -1.671875 3.0 -1.671875q1.125 0 1.90625 0.5q0.78125 0.484375 1.484375 1.828125q0.703125 1.328125 0.703125 2.828125zm-1.875 0q0 -1.515625 -0.84375 -2.65625q-0.484375 -0.625 -1.359375 -0.625q-0.84375 0 -1.390625 0.6875q-0.8125 1.046875 -0.8125 2.59375l0 2.0625q0 1.515625 0.859375 2.65625q0.484375 0.625 1.359375 0.625q0.84375 0 1.375 -0.6875q0.8125 -1.046875 0.8125 -2.59375l0 -2.0625z" fill-rule="nonzero"/><path fill="#ffffff" d="m49.44609 45.740623q0 1.703125 -0.5625 3.46875q-0.421875 1.28125 -1.3125 2.859375q-0.625 1.125 -0.9375 1.390625q-0.296875 0.265625 -0.671875 0.265625q-0.421875 0 -0.71875 -0.296875q-0.296875 -0.28125 -0.296875 -0.703125q0 -0.28125 0.234375 -0.671875q1.0625 -1.734375 1.546875 -3.234375q0.484375 -1.515625 0.484375 -3.078125q0 -1.5625 -0.484375 -3.0625q-0.484375 -1.515625 -1.546875 -3.25q-0.234375 -0.390625 -0.234375 -0.671875q0 -0.40625 0.296875 -0.703125q0.296875 -0.296875 0.71875 -0.296875q0.359375 0 0.640625 0.234375q0.390625 0.328125 1.03125 1.53125q0.9375 1.734375 1.265625 2.84375q0.546875 1.734375 0.546875 3.375z" fill-rule="nonzero"/><path fill="#ffffff" d="m61.135544 38.50625l0 10.21875l1.890625 0q0.671875 0 0.953125 0.265625q0.296875 0.265625 0.296875 0.6875q0 0.40625 -0.296875 0.671875q-0.28125 0.25 -0.953125 0.25l-5.640625 0q-0.671875 0 -0.96875 -0.25q-0.28125 -0.265625 -0.28125 -0.6875q0 -0.40625 0.28125 -0.671875q0.296875 -0.265625 0.96875 -0.265625l1.890625 0l0 -7.78125l-1.671875 0.4375q-0.40625 0.109375 -0.609375 0.109375q-0.34375 0 -0.609375 -0.28125q-0.25 -0.28125 -0.25 -0.6875q0 -0.375 0.1875 -0.59375q0.1875 -0.21875 0.796875 -0.375l4.015625 -1.046875zm12.898697 6.125q0.71875 0.5625 1.078125 1.265625q0.359375 0.703125 0.359375 1.546875q0 0.9375 -0.46875 1.734375q-0.453125 0.78125 -1.4375 1.234375q-0.984375 0.453125 -2.1875 0.453125q-1.203125 0 -2.171875 -0.453125q-0.96875 -0.453125 -1.421875 -1.234375q-0.453125 -0.796875 -0.453125 -1.734375q0 -0.84375 0.359375 -1.546875q0.359375 -0.703125 1.078125 -1.265625q-0.640625 -0.578125 -0.953125 -1.234375q-0.3125 -0.65625 -0.3125 -1.390625q0 -1.421875 1.09375 -2.453125q1.09375 -1.046875 2.796875 -1.046875q1.71875 0 2.8125 1.046875q1.09375 1.03125 1.09375 2.453125q0 0.734375 -0.328125 1.390625q-0.3125 0.65625 -0.9375 1.234375zm-0.65625 -2.578125q0 -0.703125 -0.546875 -1.1875q-0.53125 -0.484375 -1.453125 -0.484375q-0.921875 0 -1.46875 0.484375q-0.546875 0.484375 -0.546875 1.1875q0 0.6875 0.546875 1.1875q0.546875 0.484375 1.46875 0.484375q0.921875 0 1.453125 -0.484375q0.546875 -0.5 0.546875 -1.1875zm0.21875 5.484375q0 -0.734375 -0.640625 -1.328125q-0.625 -0.59375 -1.5625 -0.59375q-0.9375 0 -1.578125 0.59375q-0.625 0.59375 -0.625 1.34375q0 0.59375 0.546875 1.03125q0.546875 0.421875 1.65625 0.421875q1.125 0 1.65625 -0.421875q0.546875 -0.4375 0.546875 -1.046875zm13.054947 -3.875l0 2.0625q0 1.8125 -1.0625 3.484375q-1.046875 1.65625 -3.0 1.65625q-1.125 0 -1.90625 -0.484375q-0.78125 -0.5 -1.484375 -1.828125q-0.6875 -1.34375 -0.6875 -2.828125l0 -2.0625q0 -1.8125 1.046875 -3.484375q1.046875 -1.671875 3.0 -1.671875q1.125 0 1.90625 0.5q0.78125 0.484375 1.484375 1.828125q0.703125 1.328125 0.703125 2.828125zm-1.875 0q0 -1.515625 -0.84375 -2.65625q-0.484375 -0.625 -1.359375 -0.625q-0.84375 0 -1.390625 0.6875q-0.8125 1.046875 -0.8125 2.59375l0 2.0625q0 1.515625 0.859375 2.65625q0.484375 0.625 1.359375 0.625q0.84375 0 1.375 -0.6875q0.8125 -1.046875 0.8125 -2.59375l0 -2.0625zm13.070572 0l0 2.0625q0 1.8125 -1.0625 3.484375q-1.046875 1.65625 -3.0 1.65625q-1.125 0 -1.90625 -0.484375q-0.78125 -0.5 -1.484375 -1.828125q-0.6875 -1.34375 -0.6875 -2.828125l0 -2.0625q0 -1.8125 1.046875 -3.484375q1.046875 -1.671875 3.0 -1.671875q1.125 0 1.90625 0.5q0.78125 0.484375 1.484375 1.828125q0.703125 1.328125 0.703125 2.828125zm-1.875 0q0 -1.515625 -0.84375 -2.65625q-0.484375 -0.625 -1.359375 -0.625q-0.84375 0 -1.390625 0.6875q-0.8125 1.046875 -0.8125 2.59375l0 2.0625q0 1.515625 0.859375 2.65625q0.484375 0.625 1.359375 0.625q0.84375 0 1.375 -0.6875q0.8125 -1.046875 0.8125 -2.59375l0 -2.0625z" fill-rule="nonzero"/><path fill="#010000" fill-opacity="0.0" d="m53.782288 57.7883l33.586716 0l0 21.134033l-33.586716 0l0 -21.134033z" fill-rule="nonzero"/><path fill="#ffffff" d="m60.329163 61.226242l0 10.21875l1.890625 0q0.671875 0 0.953125 0.265625q0.296875 0.265625 0.296875 0.6875q0 0.40625 -0.296875 0.671875q-0.28125 0.25 -0.953125 0.25l-5.640625 0q-0.671875 0 -0.96875 -0.25q-0.28125 -0.265625 -0.28125 -0.6875q0 -0.40625 0.28125 -0.671875q0.296875 -0.265625 0.96875 -0.265625l1.890625 0l0 -7.78125l-1.671875 0.4375q-0.40625 0.109375 -0.609375 0.109375q-0.34375 0 -0.609375 -0.28125q-0.25 -0.28125 -0.25 -0.6875q0 -0.375 0.1875 -0.59375q0.1875 -0.21875 0.796875 -0.375l4.015625 -1.046875zm8.508072 10.21875l4.078125 0q0.34375 -0.265625 0.640625 -0.265625q0.4375 0 0.6875 0.28125q0.25 0.28125 0.25 0.96875l0 0.890625l-8.515625 0l0 -1.984375q5.046875 -4.15625 6.09375 -5.34375q0.53125 -0.609375 0.53125 -1.15625q0 -0.6875 -0.59375 -1.203125q-0.59375 -0.53125 -1.59375 -0.53125q-1.0 0 -1.671875 0.578125q-0.34375 0.3125 -0.546875 0.921875q-0.125 0.390625 -0.359375 0.5625q-0.21875 0.15625 -0.546875 0.15625q-0.375 0 -0.65625 -0.265625q-0.28125 -0.28125 -0.28125 -0.65625q0 -0.546875 0.5 -1.359375q0.515625 -0.828125 1.484375 -1.3125q0.96875 -0.5 2.109375 -0.5q1.765625 0 2.890625 1.078125q1.125 1.0625 1.125 2.59375q0 0.765625 -0.328125 1.4375q-0.3125 0.65625 -1.546875 1.8125q-0.953125 0.921875 -3.75 3.296875zm17.008072 -5.0625l0 2.0625q0 1.8125 -1.0625 3.484375q-1.046875 1.65625 -3.0 1.65625q-1.125 0 -1.90625 -0.484375q-0.78125 -0.5 -1.484375 -1.828125q-0.6875 -1.34375 -0.6875 -2.828125l0 -2.0625q0 -1.8125 1.046875 -3.484375q1.046875 -1.671875 3.0 -1.671875q1.125 0 1.90625 0.5q0.78125 0.484375 1.484375 1.828125q0.703125 1.328125 0.703125 2.828125zm-1.875 0q0 -1.515625 -0.84375 -2.65625q-0.484375 -0.625 -1.359375 -0.625q-0.84375 0 -1.390625 0.6875q-0.8125 1.046875 -0.8125 2.59375l0 2.0625q0 1.515625 0.859375 2.65625q0.484375 0.625 1.359375 0.625q0.84375 0 1.375 -0.6875q0.8125 -1.046875 0.8125 -2.59375l0 -2.0625z" fill-rule="nonzero"/><path fill="#ffffff" d="m53.782288 74.533325l33.586716 0l0 1.6800003l-33.586716 0l0 -1.6800003z" fill-rule="nonzero"/><path fill="#ffffff" d="m68.82161 89.344986q0.671875 -0.5625 1.28125 -0.8125q0.609375 -0.265625 1.3125 -0.265625q1.453125 0 2.5625 1.171875q1.109375 1.15625 1.109375 2.90625q0 1.640625 -1.03125 2.640625q-1.03125 1.0 -2.78125 1.0q-1.46875 0 -2.421875 -0.671875q-0.9375 -0.6875 -1.421875 -2.109375q-0.484375 -1.421875 -0.484375 -3.171875q0 -2.09375 0.953125 -3.484375q0.953125 -1.390625 2.25 -2.15625q1.296875 -0.765625 2.734375 -0.765625q1.140625 0 1.765625 0.453125q0.40625 0.296875 0.40625 0.765625q0 0.40625 -0.28125 0.6875q-0.265625 0.28125 -0.640625 0.28125q-0.21875 0 -0.625 -0.21875q-0.25 -0.125 -0.484375 -0.125q-0.890625 0 -1.84375 0.5q-0.953125 0.5 -1.65625 1.546875q-0.484375 0.734375 -0.703125 1.828125zm0.28125 2.890625q0.28125 1.09375 0.78125 1.5q0.5 0.390625 1.421875 0.390625q0.90625 0 1.40625 -0.484375q0.5 -0.484375 0.5 -1.3125q0 -0.953125 -0.578125 -1.578125q-0.5625 -0.625 -1.265625 -0.625q-0.5625 0 -1.21875 0.5625q-0.640625 0.546875 -1.046875 1.546875zm16.742447 -3.453125l0 2.0625q0 1.8125 -1.0625 3.484375q-1.046875 1.65625 -3.0 1.65625q-1.125 0 -1.90625 -0.484375q-0.78125 -0.5 -1.484375 -1.828125q-0.6875 -1.34375 -0.6875 -2.828125l0 -2.0625q0 -1.8125 1.046875 -3.484375q1.046875 -1.671875 3.0 -1.671875q1.125 0 1.90625 0.5q0.78125 0.484375 1.484375 1.828125q0.703125 1.328125 0.703125 2.828125zm-1.875 0q0 -1.515625 -0.84375 -2.65625q-0.484375 -0.625 -1.359375 -0.625q-0.84375 0 -1.390625 0.6875q-0.8125 1.046875 -0.8125 2.59375l0 2.0625q0 1.515625 0.859375 2.65625q0.484375 0.625 1.359375 0.625q0.84375 0 1.375 -0.6875q0.8125 -1.046875 0.8125 -2.59375l0 -2.0625zm13.070572 0l0 2.0625q0 1.8125 -1.0625 3.484375q-1.046875 1.65625 -3.0 1.65625q-1.125 0 -1.90625 -0.484375q-0.78125 -0.5 -1.484375 -1.828125q-0.6875 -1.34375 -0.6875 -2.828125l0 -2.0625q0 -1.8125 1.046875 -3.484375q1.046875 -1.671875 3.0 -1.671875q1.125 0 1.90625 0.5q0.78125 0.484375 1.484375 1.828125q0.703125 1.328125 0.703125 2.828125zm-1.875 0q0 -1.515625 -0.84375 -2.65625q-0.484375 -0.625 -1.359375 -0.625q-0.84375 0 -1.390625 0.6875q-0.8125 1.046875 -0.8125 2.59375l0 2.0625q0 1.515625 0.859375 2.65625q0.484375 0.625 1.359375 0.625q0.84375 0 1.375 -0.6875q0.8125 -1.046875 0.8125 -2.59375l0 -2.0625z" fill-rule="nonzero"/><path fill="#010000" fill-opacity="0.0" d="m64.97786 102.58829l33.586716 0l0 21.134033l-33.586716 0l0 -21.134033z" fill-rule="nonzero"/><path fill="#ffffff" d="m68.82161 111.74498q0.671875 -0.5625 1.28125 -0.8125q0.609375 -0.265625 1.3125 -0.265625q1.453125 0 2.5625 1.171875q1.109375 1.15625 1.109375 2.90625q0 1.640625 -1.03125 2.640625q-1.03125 1.0 -2.78125 1.0q-1.46875 0 -2.421875 -0.671875q-0.9375 -0.6875 -1.421875 -2.109375q-0.484375 -1.421875 -0.484375 -3.171875q0 -2.09375 0.953125 -3.484375q0.953125 -1.390625 2.25 -2.15625q1.296875 -0.765625 2.734375 -0.765625q1.140625 0 1.765625 0.453125q0.40625 0.296875 0.40625 0.765625q0 0.40625 -0.28125 0.6875q-0.265625 0.28125 -0.640625 0.28125q-0.21875 0 -0.625 -0.21875q-0.25 -0.125 -0.484375 -0.125q-0.890625 0 -1.84375 0.5q-0.953125 0.5 -1.65625 1.546875q-0.484375 0.734375 -0.703125 1.828125zm0.28125 2.890625q0.28125 1.09375 0.78125 1.5q0.5 0.390625 1.421875 0.390625q0.90625 0 1.40625 -0.484375q0.5 -0.484375 0.5 -1.3125q0 -0.953125 -0.578125 -1.578125q-0.5625 -0.625 -1.265625 -0.625q-0.5625 0 -1.21875 0.5625q-0.640625 0.546875 -1.046875 1.546875zm16.742447 -3.453125l0 2.0625q0 1.8125 -1.0625 3.484375q-1.046875 1.65625 -3.0 1.65625q-1.125 0 -1.90625 -0.484375q-0.78125 -0.5 -1.484375 -1.828125q-0.6875 -1.34375 -0.6875 -2.828125l0 -2.0625q0 -1.8125 1.046875 -3.484375q1.046875 -1.671875 3.0 -1.671875q1.125 0 1.90625 0.5q0.78125 0.484375 1.484375 1.828125q0.703125 1.328125 0.703125 2.828125zm-1.875 0q0 -1.515625 -0.84375 -2.65625q-0.484375 -0.625 -1.359375 -0.625q-0.84375 0 -1.390625 0.6875q-0.8125 1.046875 -0.8125 2.59375l0 2.0625q0 1.515625 0.859375 2.65625q0.484375 0.625 1.359375 0.625q0.84375 0 1.375 -0.6875q0.8125 -1.046875 0.8125 -2.59375l0 -2.0625zm13.070572 0l0 2.0625q0 1.8125 -1.0625 3.484375q-1.046875 1.65625 -3.0 1.65625q-1.125 0 -1.90625 -0.484375q-0.78125 -0.5 -1.484375 -1.828125q-0.6875 -1.34375 -0.6875 -2.828125l0 -2.0625q0 -1.8125 1.046875 -3.484375q1.046875 -1.671875 3.0 -1.671875q1.125 0 1.90625 0.5q0.78125 0.484375 1.484375 1.828125q0.703125 1.328125 0.703125 2.828125zm-1.875 0q0 -1.515625 -0.84375 -2.65625q-0.484375 -0.625 -1.359375 -0.625q-0.84375 0 -1.390625 0.6875q-0.8125 1.046875 -0.8125 2.59375l0 2.0625q0 1.515625 0.859375 2.65625q0.484375 0.625 1.359375 0.625q0.84375 0 1.375 -0.6875q0.8125 -1.046875 0.8125 -2.59375l0 -2.0625z" fill-rule="nonzero"/><path fill="#010000" fill-opacity="0.0" d="m98.564575 102.58829l0 0l0 21.134033l0 0l0 -21.134033z" fill-rule="nonzero"/><path fill="#ffffff" d="m64.97786 119.33331l33.586716 0l0 1.6800003l-33.586716 0l0 -1.6800003z" fill-rule="nonzero"/><path fill="#ffffff" d="m97.04088 133.58247l0 2.0625q0 1.8125 -1.0625 3.484375q-1.046875 1.65625 -3.0 1.65625q-1.125 0 -1.90625 -0.484375q-0.78125 -0.5 -1.484375 -1.828125q-0.6875 -1.34375 -0.6875 -2.828125l0 -2.0625q0 -1.8125 1.046875 -3.484375q1.046875 -1.671875 3.0 -1.671875q1.125 0 1.90625 0.5q0.78125 0.484375 1.484375 1.828125q0.703125 1.328125 0.703125 2.828125zm-1.875 0q0 -1.515625 -0.84375 -2.65625q-0.484375 -0.625 -1.359375 -0.625q-0.84375 0 -1.390625 0.6875q-0.8125 1.046875 -0.8125 2.59375l0 2.0625q0 1.515625 0.859375 2.65625q0.484375 0.625 1.359375 0.625q0.84375 0 1.375 -0.6875q0.8125 -1.046875 0.8125 -2.59375l0 -2.0625z" fill-rule="nonzero"/><path fill="#000000" fill-opacity="0.0" d="m38.002625 5.5905514l176.66142 0l0 42.015747l-176.66142 0z" fill-rule="evenodd"/><path fill="#ffffff" d="m46.83075 36.198048l0 -1.65625l10.640625 0l0 1.65625l-10.640625 0zm10.375717 0l0 -1.65625l10.640625 0l0 1.65625l-10.640625 0zm10.375717 0l0 -1.65625l10.640625 0l0 1.65625l-10.640625 0zm10.375717 0l0 -1.65625l10.640625 0l0 1.65625l-10.640625 0zm10.375717 0l0 -1.65625l10.640625 0l0 1.65625l-10.640625 0z" fill-rule="nonzero"/></g></svg>